%TF.GenerationSoftware,KiCad,Pcbnew,10.0.4*%
%TF.CreationDate,2026-07-26T10:10:29+12:00*%
%TF.ProjectId,MicroDev128,4d696372-6f44-4657-9631-32382e6b6963,rev?*%
%TF.SameCoordinates,PX5f5e100PY5f5e100*%
%TF.FileFunction,Legend,Top*%
%TF.FilePolarity,Positive*%
%FSLAX46Y46*%
G04 Gerber Fmt 4.6, Leading zero omitted, Abs format (unit mm)*
G04 Created by KiCad (PCBNEW 10.0.4) date 2026-07-26 10:10:29*
%MOMM*%
%LPD*%
G01*
G04 APERTURE LIST*
%ADD10C,0.125000*%
%ADD11C,0.150000*%
%ADD12C,0.400000*%
%ADD13C,0.120000*%
G04 APERTURE END LIST*
D10*
X12701283Y30567691D02*
X12701283Y31067691D01*
X12701283Y31067691D02*
X12867950Y30710548D01*
X12867950Y30710548D02*
X13034616Y31067691D01*
X13034616Y31067691D02*
X13034616Y30567691D01*
X13272712Y30567691D02*
X13272712Y30901024D01*
X13272712Y31067691D02*
X13248903Y31043881D01*
X13248903Y31043881D02*
X13272712Y31020072D01*
X13272712Y31020072D02*
X13296522Y31043881D01*
X13296522Y31043881D02*
X13272712Y31067691D01*
X13272712Y31067691D02*
X13272712Y31020072D01*
X13725093Y30591500D02*
X13677474Y30567691D01*
X13677474Y30567691D02*
X13582236Y30567691D01*
X13582236Y30567691D02*
X13534617Y30591500D01*
X13534617Y30591500D02*
X13510807Y30615310D01*
X13510807Y30615310D02*
X13486998Y30662929D01*
X13486998Y30662929D02*
X13486998Y30805786D01*
X13486998Y30805786D02*
X13510807Y30853405D01*
X13510807Y30853405D02*
X13534617Y30877215D01*
X13534617Y30877215D02*
X13582236Y30901024D01*
X13582236Y30901024D02*
X13677474Y30901024D01*
X13677474Y30901024D02*
X13725093Y30877215D01*
X13939378Y30567691D02*
X13939378Y30901024D01*
X13939378Y30805786D02*
X13963188Y30853405D01*
X13963188Y30853405D02*
X13986997Y30877215D01*
X13986997Y30877215D02*
X14034616Y30901024D01*
X14034616Y30901024D02*
X14082235Y30901024D01*
X14320331Y30567691D02*
X14272712Y30591500D01*
X14272712Y30591500D02*
X14248902Y30615310D01*
X14248902Y30615310D02*
X14225093Y30662929D01*
X14225093Y30662929D02*
X14225093Y30805786D01*
X14225093Y30805786D02*
X14248902Y30853405D01*
X14248902Y30853405D02*
X14272712Y30877215D01*
X14272712Y30877215D02*
X14320331Y30901024D01*
X14320331Y30901024D02*
X14391759Y30901024D01*
X14391759Y30901024D02*
X14439378Y30877215D01*
X14439378Y30877215D02*
X14463188Y30853405D01*
X14463188Y30853405D02*
X14486997Y30805786D01*
X14486997Y30805786D02*
X14486997Y30662929D01*
X14486997Y30662929D02*
X14463188Y30615310D01*
X14463188Y30615310D02*
X14439378Y30591500D01*
X14439378Y30591500D02*
X14391759Y30567691D01*
X14391759Y30567691D02*
X14320331Y30567691D01*
X14701283Y30567691D02*
X14701283Y31067691D01*
X14701283Y31067691D02*
X14820331Y31067691D01*
X14820331Y31067691D02*
X14891759Y31043881D01*
X14891759Y31043881D02*
X14939378Y30996262D01*
X14939378Y30996262D02*
X14963188Y30948643D01*
X14963188Y30948643D02*
X14986997Y30853405D01*
X14986997Y30853405D02*
X14986997Y30781977D01*
X14986997Y30781977D02*
X14963188Y30686739D01*
X14963188Y30686739D02*
X14939378Y30639120D01*
X14939378Y30639120D02*
X14891759Y30591500D01*
X14891759Y30591500D02*
X14820331Y30567691D01*
X14820331Y30567691D02*
X14701283Y30567691D01*
X15391759Y30591500D02*
X15344140Y30567691D01*
X15344140Y30567691D02*
X15248902Y30567691D01*
X15248902Y30567691D02*
X15201283Y30591500D01*
X15201283Y30591500D02*
X15177474Y30639120D01*
X15177474Y30639120D02*
X15177474Y30829596D01*
X15177474Y30829596D02*
X15201283Y30877215D01*
X15201283Y30877215D02*
X15248902Y30901024D01*
X15248902Y30901024D02*
X15344140Y30901024D01*
X15344140Y30901024D02*
X15391759Y30877215D01*
X15391759Y30877215D02*
X15415569Y30829596D01*
X15415569Y30829596D02*
X15415569Y30781977D01*
X15415569Y30781977D02*
X15177474Y30734358D01*
X15582235Y30901024D02*
X15701283Y30567691D01*
X15701283Y30567691D02*
X15820330Y30901024D01*
X16272711Y30567691D02*
X15986997Y30567691D01*
X16129854Y30567691D02*
X16129854Y31067691D01*
X16129854Y31067691D02*
X16082235Y30996262D01*
X16082235Y30996262D02*
X16034616Y30948643D01*
X16034616Y30948643D02*
X15986997Y30924834D01*
X16463187Y31020072D02*
X16486996Y31043881D01*
X16486996Y31043881D02*
X16534615Y31067691D01*
X16534615Y31067691D02*
X16653663Y31067691D01*
X16653663Y31067691D02*
X16701282Y31043881D01*
X16701282Y31043881D02*
X16725091Y31020072D01*
X16725091Y31020072D02*
X16748901Y30972453D01*
X16748901Y30972453D02*
X16748901Y30924834D01*
X16748901Y30924834D02*
X16725091Y30853405D01*
X16725091Y30853405D02*
X16439377Y30567691D01*
X16439377Y30567691D02*
X16748901Y30567691D01*
X17034615Y30853405D02*
X16986996Y30877215D01*
X16986996Y30877215D02*
X16963186Y30901024D01*
X16963186Y30901024D02*
X16939377Y30948643D01*
X16939377Y30948643D02*
X16939377Y30972453D01*
X16939377Y30972453D02*
X16963186Y31020072D01*
X16963186Y31020072D02*
X16986996Y31043881D01*
X16986996Y31043881D02*
X17034615Y31067691D01*
X17034615Y31067691D02*
X17129853Y31067691D01*
X17129853Y31067691D02*
X17177472Y31043881D01*
X17177472Y31043881D02*
X17201281Y31020072D01*
X17201281Y31020072D02*
X17225091Y30972453D01*
X17225091Y30972453D02*
X17225091Y30948643D01*
X17225091Y30948643D02*
X17201281Y30901024D01*
X17201281Y30901024D02*
X17177472Y30877215D01*
X17177472Y30877215D02*
X17129853Y30853405D01*
X17129853Y30853405D02*
X17034615Y30853405D01*
X17034615Y30853405D02*
X16986996Y30829596D01*
X16986996Y30829596D02*
X16963186Y30805786D01*
X16963186Y30805786D02*
X16939377Y30758167D01*
X16939377Y30758167D02*
X16939377Y30662929D01*
X16939377Y30662929D02*
X16963186Y30615310D01*
X16963186Y30615310D02*
X16986996Y30591500D01*
X16986996Y30591500D02*
X17034615Y30567691D01*
X17034615Y30567691D02*
X17129853Y30567691D01*
X17129853Y30567691D02*
X17177472Y30591500D01*
X17177472Y30591500D02*
X17201281Y30615310D01*
X17201281Y30615310D02*
X17225091Y30662929D01*
X17225091Y30662929D02*
X17225091Y30758167D01*
X17225091Y30758167D02*
X17201281Y30805786D01*
X17201281Y30805786D02*
X17177472Y30829596D01*
X17177472Y30829596D02*
X17129853Y30853405D01*
X17439376Y30758167D02*
X17820329Y30758167D01*
X18010805Y31067691D02*
X18320329Y31067691D01*
X18320329Y31067691D02*
X18153662Y30877215D01*
X18153662Y30877215D02*
X18225091Y30877215D01*
X18225091Y30877215D02*
X18272710Y30853405D01*
X18272710Y30853405D02*
X18296519Y30829596D01*
X18296519Y30829596D02*
X18320329Y30781977D01*
X18320329Y30781977D02*
X18320329Y30662929D01*
X18320329Y30662929D02*
X18296519Y30615310D01*
X18296519Y30615310D02*
X18272710Y30591500D01*
X18272710Y30591500D02*
X18225091Y30567691D01*
X18225091Y30567691D02*
X18082234Y30567691D01*
X18082234Y30567691D02*
X18034615Y30591500D01*
X18034615Y30591500D02*
X18010805Y30615310D01*
X18510805Y31020072D02*
X18534614Y31043881D01*
X18534614Y31043881D02*
X18582233Y31067691D01*
X18582233Y31067691D02*
X18701281Y31067691D01*
X18701281Y31067691D02*
X18748900Y31043881D01*
X18748900Y31043881D02*
X18772709Y31020072D01*
X18772709Y31020072D02*
X18796519Y30972453D01*
X18796519Y30972453D02*
X18796519Y30924834D01*
X18796519Y30924834D02*
X18772709Y30853405D01*
X18772709Y30853405D02*
X18486995Y30567691D01*
X18486995Y30567691D02*
X18796519Y30567691D01*
X19010804Y30567691D02*
X19010804Y31067691D01*
X19010804Y31067691D02*
X19201280Y31067691D01*
X19201280Y31067691D02*
X19248899Y31043881D01*
X19248899Y31043881D02*
X19272709Y31020072D01*
X19272709Y31020072D02*
X19296518Y30972453D01*
X19296518Y30972453D02*
X19296518Y30901024D01*
X19296518Y30901024D02*
X19272709Y30853405D01*
X19272709Y30853405D02*
X19248899Y30829596D01*
X19248899Y30829596D02*
X19201280Y30805786D01*
X19201280Y30805786D02*
X19010804Y30805786D01*
X-22007691Y43305094D02*
X-22507691Y43305094D01*
X-22507691Y43305094D02*
X-22507691Y43495570D01*
X-22507691Y43495570D02*
X-22483881Y43543189D01*
X-22483881Y43543189D02*
X-22460072Y43566999D01*
X-22460072Y43566999D02*
X-22412453Y43590808D01*
X-22412453Y43590808D02*
X-22341024Y43590808D01*
X-22341024Y43590808D02*
X-22293405Y43566999D01*
X-22293405Y43566999D02*
X-22269596Y43543189D01*
X-22269596Y43543189D02*
X-22245786Y43495570D01*
X-22245786Y43495570D02*
X-22245786Y43305094D01*
X-22007691Y43805094D02*
X-22507691Y43805094D01*
X-22507691Y43805094D02*
X-22507691Y43924142D01*
X-22507691Y43924142D02*
X-22483881Y43995570D01*
X-22483881Y43995570D02*
X-22436262Y44043189D01*
X-22436262Y44043189D02*
X-22388643Y44066999D01*
X-22388643Y44066999D02*
X-22293405Y44090808D01*
X-22293405Y44090808D02*
X-22221977Y44090808D01*
X-22221977Y44090808D02*
X-22126739Y44066999D01*
X-22126739Y44066999D02*
X-22079120Y44043189D01*
X-22079120Y44043189D02*
X-22031500Y43995570D01*
X-22031500Y43995570D02*
X-22007691Y43924142D01*
X-22007691Y43924142D02*
X-22007691Y43805094D01*
X-22507691Y44257475D02*
X-22507691Y44590808D01*
X-22507691Y44590808D02*
X-22007691Y44376523D01*
X-22067691Y32201284D02*
X-22567691Y32201284D01*
X-22567691Y32201284D02*
X-22567691Y32391760D01*
X-22567691Y32391760D02*
X-22543881Y32439379D01*
X-22543881Y32439379D02*
X-22520072Y32463189D01*
X-22520072Y32463189D02*
X-22472453Y32486998D01*
X-22472453Y32486998D02*
X-22401024Y32486998D01*
X-22401024Y32486998D02*
X-22353405Y32463189D01*
X-22353405Y32463189D02*
X-22329596Y32439379D01*
X-22329596Y32439379D02*
X-22305786Y32391760D01*
X-22305786Y32391760D02*
X-22305786Y32201284D01*
X-22210548Y32677475D02*
X-22210548Y32915570D01*
X-22067691Y32629856D02*
X-22567691Y32796522D01*
X-22567691Y32796522D02*
X-22067691Y32963189D01*
X-22520072Y33106046D02*
X-22543881Y33129855D01*
X-22543881Y33129855D02*
X-22567691Y33177474D01*
X-22567691Y33177474D02*
X-22567691Y33296522D01*
X-22567691Y33296522D02*
X-22543881Y33344141D01*
X-22543881Y33344141D02*
X-22520072Y33367950D01*
X-22520072Y33367950D02*
X-22472453Y33391760D01*
X-22472453Y33391760D02*
X-22424834Y33391760D01*
X-22424834Y33391760D02*
X-22353405Y33367950D01*
X-22353405Y33367950D02*
X-22067691Y33082236D01*
X-22067691Y33082236D02*
X-22067691Y33391760D01*
X-19507691Y43305094D02*
X-20007691Y43305094D01*
X-20007691Y43305094D02*
X-20007691Y43495570D01*
X-20007691Y43495570D02*
X-19983881Y43543189D01*
X-19983881Y43543189D02*
X-19960072Y43566999D01*
X-19960072Y43566999D02*
X-19912453Y43590808D01*
X-19912453Y43590808D02*
X-19841024Y43590808D01*
X-19841024Y43590808D02*
X-19793405Y43566999D01*
X-19793405Y43566999D02*
X-19769596Y43543189D01*
X-19769596Y43543189D02*
X-19745786Y43495570D01*
X-19745786Y43495570D02*
X-19745786Y43305094D01*
X-19507691Y43805094D02*
X-20007691Y43805094D01*
X-20007691Y43805094D02*
X-20007691Y43924142D01*
X-20007691Y43924142D02*
X-19983881Y43995570D01*
X-19983881Y43995570D02*
X-19936262Y44043189D01*
X-19936262Y44043189D02*
X-19888643Y44066999D01*
X-19888643Y44066999D02*
X-19793405Y44090808D01*
X-19793405Y44090808D02*
X-19721977Y44090808D01*
X-19721977Y44090808D02*
X-19626739Y44066999D01*
X-19626739Y44066999D02*
X-19579120Y44043189D01*
X-19579120Y44043189D02*
X-19531500Y43995570D01*
X-19531500Y43995570D02*
X-19507691Y43924142D01*
X-19507691Y43924142D02*
X-19507691Y43805094D01*
X-20007691Y44519380D02*
X-20007691Y44424142D01*
X-20007691Y44424142D02*
X-19983881Y44376523D01*
X-19983881Y44376523D02*
X-19960072Y44352713D01*
X-19960072Y44352713D02*
X-19888643Y44305094D01*
X-19888643Y44305094D02*
X-19793405Y44281285D01*
X-19793405Y44281285D02*
X-19602929Y44281285D01*
X-19602929Y44281285D02*
X-19555310Y44305094D01*
X-19555310Y44305094D02*
X-19531500Y44328904D01*
X-19531500Y44328904D02*
X-19507691Y44376523D01*
X-19507691Y44376523D02*
X-19507691Y44471761D01*
X-19507691Y44471761D02*
X-19531500Y44519380D01*
X-19531500Y44519380D02*
X-19555310Y44543189D01*
X-19555310Y44543189D02*
X-19602929Y44566999D01*
X-19602929Y44566999D02*
X-19721977Y44566999D01*
X-19721977Y44566999D02*
X-19769596Y44543189D01*
X-19769596Y44543189D02*
X-19793405Y44519380D01*
X-19793405Y44519380D02*
X-19817215Y44471761D01*
X-19817215Y44471761D02*
X-19817215Y44376523D01*
X-19817215Y44376523D02*
X-19793405Y44328904D01*
X-19793405Y44328904D02*
X-19769596Y44305094D01*
X-19769596Y44305094D02*
X-19721977Y44281285D01*
X-19067691Y32201284D02*
X-19567691Y32201284D01*
X-19567691Y32201284D02*
X-19567691Y32391760D01*
X-19567691Y32391760D02*
X-19543881Y32439379D01*
X-19543881Y32439379D02*
X-19520072Y32463189D01*
X-19520072Y32463189D02*
X-19472453Y32486998D01*
X-19472453Y32486998D02*
X-19401024Y32486998D01*
X-19401024Y32486998D02*
X-19353405Y32463189D01*
X-19353405Y32463189D02*
X-19329596Y32439379D01*
X-19329596Y32439379D02*
X-19305786Y32391760D01*
X-19305786Y32391760D02*
X-19305786Y32201284D01*
X-19210548Y32677475D02*
X-19210548Y32915570D01*
X-19067691Y32629856D02*
X-19567691Y32796522D01*
X-19567691Y32796522D02*
X-19067691Y32963189D01*
X-19567691Y33082236D02*
X-19567691Y33391760D01*
X-19567691Y33391760D02*
X-19377215Y33225093D01*
X-19377215Y33225093D02*
X-19377215Y33296522D01*
X-19377215Y33296522D02*
X-19353405Y33344141D01*
X-19353405Y33344141D02*
X-19329596Y33367950D01*
X-19329596Y33367950D02*
X-19281977Y33391760D01*
X-19281977Y33391760D02*
X-19162929Y33391760D01*
X-19162929Y33391760D02*
X-19115310Y33367950D01*
X-19115310Y33367950D02*
X-19091500Y33344141D01*
X-19091500Y33344141D02*
X-19067691Y33296522D01*
X-19067691Y33296522D02*
X-19067691Y33153665D01*
X-19067691Y33153665D02*
X-19091500Y33106046D01*
X-19091500Y33106046D02*
X-19115310Y33082236D01*
X-17007691Y43305094D02*
X-17507691Y43305094D01*
X-17507691Y43305094D02*
X-17507691Y43495570D01*
X-17507691Y43495570D02*
X-17483881Y43543189D01*
X-17483881Y43543189D02*
X-17460072Y43566999D01*
X-17460072Y43566999D02*
X-17412453Y43590808D01*
X-17412453Y43590808D02*
X-17341024Y43590808D01*
X-17341024Y43590808D02*
X-17293405Y43566999D01*
X-17293405Y43566999D02*
X-17269596Y43543189D01*
X-17269596Y43543189D02*
X-17245786Y43495570D01*
X-17245786Y43495570D02*
X-17245786Y43305094D01*
X-17007691Y43805094D02*
X-17507691Y43805094D01*
X-17507691Y43805094D02*
X-17507691Y43924142D01*
X-17507691Y43924142D02*
X-17483881Y43995570D01*
X-17483881Y43995570D02*
X-17436262Y44043189D01*
X-17436262Y44043189D02*
X-17388643Y44066999D01*
X-17388643Y44066999D02*
X-17293405Y44090808D01*
X-17293405Y44090808D02*
X-17221977Y44090808D01*
X-17221977Y44090808D02*
X-17126739Y44066999D01*
X-17126739Y44066999D02*
X-17079120Y44043189D01*
X-17079120Y44043189D02*
X-17031500Y43995570D01*
X-17031500Y43995570D02*
X-17007691Y43924142D01*
X-17007691Y43924142D02*
X-17007691Y43805094D01*
X-17507691Y44543189D02*
X-17507691Y44305094D01*
X-17507691Y44305094D02*
X-17269596Y44281285D01*
X-17269596Y44281285D02*
X-17293405Y44305094D01*
X-17293405Y44305094D02*
X-17317215Y44352713D01*
X-17317215Y44352713D02*
X-17317215Y44471761D01*
X-17317215Y44471761D02*
X-17293405Y44519380D01*
X-17293405Y44519380D02*
X-17269596Y44543189D01*
X-17269596Y44543189D02*
X-17221977Y44566999D01*
X-17221977Y44566999D02*
X-17102929Y44566999D01*
X-17102929Y44566999D02*
X-17055310Y44543189D01*
X-17055310Y44543189D02*
X-17031500Y44519380D01*
X-17031500Y44519380D02*
X-17007691Y44471761D01*
X-17007691Y44471761D02*
X-17007691Y44352713D01*
X-17007691Y44352713D02*
X-17031500Y44305094D01*
X-17031500Y44305094D02*
X-17055310Y44281285D01*
X-16567691Y32201284D02*
X-17067691Y32201284D01*
X-17067691Y32201284D02*
X-17067691Y32391760D01*
X-17067691Y32391760D02*
X-17043881Y32439379D01*
X-17043881Y32439379D02*
X-17020072Y32463189D01*
X-17020072Y32463189D02*
X-16972453Y32486998D01*
X-16972453Y32486998D02*
X-16901024Y32486998D01*
X-16901024Y32486998D02*
X-16853405Y32463189D01*
X-16853405Y32463189D02*
X-16829596Y32439379D01*
X-16829596Y32439379D02*
X-16805786Y32391760D01*
X-16805786Y32391760D02*
X-16805786Y32201284D01*
X-16710548Y32677475D02*
X-16710548Y32915570D01*
X-16567691Y32629856D02*
X-17067691Y32796522D01*
X-17067691Y32796522D02*
X-16567691Y32963189D01*
X-16901024Y33344141D02*
X-16567691Y33344141D01*
X-17091500Y33225093D02*
X-16734358Y33106046D01*
X-16734358Y33106046D02*
X-16734358Y33415569D01*
X-14507691Y43305094D02*
X-15007691Y43305094D01*
X-15007691Y43305094D02*
X-15007691Y43495570D01*
X-15007691Y43495570D02*
X-14983881Y43543189D01*
X-14983881Y43543189D02*
X-14960072Y43566999D01*
X-14960072Y43566999D02*
X-14912453Y43590808D01*
X-14912453Y43590808D02*
X-14841024Y43590808D01*
X-14841024Y43590808D02*
X-14793405Y43566999D01*
X-14793405Y43566999D02*
X-14769596Y43543189D01*
X-14769596Y43543189D02*
X-14745786Y43495570D01*
X-14745786Y43495570D02*
X-14745786Y43305094D01*
X-14507691Y43805094D02*
X-15007691Y43805094D01*
X-15007691Y43805094D02*
X-15007691Y43924142D01*
X-15007691Y43924142D02*
X-14983881Y43995570D01*
X-14983881Y43995570D02*
X-14936262Y44043189D01*
X-14936262Y44043189D02*
X-14888643Y44066999D01*
X-14888643Y44066999D02*
X-14793405Y44090808D01*
X-14793405Y44090808D02*
X-14721977Y44090808D01*
X-14721977Y44090808D02*
X-14626739Y44066999D01*
X-14626739Y44066999D02*
X-14579120Y44043189D01*
X-14579120Y44043189D02*
X-14531500Y43995570D01*
X-14531500Y43995570D02*
X-14507691Y43924142D01*
X-14507691Y43924142D02*
X-14507691Y43805094D01*
X-14841024Y44519380D02*
X-14507691Y44519380D01*
X-15031500Y44400332D02*
X-14674358Y44281285D01*
X-14674358Y44281285D02*
X-14674358Y44590808D01*
X-14117691Y31811284D02*
X-14617691Y31811284D01*
X-14617691Y31811284D02*
X-14617691Y32001760D01*
X-14617691Y32001760D02*
X-14593881Y32049379D01*
X-14593881Y32049379D02*
X-14570072Y32073189D01*
X-14570072Y32073189D02*
X-14522453Y32096998D01*
X-14522453Y32096998D02*
X-14451024Y32096998D01*
X-14451024Y32096998D02*
X-14403405Y32073189D01*
X-14403405Y32073189D02*
X-14379596Y32049379D01*
X-14379596Y32049379D02*
X-14355786Y32001760D01*
X-14355786Y32001760D02*
X-14355786Y31811284D01*
X-14260548Y32287475D02*
X-14260548Y32525570D01*
X-14117691Y32239856D02*
X-14617691Y32406522D01*
X-14617691Y32406522D02*
X-14117691Y32573189D01*
X-14617691Y32977950D02*
X-14617691Y32739855D01*
X-14617691Y32739855D02*
X-14379596Y32716046D01*
X-14379596Y32716046D02*
X-14403405Y32739855D01*
X-14403405Y32739855D02*
X-14427215Y32787474D01*
X-14427215Y32787474D02*
X-14427215Y32906522D01*
X-14427215Y32906522D02*
X-14403405Y32954141D01*
X-14403405Y32954141D02*
X-14379596Y32977950D01*
X-14379596Y32977950D02*
X-14331977Y33001760D01*
X-14331977Y33001760D02*
X-14212929Y33001760D01*
X-14212929Y33001760D02*
X-14165310Y32977950D01*
X-14165310Y32977950D02*
X-14141500Y32954141D01*
X-14141500Y32954141D02*
X-14117691Y32906522D01*
X-14117691Y32906522D02*
X-14117691Y32787474D01*
X-14117691Y32787474D02*
X-14141500Y32739855D01*
X-14141500Y32739855D02*
X-14165310Y32716046D01*
X-12667691Y44257475D02*
X-12667691Y44566999D01*
X-12667691Y44566999D02*
X-12477215Y44400332D01*
X-12477215Y44400332D02*
X-12477215Y44471761D01*
X-12477215Y44471761D02*
X-12453405Y44519380D01*
X-12453405Y44519380D02*
X-12429596Y44543189D01*
X-12429596Y44543189D02*
X-12381977Y44566999D01*
X-12381977Y44566999D02*
X-12262929Y44566999D01*
X-12262929Y44566999D02*
X-12215310Y44543189D01*
X-12215310Y44543189D02*
X-12191500Y44519380D01*
X-12191500Y44519380D02*
X-12167691Y44471761D01*
X-12167691Y44471761D02*
X-12167691Y44328904D01*
X-12167691Y44328904D02*
X-12191500Y44281285D01*
X-12191500Y44281285D02*
X-12215310Y44257475D01*
X-11727691Y31811284D02*
X-12227691Y31811284D01*
X-12227691Y31811284D02*
X-12227691Y32001760D01*
X-12227691Y32001760D02*
X-12203881Y32049379D01*
X-12203881Y32049379D02*
X-12180072Y32073189D01*
X-12180072Y32073189D02*
X-12132453Y32096998D01*
X-12132453Y32096998D02*
X-12061024Y32096998D01*
X-12061024Y32096998D02*
X-12013405Y32073189D01*
X-12013405Y32073189D02*
X-11989596Y32049379D01*
X-11989596Y32049379D02*
X-11965786Y32001760D01*
X-11965786Y32001760D02*
X-11965786Y31811284D01*
X-11870548Y32287475D02*
X-11870548Y32525570D01*
X-11727691Y32239856D02*
X-12227691Y32406522D01*
X-12227691Y32406522D02*
X-11727691Y32573189D01*
X-12227691Y32954141D02*
X-12227691Y32858903D01*
X-12227691Y32858903D02*
X-12203881Y32811284D01*
X-12203881Y32811284D02*
X-12180072Y32787474D01*
X-12180072Y32787474D02*
X-12108643Y32739855D01*
X-12108643Y32739855D02*
X-12013405Y32716046D01*
X-12013405Y32716046D02*
X-11822929Y32716046D01*
X-11822929Y32716046D02*
X-11775310Y32739855D01*
X-11775310Y32739855D02*
X-11751500Y32763665D01*
X-11751500Y32763665D02*
X-11727691Y32811284D01*
X-11727691Y32811284D02*
X-11727691Y32906522D01*
X-11727691Y32906522D02*
X-11751500Y32954141D01*
X-11751500Y32954141D02*
X-11775310Y32977950D01*
X-11775310Y32977950D02*
X-11822929Y33001760D01*
X-11822929Y33001760D02*
X-11941977Y33001760D01*
X-11941977Y33001760D02*
X-11989596Y32977950D01*
X-11989596Y32977950D02*
X-12013405Y32954141D01*
X-12013405Y32954141D02*
X-12037215Y32906522D01*
X-12037215Y32906522D02*
X-12037215Y32811284D01*
X-12037215Y32811284D02*
X-12013405Y32763665D01*
X-12013405Y32763665D02*
X-11989596Y32739855D01*
X-11989596Y32739855D02*
X-11941977Y32716046D01*
X-9460072Y44281285D02*
X-9483881Y44305094D01*
X-9483881Y44305094D02*
X-9507691Y44352713D01*
X-9507691Y44352713D02*
X-9507691Y44471761D01*
X-9507691Y44471761D02*
X-9483881Y44519380D01*
X-9483881Y44519380D02*
X-9460072Y44543189D01*
X-9460072Y44543189D02*
X-9412453Y44566999D01*
X-9412453Y44566999D02*
X-9364834Y44566999D01*
X-9364834Y44566999D02*
X-9293405Y44543189D01*
X-9293405Y44543189D02*
X-9007691Y44257475D01*
X-9007691Y44257475D02*
X-9007691Y44566999D01*
X-9067691Y32201284D02*
X-9567691Y32201284D01*
X-9567691Y32201284D02*
X-9567691Y32391760D01*
X-9567691Y32391760D02*
X-9543881Y32439379D01*
X-9543881Y32439379D02*
X-9520072Y32463189D01*
X-9520072Y32463189D02*
X-9472453Y32486998D01*
X-9472453Y32486998D02*
X-9401024Y32486998D01*
X-9401024Y32486998D02*
X-9353405Y32463189D01*
X-9353405Y32463189D02*
X-9329596Y32439379D01*
X-9329596Y32439379D02*
X-9305786Y32391760D01*
X-9305786Y32391760D02*
X-9305786Y32201284D01*
X-9210548Y32677475D02*
X-9210548Y32915570D01*
X-9067691Y32629856D02*
X-9567691Y32796522D01*
X-9567691Y32796522D02*
X-9067691Y32963189D01*
X-9567691Y33082236D02*
X-9567691Y33415569D01*
X-9567691Y33415569D02*
X-9067691Y33201284D01*
X-6507691Y43305094D02*
X-7007691Y43305094D01*
X-7007691Y43305094D02*
X-7007691Y43495570D01*
X-7007691Y43495570D02*
X-6983881Y43543189D01*
X-6983881Y43543189D02*
X-6960072Y43566999D01*
X-6960072Y43566999D02*
X-6912453Y43590808D01*
X-6912453Y43590808D02*
X-6841024Y43590808D01*
X-6841024Y43590808D02*
X-6793405Y43566999D01*
X-6793405Y43566999D02*
X-6769596Y43543189D01*
X-6769596Y43543189D02*
X-6745786Y43495570D01*
X-6745786Y43495570D02*
X-6745786Y43305094D01*
X-6507691Y43805094D02*
X-7007691Y43805094D01*
X-7007691Y43805094D02*
X-7007691Y43924142D01*
X-7007691Y43924142D02*
X-6983881Y43995570D01*
X-6983881Y43995570D02*
X-6936262Y44043189D01*
X-6936262Y44043189D02*
X-6888643Y44066999D01*
X-6888643Y44066999D02*
X-6793405Y44090808D01*
X-6793405Y44090808D02*
X-6721977Y44090808D01*
X-6721977Y44090808D02*
X-6626739Y44066999D01*
X-6626739Y44066999D02*
X-6579120Y44043189D01*
X-6579120Y44043189D02*
X-6531500Y43995570D01*
X-6531500Y43995570D02*
X-6507691Y43924142D01*
X-6507691Y43924142D02*
X-6507691Y43805094D01*
X-6507691Y44566999D02*
X-6507691Y44281285D01*
X-6507691Y44424142D02*
X-7007691Y44424142D01*
X-7007691Y44424142D02*
X-6936262Y44376523D01*
X-6936262Y44376523D02*
X-6888643Y44328904D01*
X-6888643Y44328904D02*
X-6864834Y44281285D01*
X-6567691Y32201284D02*
X-7067691Y32201284D01*
X-7067691Y32201284D02*
X-7067691Y32391760D01*
X-7067691Y32391760D02*
X-7043881Y32439379D01*
X-7043881Y32439379D02*
X-7020072Y32463189D01*
X-7020072Y32463189D02*
X-6972453Y32486998D01*
X-6972453Y32486998D02*
X-6901024Y32486998D01*
X-6901024Y32486998D02*
X-6853405Y32463189D01*
X-6853405Y32463189D02*
X-6829596Y32439379D01*
X-6829596Y32439379D02*
X-6805786Y32391760D01*
X-6805786Y32391760D02*
X-6805786Y32201284D01*
X-6615310Y32986998D02*
X-6591500Y32963189D01*
X-6591500Y32963189D02*
X-6567691Y32891760D01*
X-6567691Y32891760D02*
X-6567691Y32844141D01*
X-6567691Y32844141D02*
X-6591500Y32772713D01*
X-6591500Y32772713D02*
X-6639120Y32725094D01*
X-6639120Y32725094D02*
X-6686739Y32701284D01*
X-6686739Y32701284D02*
X-6781977Y32677475D01*
X-6781977Y32677475D02*
X-6853405Y32677475D01*
X-6853405Y32677475D02*
X-6948643Y32701284D01*
X-6948643Y32701284D02*
X-6996262Y32725094D01*
X-6996262Y32725094D02*
X-7043881Y32772713D01*
X-7043881Y32772713D02*
X-7067691Y32844141D01*
X-7067691Y32844141D02*
X-7067691Y32891760D01*
X-7067691Y32891760D02*
X-7043881Y32963189D01*
X-7043881Y32963189D02*
X-7020072Y32986998D01*
X-7067691Y33296522D02*
X-7067691Y33344141D01*
X-7067691Y33344141D02*
X-7043881Y33391760D01*
X-7043881Y33391760D02*
X-7020072Y33415570D01*
X-7020072Y33415570D02*
X-6972453Y33439379D01*
X-6972453Y33439379D02*
X-6877215Y33463189D01*
X-6877215Y33463189D02*
X-6758167Y33463189D01*
X-6758167Y33463189D02*
X-6662929Y33439379D01*
X-6662929Y33439379D02*
X-6615310Y33415570D01*
X-6615310Y33415570D02*
X-6591500Y33391760D01*
X-6591500Y33391760D02*
X-6567691Y33344141D01*
X-6567691Y33344141D02*
X-6567691Y33296522D01*
X-6567691Y33296522D02*
X-6591500Y33248903D01*
X-6591500Y33248903D02*
X-6615310Y33225094D01*
X-6615310Y33225094D02*
X-6662929Y33201284D01*
X-6662929Y33201284D02*
X-6758167Y33177475D01*
X-6758167Y33177475D02*
X-6877215Y33177475D01*
X-6877215Y33177475D02*
X-6972453Y33201284D01*
X-6972453Y33201284D02*
X-7020072Y33225094D01*
X-7020072Y33225094D02*
X-7043881Y33248903D01*
X-7043881Y33248903D02*
X-7067691Y33296522D01*
X-4290143Y43986998D02*
X-4528238Y43820332D01*
X-4290143Y43701284D02*
X-4790143Y43701284D01*
X-4790143Y43701284D02*
X-4790143Y43891760D01*
X-4790143Y43891760D02*
X-4766333Y43939379D01*
X-4766333Y43939379D02*
X-4742524Y43963189D01*
X-4742524Y43963189D02*
X-4694905Y43986998D01*
X-4694905Y43986998D02*
X-4623476Y43986998D01*
X-4623476Y43986998D02*
X-4575857Y43963189D01*
X-4575857Y43963189D02*
X-4552048Y43939379D01*
X-4552048Y43939379D02*
X-4528238Y43891760D01*
X-4528238Y43891760D02*
X-4528238Y43701284D01*
X-4313952Y44177475D02*
X-4290143Y44248903D01*
X-4290143Y44248903D02*
X-4290143Y44367951D01*
X-4290143Y44367951D02*
X-4313952Y44415570D01*
X-4313952Y44415570D02*
X-4337762Y44439379D01*
X-4337762Y44439379D02*
X-4385381Y44463189D01*
X-4385381Y44463189D02*
X-4433000Y44463189D01*
X-4433000Y44463189D02*
X-4480619Y44439379D01*
X-4480619Y44439379D02*
X-4504429Y44415570D01*
X-4504429Y44415570D02*
X-4528238Y44367951D01*
X-4528238Y44367951D02*
X-4552048Y44272713D01*
X-4552048Y44272713D02*
X-4575857Y44225094D01*
X-4575857Y44225094D02*
X-4599667Y44201284D01*
X-4599667Y44201284D02*
X-4647286Y44177475D01*
X-4647286Y44177475D02*
X-4694905Y44177475D01*
X-4694905Y44177475D02*
X-4742524Y44201284D01*
X-4742524Y44201284D02*
X-4766333Y44225094D01*
X-4766333Y44225094D02*
X-4790143Y44272713D01*
X-4790143Y44272713D02*
X-4790143Y44391760D01*
X-4790143Y44391760D02*
X-4766333Y44463189D01*
X-4790143Y44606046D02*
X-4790143Y44891760D01*
X-4290143Y44748903D02*
X-4790143Y44748903D01*
X-4067691Y32201284D02*
X-4567691Y32201284D01*
X-4567691Y32201284D02*
X-4567691Y32391760D01*
X-4567691Y32391760D02*
X-4543881Y32439379D01*
X-4543881Y32439379D02*
X-4520072Y32463189D01*
X-4520072Y32463189D02*
X-4472453Y32486998D01*
X-4472453Y32486998D02*
X-4401024Y32486998D01*
X-4401024Y32486998D02*
X-4353405Y32463189D01*
X-4353405Y32463189D02*
X-4329596Y32439379D01*
X-4329596Y32439379D02*
X-4305786Y32391760D01*
X-4305786Y32391760D02*
X-4305786Y32201284D01*
X-4115310Y32986998D02*
X-4091500Y32963189D01*
X-4091500Y32963189D02*
X-4067691Y32891760D01*
X-4067691Y32891760D02*
X-4067691Y32844141D01*
X-4067691Y32844141D02*
X-4091500Y32772713D01*
X-4091500Y32772713D02*
X-4139120Y32725094D01*
X-4139120Y32725094D02*
X-4186739Y32701284D01*
X-4186739Y32701284D02*
X-4281977Y32677475D01*
X-4281977Y32677475D02*
X-4353405Y32677475D01*
X-4353405Y32677475D02*
X-4448643Y32701284D01*
X-4448643Y32701284D02*
X-4496262Y32725094D01*
X-4496262Y32725094D02*
X-4543881Y32772713D01*
X-4543881Y32772713D02*
X-4567691Y32844141D01*
X-4567691Y32844141D02*
X-4567691Y32891760D01*
X-4567691Y32891760D02*
X-4543881Y32963189D01*
X-4543881Y32963189D02*
X-4520072Y32986998D01*
X-4067691Y33463189D02*
X-4067691Y33177475D01*
X-4067691Y33320332D02*
X-4567691Y33320332D01*
X-4567691Y33320332D02*
X-4496262Y33272713D01*
X-4496262Y33272713D02*
X-4448643Y33225094D01*
X-4448643Y33225094D02*
X-4424834Y33177475D01*
X-1567691Y32201284D02*
X-2067691Y32201284D01*
X-2067691Y32201284D02*
X-2067691Y32391760D01*
X-2067691Y32391760D02*
X-2043881Y32439379D01*
X-2043881Y32439379D02*
X-2020072Y32463189D01*
X-2020072Y32463189D02*
X-1972453Y32486998D01*
X-1972453Y32486998D02*
X-1901024Y32486998D01*
X-1901024Y32486998D02*
X-1853405Y32463189D01*
X-1853405Y32463189D02*
X-1829596Y32439379D01*
X-1829596Y32439379D02*
X-1805786Y32391760D01*
X-1805786Y32391760D02*
X-1805786Y32201284D01*
X-1615310Y32986998D02*
X-1591500Y32963189D01*
X-1591500Y32963189D02*
X-1567691Y32891760D01*
X-1567691Y32891760D02*
X-1567691Y32844141D01*
X-1567691Y32844141D02*
X-1591500Y32772713D01*
X-1591500Y32772713D02*
X-1639120Y32725094D01*
X-1639120Y32725094D02*
X-1686739Y32701284D01*
X-1686739Y32701284D02*
X-1781977Y32677475D01*
X-1781977Y32677475D02*
X-1853405Y32677475D01*
X-1853405Y32677475D02*
X-1948643Y32701284D01*
X-1948643Y32701284D02*
X-1996262Y32725094D01*
X-1996262Y32725094D02*
X-2043881Y32772713D01*
X-2043881Y32772713D02*
X-2067691Y32844141D01*
X-2067691Y32844141D02*
X-2067691Y32891760D01*
X-2067691Y32891760D02*
X-2043881Y32963189D01*
X-2043881Y32963189D02*
X-2020072Y32986998D01*
X-2020072Y33177475D02*
X-2043881Y33201284D01*
X-2043881Y33201284D02*
X-2067691Y33248903D01*
X-2067691Y33248903D02*
X-2067691Y33367951D01*
X-2067691Y33367951D02*
X-2043881Y33415570D01*
X-2043881Y33415570D02*
X-2020072Y33439379D01*
X-2020072Y33439379D02*
X-1972453Y33463189D01*
X-1972453Y33463189D02*
X-1924834Y33463189D01*
X-1924834Y33463189D02*
X-1853405Y33439379D01*
X-1853405Y33439379D02*
X-1567691Y33153665D01*
X-1567691Y33153665D02*
X-1567691Y33463189D01*
X-1857691Y43828903D02*
X-1857691Y43590808D01*
X-1857691Y43590808D02*
X-1619596Y43566999D01*
X-1619596Y43566999D02*
X-1643405Y43590808D01*
X-1643405Y43590808D02*
X-1667215Y43638427D01*
X-1667215Y43638427D02*
X-1667215Y43757475D01*
X-1667215Y43757475D02*
X-1643405Y43805094D01*
X-1643405Y43805094D02*
X-1619596Y43828903D01*
X-1619596Y43828903D02*
X-1571977Y43852713D01*
X-1571977Y43852713D02*
X-1452929Y43852713D01*
X-1452929Y43852713D02*
X-1405310Y43828903D01*
X-1405310Y43828903D02*
X-1381500Y43805094D01*
X-1381500Y43805094D02*
X-1357691Y43757475D01*
X-1357691Y43757475D02*
X-1357691Y43638427D01*
X-1357691Y43638427D02*
X-1381500Y43590808D01*
X-1381500Y43590808D02*
X-1405310Y43566999D01*
X-1857691Y43995570D02*
X-1357691Y44162236D01*
X-1357691Y44162236D02*
X-1857691Y44328903D01*
X442309Y43186047D02*
X442309Y43495571D01*
X442309Y43495571D02*
X632785Y43328904D01*
X632785Y43328904D02*
X632785Y43400333D01*
X632785Y43400333D02*
X656595Y43447952D01*
X656595Y43447952D02*
X680404Y43471761D01*
X680404Y43471761D02*
X728023Y43495571D01*
X728023Y43495571D02*
X847071Y43495571D01*
X847071Y43495571D02*
X894690Y43471761D01*
X894690Y43471761D02*
X918500Y43447952D01*
X918500Y43447952D02*
X942309Y43400333D01*
X942309Y43400333D02*
X942309Y43257476D01*
X942309Y43257476D02*
X918500Y43209857D01*
X918500Y43209857D02*
X894690Y43186047D01*
X894690Y43709856D02*
X918500Y43733666D01*
X918500Y43733666D02*
X942309Y43709856D01*
X942309Y43709856D02*
X918500Y43686047D01*
X918500Y43686047D02*
X894690Y43709856D01*
X894690Y43709856D02*
X942309Y43709856D01*
X442309Y43900332D02*
X442309Y44209856D01*
X442309Y44209856D02*
X632785Y44043189D01*
X632785Y44043189D02*
X632785Y44114618D01*
X632785Y44114618D02*
X656595Y44162237D01*
X656595Y44162237D02*
X680404Y44186046D01*
X680404Y44186046D02*
X728023Y44209856D01*
X728023Y44209856D02*
X847071Y44209856D01*
X847071Y44209856D02*
X894690Y44186046D01*
X894690Y44186046D02*
X918500Y44162237D01*
X918500Y44162237D02*
X942309Y44114618D01*
X942309Y44114618D02*
X942309Y43971761D01*
X942309Y43971761D02*
X918500Y43924142D01*
X918500Y43924142D02*
X894690Y43900332D01*
X442309Y44352713D02*
X942309Y44519379D01*
X942309Y44519379D02*
X442309Y44686046D01*
X932309Y32201284D02*
X432309Y32201284D01*
X432309Y32201284D02*
X432309Y32391760D01*
X432309Y32391760D02*
X456119Y32439379D01*
X456119Y32439379D02*
X479928Y32463189D01*
X479928Y32463189D02*
X527547Y32486998D01*
X527547Y32486998D02*
X598976Y32486998D01*
X598976Y32486998D02*
X646595Y32463189D01*
X646595Y32463189D02*
X670404Y32439379D01*
X670404Y32439379D02*
X694214Y32391760D01*
X694214Y32391760D02*
X694214Y32201284D01*
X884690Y32986998D02*
X908500Y32963189D01*
X908500Y32963189D02*
X932309Y32891760D01*
X932309Y32891760D02*
X932309Y32844141D01*
X932309Y32844141D02*
X908500Y32772713D01*
X908500Y32772713D02*
X860880Y32725094D01*
X860880Y32725094D02*
X813261Y32701284D01*
X813261Y32701284D02*
X718023Y32677475D01*
X718023Y32677475D02*
X646595Y32677475D01*
X646595Y32677475D02*
X551357Y32701284D01*
X551357Y32701284D02*
X503738Y32725094D01*
X503738Y32725094D02*
X456119Y32772713D01*
X456119Y32772713D02*
X432309Y32844141D01*
X432309Y32844141D02*
X432309Y32891760D01*
X432309Y32891760D02*
X456119Y32963189D01*
X456119Y32963189D02*
X479928Y32986998D01*
X432309Y33153665D02*
X432309Y33463189D01*
X432309Y33463189D02*
X622785Y33296522D01*
X622785Y33296522D02*
X622785Y33367951D01*
X622785Y33367951D02*
X646595Y33415570D01*
X646595Y33415570D02*
X670404Y33439379D01*
X670404Y33439379D02*
X718023Y33463189D01*
X718023Y33463189D02*
X837071Y33463189D01*
X837071Y33463189D02*
X884690Y33439379D01*
X884690Y33439379D02*
X908500Y33415570D01*
X908500Y33415570D02*
X932309Y33367951D01*
X932309Y33367951D02*
X932309Y33225094D01*
X932309Y33225094D02*
X908500Y33177475D01*
X908500Y33177475D02*
X884690Y33153665D01*
X3432309Y32201284D02*
X2932309Y32201284D01*
X2932309Y32201284D02*
X2932309Y32391760D01*
X2932309Y32391760D02*
X2956119Y32439379D01*
X2956119Y32439379D02*
X2979928Y32463189D01*
X2979928Y32463189D02*
X3027547Y32486998D01*
X3027547Y32486998D02*
X3098976Y32486998D01*
X3098976Y32486998D02*
X3146595Y32463189D01*
X3146595Y32463189D02*
X3170404Y32439379D01*
X3170404Y32439379D02*
X3194214Y32391760D01*
X3194214Y32391760D02*
X3194214Y32201284D01*
X3170404Y32867951D02*
X3170404Y32701284D01*
X3432309Y32701284D02*
X2932309Y32701284D01*
X2932309Y32701284D02*
X2932309Y32939379D01*
X2932309Y33367950D02*
X2932309Y33129855D01*
X2932309Y33129855D02*
X3170404Y33106046D01*
X3170404Y33106046D02*
X3146595Y33129855D01*
X3146595Y33129855D02*
X3122785Y33177474D01*
X3122785Y33177474D02*
X3122785Y33296522D01*
X3122785Y33296522D02*
X3146595Y33344141D01*
X3146595Y33344141D02*
X3170404Y33367950D01*
X3170404Y33367950D02*
X3218023Y33391760D01*
X3218023Y33391760D02*
X3337071Y33391760D01*
X3337071Y33391760D02*
X3384690Y33367950D01*
X3384690Y33367950D02*
X3408500Y33344141D01*
X3408500Y33344141D02*
X3432309Y33296522D01*
X3432309Y33296522D02*
X3432309Y33177474D01*
X3432309Y33177474D02*
X3408500Y33129855D01*
X3408500Y33129855D02*
X3384690Y33106046D01*
X6316119Y43553189D02*
X6292309Y43505570D01*
X6292309Y43505570D02*
X6292309Y43434141D01*
X6292309Y43434141D02*
X6316119Y43362713D01*
X6316119Y43362713D02*
X6363738Y43315094D01*
X6363738Y43315094D02*
X6411357Y43291284D01*
X6411357Y43291284D02*
X6506595Y43267475D01*
X6506595Y43267475D02*
X6578023Y43267475D01*
X6578023Y43267475D02*
X6673261Y43291284D01*
X6673261Y43291284D02*
X6720880Y43315094D01*
X6720880Y43315094D02*
X6768500Y43362713D01*
X6768500Y43362713D02*
X6792309Y43434141D01*
X6792309Y43434141D02*
X6792309Y43481760D01*
X6792309Y43481760D02*
X6768500Y43553189D01*
X6768500Y43553189D02*
X6744690Y43576998D01*
X6744690Y43576998D02*
X6578023Y43576998D01*
X6578023Y43576998D02*
X6578023Y43481760D01*
X6792309Y43791284D02*
X6292309Y43791284D01*
X6292309Y43791284D02*
X6792309Y44076998D01*
X6792309Y44076998D02*
X6292309Y44076998D01*
X6792309Y44315094D02*
X6292309Y44315094D01*
X6292309Y44315094D02*
X6292309Y44434142D01*
X6292309Y44434142D02*
X6316119Y44505570D01*
X6316119Y44505570D02*
X6363738Y44553189D01*
X6363738Y44553189D02*
X6411357Y44576999D01*
X6411357Y44576999D02*
X6506595Y44600808D01*
X6506595Y44600808D02*
X6578023Y44600808D01*
X6578023Y44600808D02*
X6673261Y44576999D01*
X6673261Y44576999D02*
X6720880Y44553189D01*
X6720880Y44553189D02*
X6768500Y44505570D01*
X6768500Y44505570D02*
X6792309Y44434142D01*
X6792309Y44434142D02*
X6792309Y44315094D01*
X5932309Y32201284D02*
X5432309Y32201284D01*
X5432309Y32201284D02*
X5432309Y32391760D01*
X5432309Y32391760D02*
X5456119Y32439379D01*
X5456119Y32439379D02*
X5479928Y32463189D01*
X5479928Y32463189D02*
X5527547Y32486998D01*
X5527547Y32486998D02*
X5598976Y32486998D01*
X5598976Y32486998D02*
X5646595Y32463189D01*
X5646595Y32463189D02*
X5670404Y32439379D01*
X5670404Y32439379D02*
X5694214Y32391760D01*
X5694214Y32391760D02*
X5694214Y32201284D01*
X5670404Y32867951D02*
X5670404Y32701284D01*
X5932309Y32701284D02*
X5432309Y32701284D01*
X5432309Y32701284D02*
X5432309Y32939379D01*
X5598976Y33344141D02*
X5932309Y33344141D01*
X5408500Y33225093D02*
X5765642Y33106046D01*
X5765642Y33106046D02*
X5765642Y33415569D01*
X5566119Y43543189D02*
X5542309Y43495570D01*
X5542309Y43495570D02*
X5542309Y43424141D01*
X5542309Y43424141D02*
X5566119Y43352713D01*
X5566119Y43352713D02*
X5613738Y43305094D01*
X5613738Y43305094D02*
X5661357Y43281284D01*
X5661357Y43281284D02*
X5756595Y43257475D01*
X5756595Y43257475D02*
X5828023Y43257475D01*
X5828023Y43257475D02*
X5923261Y43281284D01*
X5923261Y43281284D02*
X5970880Y43305094D01*
X5970880Y43305094D02*
X6018500Y43352713D01*
X6018500Y43352713D02*
X6042309Y43424141D01*
X6042309Y43424141D02*
X6042309Y43471760D01*
X6042309Y43471760D02*
X6018500Y43543189D01*
X6018500Y43543189D02*
X5994690Y43566998D01*
X5994690Y43566998D02*
X5828023Y43566998D01*
X5828023Y43566998D02*
X5828023Y43471760D01*
X6042309Y43781284D02*
X5542309Y43781284D01*
X5542309Y43781284D02*
X6042309Y44066998D01*
X6042309Y44066998D02*
X5542309Y44066998D01*
X6042309Y44305094D02*
X5542309Y44305094D01*
X5542309Y44305094D02*
X5542309Y44424142D01*
X5542309Y44424142D02*
X5566119Y44495570D01*
X5566119Y44495570D02*
X5613738Y44543189D01*
X5613738Y44543189D02*
X5661357Y44566999D01*
X5661357Y44566999D02*
X5756595Y44590808D01*
X5756595Y44590808D02*
X5828023Y44590808D01*
X5828023Y44590808D02*
X5923261Y44566999D01*
X5923261Y44566999D02*
X5970880Y44543189D01*
X5970880Y44543189D02*
X6018500Y44495570D01*
X6018500Y44495570D02*
X6042309Y44424142D01*
X6042309Y44424142D02*
X6042309Y44305094D01*
X8432309Y32201284D02*
X7932309Y32201284D01*
X7932309Y32201284D02*
X7932309Y32391760D01*
X7932309Y32391760D02*
X7956119Y32439379D01*
X7956119Y32439379D02*
X7979928Y32463189D01*
X7979928Y32463189D02*
X8027547Y32486998D01*
X8027547Y32486998D02*
X8098976Y32486998D01*
X8098976Y32486998D02*
X8146595Y32463189D01*
X8146595Y32463189D02*
X8170404Y32439379D01*
X8170404Y32439379D02*
X8194214Y32391760D01*
X8194214Y32391760D02*
X8194214Y32201284D01*
X8170404Y32867951D02*
X8170404Y32701284D01*
X8432309Y32701284D02*
X7932309Y32701284D01*
X7932309Y32701284D02*
X7932309Y32939379D01*
X7932309Y33082236D02*
X7932309Y33391760D01*
X7932309Y33391760D02*
X8122785Y33225093D01*
X8122785Y33225093D02*
X8122785Y33296522D01*
X8122785Y33296522D02*
X8146595Y33344141D01*
X8146595Y33344141D02*
X8170404Y33367950D01*
X8170404Y33367950D02*
X8218023Y33391760D01*
X8218023Y33391760D02*
X8337071Y33391760D01*
X8337071Y33391760D02*
X8384690Y33367950D01*
X8384690Y33367950D02*
X8408500Y33344141D01*
X8408500Y33344141D02*
X8432309Y33296522D01*
X8432309Y33296522D02*
X8432309Y33153665D01*
X8432309Y33153665D02*
X8408500Y33106046D01*
X8408500Y33106046D02*
X8384690Y33082236D01*
X7982309Y40629856D02*
X8482309Y40796522D01*
X8482309Y40796522D02*
X7982309Y40963189D01*
X8482309Y41129855D02*
X7982309Y41129855D01*
X8482309Y41367950D02*
X7982309Y41367950D01*
X7982309Y41367950D02*
X8482309Y41653664D01*
X8482309Y41653664D02*
X7982309Y41653664D01*
X10932309Y32201284D02*
X10432309Y32201284D01*
X10432309Y32201284D02*
X10432309Y32391760D01*
X10432309Y32391760D02*
X10456119Y32439379D01*
X10456119Y32439379D02*
X10479928Y32463189D01*
X10479928Y32463189D02*
X10527547Y32486998D01*
X10527547Y32486998D02*
X10598976Y32486998D01*
X10598976Y32486998D02*
X10646595Y32463189D01*
X10646595Y32463189D02*
X10670404Y32439379D01*
X10670404Y32439379D02*
X10694214Y32391760D01*
X10694214Y32391760D02*
X10694214Y32201284D01*
X10670404Y32867951D02*
X10670404Y32701284D01*
X10932309Y32701284D02*
X10432309Y32701284D01*
X10432309Y32701284D02*
X10432309Y32939379D01*
X10479928Y33106046D02*
X10456119Y33129855D01*
X10456119Y33129855D02*
X10432309Y33177474D01*
X10432309Y33177474D02*
X10432309Y33296522D01*
X10432309Y33296522D02*
X10456119Y33344141D01*
X10456119Y33344141D02*
X10479928Y33367950D01*
X10479928Y33367950D02*
X10527547Y33391760D01*
X10527547Y33391760D02*
X10575166Y33391760D01*
X10575166Y33391760D02*
X10646595Y33367950D01*
X10646595Y33367950D02*
X10932309Y33082236D01*
X10932309Y33082236D02*
X10932309Y33391760D01*
X10830404Y43388427D02*
X10830404Y43555094D01*
X11092309Y43626522D02*
X11092309Y43388427D01*
X11092309Y43388427D02*
X10592309Y43388427D01*
X10592309Y43388427D02*
X10592309Y43626522D01*
X10592309Y43793189D02*
X11092309Y44126522D01*
X10592309Y44126522D02*
X11092309Y43793189D01*
X10592309Y44245570D02*
X10592309Y44531284D01*
X11092309Y44388427D02*
X10592309Y44388427D01*
D11*
X-18228467Y38180351D02*
X-18928467Y38180351D01*
X-18928467Y38180351D02*
X-18928467Y38447018D01*
X-18928467Y38447018D02*
X-18895134Y38513684D01*
X-18895134Y38513684D02*
X-18861800Y38547018D01*
X-18861800Y38547018D02*
X-18795134Y38580351D01*
X-18795134Y38580351D02*
X-18695134Y38580351D01*
X-18695134Y38580351D02*
X-18628467Y38547018D01*
X-18628467Y38547018D02*
X-18595134Y38513684D01*
X-18595134Y38513684D02*
X-18561800Y38447018D01*
X-18561800Y38447018D02*
X-18561800Y38180351D01*
X-18928467Y38813684D02*
X-18228467Y38980351D01*
X-18228467Y38980351D02*
X-18728467Y39113684D01*
X-18728467Y39113684D02*
X-18228467Y39247018D01*
X-18228467Y39247018D02*
X-18928467Y39413684D01*
X-18228467Y40080351D02*
X-18561800Y39847018D01*
X-18228467Y39680351D02*
X-18928467Y39680351D01*
X-18928467Y39680351D02*
X-18928467Y39947018D01*
X-18928467Y39947018D02*
X-18895134Y40013684D01*
X-18895134Y40013684D02*
X-18861800Y40047018D01*
X-18861800Y40047018D02*
X-18795134Y40080351D01*
X-18795134Y40080351D02*
X-18695134Y40080351D01*
X-18695134Y40080351D02*
X-18628467Y40047018D01*
X-18628467Y40047018D02*
X-18595134Y40013684D01*
X-18595134Y40013684D02*
X-18561800Y39947018D01*
X-18561800Y39947018D02*
X-18561800Y39680351D01*
X-18595134Y35598684D02*
X-18595134Y35365351D01*
X-18228467Y35365351D02*
X-18928467Y35365351D01*
X-18928467Y35365351D02*
X-18928467Y35698684D01*
X-18861800Y35932018D02*
X-18895134Y35965351D01*
X-18895134Y35965351D02*
X-18928467Y36032018D01*
X-18928467Y36032018D02*
X-18928467Y36198684D01*
X-18928467Y36198684D02*
X-18895134Y36265351D01*
X-18895134Y36265351D02*
X-18861800Y36298684D01*
X-18861800Y36298684D02*
X-18795134Y36332018D01*
X-18795134Y36332018D02*
X-18728467Y36332018D01*
X-18728467Y36332018D02*
X-18628467Y36298684D01*
X-18628467Y36298684D02*
X-18228467Y35898684D01*
X-18228467Y35898684D02*
X-18228467Y36332018D01*
X11891541Y41080181D02*
X12510588Y41080181D01*
X12510588Y41080181D02*
X12177255Y40699229D01*
X12177255Y40699229D02*
X12320112Y40699229D01*
X12320112Y40699229D02*
X12415350Y40651610D01*
X12415350Y40651610D02*
X12462969Y40603991D01*
X12462969Y40603991D02*
X12510588Y40508753D01*
X12510588Y40508753D02*
X12510588Y40270658D01*
X12510588Y40270658D02*
X12462969Y40175420D01*
X12462969Y40175420D02*
X12415350Y40127800D01*
X12415350Y40127800D02*
X12320112Y40080181D01*
X12320112Y40080181D02*
X12034398Y40080181D01*
X12034398Y40080181D02*
X11939160Y40127800D01*
X11939160Y40127800D02*
X11891541Y40175420D01*
X12939160Y40175420D02*
X12986779Y40127800D01*
X12986779Y40127800D02*
X12939160Y40080181D01*
X12939160Y40080181D02*
X12891541Y40127800D01*
X12891541Y40127800D02*
X12939160Y40175420D01*
X12939160Y40175420D02*
X12939160Y40080181D01*
X13320112Y41080181D02*
X13939159Y41080181D01*
X13939159Y41080181D02*
X13605826Y40699229D01*
X13605826Y40699229D02*
X13748683Y40699229D01*
X13748683Y40699229D02*
X13843921Y40651610D01*
X13843921Y40651610D02*
X13891540Y40603991D01*
X13891540Y40603991D02*
X13939159Y40508753D01*
X13939159Y40508753D02*
X13939159Y40270658D01*
X13939159Y40270658D02*
X13891540Y40175420D01*
X13891540Y40175420D02*
X13843921Y40127800D01*
X13843921Y40127800D02*
X13748683Y40080181D01*
X13748683Y40080181D02*
X13462969Y40080181D01*
X13462969Y40080181D02*
X13367731Y40127800D01*
X13367731Y40127800D02*
X13320112Y40175420D01*
X14224874Y41080181D02*
X14558207Y40080181D01*
X14558207Y40080181D02*
X14891540Y41080181D01*
X12586779Y43403991D02*
X12920112Y43403991D01*
X13062969Y42880181D02*
X12586779Y42880181D01*
X12586779Y42880181D02*
X12586779Y43880181D01*
X12586779Y43880181D02*
X13062969Y43880181D01*
X13396303Y43880181D02*
X14062969Y42880181D01*
X14062969Y43880181D02*
X13396303Y42880181D01*
X14301065Y43880181D02*
X14872493Y43880181D01*
X14586779Y42880181D02*
X14586779Y43880181D01*
X13562969Y35630181D02*
X13086779Y35630181D01*
X13086779Y35630181D02*
X13039160Y35153991D01*
X13039160Y35153991D02*
X13086779Y35201610D01*
X13086779Y35201610D02*
X13182017Y35249229D01*
X13182017Y35249229D02*
X13420112Y35249229D01*
X13420112Y35249229D02*
X13515350Y35201610D01*
X13515350Y35201610D02*
X13562969Y35153991D01*
X13562969Y35153991D02*
X13610588Y35058753D01*
X13610588Y35058753D02*
X13610588Y34820658D01*
X13610588Y34820658D02*
X13562969Y34725420D01*
X13562969Y34725420D02*
X13515350Y34677800D01*
X13515350Y34677800D02*
X13420112Y34630181D01*
X13420112Y34630181D02*
X13182017Y34630181D01*
X13182017Y34630181D02*
X13086779Y34677800D01*
X13086779Y34677800D02*
X13039160Y34725420D01*
X13896303Y35630181D02*
X14229636Y34630181D01*
X14229636Y34630181D02*
X14562969Y35630181D01*
D10*
G36*
X-28793306Y43635000D02*
G01*
X-28705806Y43635000D01*
X-28705806Y43961675D01*
X-28577731Y43710014D01*
X-28508427Y43710014D01*
X-28378215Y43970804D01*
X-28378215Y43635000D01*
X-28290715Y43635000D01*
X-28290715Y44121532D01*
X-28378215Y44121532D01*
X-28538530Y43806032D01*
X-28704432Y44121532D01*
X-28793306Y44121532D01*
X-28793306Y43635000D01*
G37*
G36*
X-28138124Y44037513D02*
G01*
X-28126374Y44038474D01*
X-28115786Y44041292D01*
X-28106787Y44045681D01*
X-28099095Y44051622D01*
X-28092936Y44058860D01*
X-28088237Y44067421D01*
X-28083628Y44088349D01*
X-28083536Y44092101D01*
X-28084494Y44103889D01*
X-28087289Y44114499D01*
X-28091668Y44123598D01*
X-28097572Y44131377D01*
X-28113288Y44142468D01*
X-28133923Y44147271D01*
X-28138124Y44147391D01*
X-28149922Y44146433D01*
X-28160540Y44143628D01*
X-28169611Y44139246D01*
X-28177372Y44133327D01*
X-28188445Y44117552D01*
X-28193306Y44096702D01*
X-28193445Y44092101D01*
X-28192486Y44080334D01*
X-28189681Y44069796D01*
X-28185316Y44060863D01*
X-28179424Y44053249D01*
X-28163671Y44042403D01*
X-28142656Y44037643D01*
X-28138124Y44037513D01*
G37*
G36*
X-28183645Y43635000D02*
G01*
X-28094038Y43635000D01*
X-28094038Y43974987D01*
X-28183645Y43974987D01*
X-28183645Y43635000D01*
G37*
G36*
X-27843812Y43627185D02*
G01*
X-27820692Y43628157D01*
X-27798317Y43631055D01*
X-27777188Y43635752D01*
X-27757052Y43642256D01*
X-27731826Y43653777D01*
X-27751427Y43715479D01*
X-27789075Y43703309D01*
X-27824211Y43699267D01*
X-27840715Y43700236D01*
X-27855858Y43703111D01*
X-27868968Y43707576D01*
X-27880767Y43713685D01*
X-27890930Y43721148D01*
X-27899786Y43730084D01*
X-27913448Y43752241D01*
X-27921612Y43780773D01*
X-27923618Y43807100D01*
X-27922646Y43825567D01*
X-27919754Y43842242D01*
X-27915378Y43856096D01*
X-27909400Y43868349D01*
X-27902295Y43878443D01*
X-27893804Y43887060D01*
X-27873185Y43899590D01*
X-27846790Y43906247D01*
X-27830531Y43907179D01*
X-27792538Y43903424D01*
X-27772020Y43898528D01*
X-27752380Y43891801D01*
X-27752129Y43891700D01*
X-27733231Y43962500D01*
X-27770716Y43975293D01*
X-27814526Y43982134D01*
X-27833309Y43982802D01*
X-27854834Y43981835D01*
X-27875266Y43978973D01*
X-27894243Y43974366D01*
X-27912049Y43968038D01*
X-27928413Y43960166D01*
X-27943529Y43950727D01*
X-27957240Y43939870D01*
X-27969617Y43927578D01*
X-27990154Y43898909D01*
X-28004813Y43864864D01*
X-28013054Y43825517D01*
X-28014629Y43797239D01*
X-28013659Y43774958D01*
X-28010780Y43754071D01*
X-28006235Y43735278D01*
X-27999993Y43717857D01*
X-27992352Y43702298D01*
X-27983188Y43688102D01*
X-27972737Y43675514D01*
X-27960886Y43664306D01*
X-27933164Y43646178D01*
X-27899732Y43633802D01*
X-27860110Y43627690D01*
X-27843812Y43627185D01*
G37*
G36*
X-27661454Y43635000D02*
G01*
X-27571847Y43635000D01*
X-27571847Y43856346D01*
X-27561666Y43867120D01*
X-27550370Y43876254D01*
X-27538160Y43883628D01*
X-27525103Y43889218D01*
X-27511481Y43892914D01*
X-27497281Y43894708D01*
X-27491339Y43894875D01*
X-27461058Y43891198D01*
X-27447955Y43887181D01*
X-27427652Y43969094D01*
X-27453970Y43976847D01*
X-27478058Y43978894D01*
X-27508617Y43975070D01*
X-27537336Y43963750D01*
X-27563346Y43945134D01*
X-27581647Y43924978D01*
X-27590043Y43974987D01*
X-27661454Y43974987D01*
X-27661454Y43635000D01*
G37*
G36*
X-27200715Y43982300D02*
G01*
X-27162670Y43976010D01*
X-27129621Y43963087D01*
X-27101648Y43944053D01*
X-27089591Y43932320D01*
X-27078921Y43919195D01*
X-27069602Y43904565D01*
X-27061815Y43888621D01*
X-27055529Y43871125D01*
X-27050945Y43852386D01*
X-27048088Y43832083D01*
X-27047122Y43810611D01*
X-27048494Y43784878D01*
X-27056527Y43745832D01*
X-27071139Y43711717D01*
X-27091742Y43682811D01*
X-27104151Y43670401D01*
X-27117886Y43659428D01*
X-27132951Y43649916D01*
X-27149229Y43641976D01*
X-27166800Y43635629D01*
X-27185476Y43631005D01*
X-27205392Y43628151D01*
X-27226305Y43627185D01*
X-27241633Y43627695D01*
X-27279894Y43633996D01*
X-27313055Y43646912D01*
X-27327718Y43655680D01*
X-27341091Y43665928D01*
X-27353176Y43677658D01*
X-27363859Y43690769D01*
X-27373200Y43705404D01*
X-27380997Y43721340D01*
X-27387298Y43738847D01*
X-27391888Y43757581D01*
X-27394750Y43777890D01*
X-27395718Y43799345D01*
X-27395303Y43807100D01*
X-27305409Y43807100D01*
X-27304337Y43788261D01*
X-27297199Y43758189D01*
X-27284405Y43734582D01*
X-27266837Y43717360D01*
X-27256383Y43711136D01*
X-27244888Y43706582D01*
X-27232218Y43703742D01*
X-27218611Y43702778D01*
X-27211129Y43703074D01*
X-27187164Y43708710D01*
X-27176640Y43714133D01*
X-27167231Y43721196D01*
X-27158758Y43730126D01*
X-27151600Y43740649D01*
X-27145609Y43753242D01*
X-27141196Y43767398D01*
X-27138363Y43783676D01*
X-27137400Y43801452D01*
X-27138558Y43821234D01*
X-27145830Y43851540D01*
X-27158708Y43875296D01*
X-27176280Y43892584D01*
X-27186691Y43898816D01*
X-27198128Y43903376D01*
X-27210703Y43906215D01*
X-27224198Y43907179D01*
X-27232109Y43906846D01*
X-27255919Y43901111D01*
X-27266366Y43895645D01*
X-27275708Y43888535D01*
X-27284128Y43879539D01*
X-27291243Y43868927D01*
X-27297213Y43856187D01*
X-27301613Y43841837D01*
X-27304446Y43825255D01*
X-27305409Y43807100D01*
X-27395303Y43807100D01*
X-27394320Y43825442D01*
X-27386275Y43864493D01*
X-27371686Y43898520D01*
X-27351119Y43927313D01*
X-27338713Y43939679D01*
X-27324976Y43950608D01*
X-27309872Y43960098D01*
X-27293542Y43968015D01*
X-27275862Y43974359D01*
X-27257056Y43978978D01*
X-27236941Y43981836D01*
X-27215802Y43982802D01*
X-27200715Y43982300D01*
G37*
G36*
X-26745928Y44119098D02*
G01*
X-26698031Y44109961D01*
X-26656831Y44094770D01*
X-26621902Y44074066D01*
X-26592895Y44048098D01*
X-26580530Y44033104D01*
X-26569660Y44016828D01*
X-26560196Y43999041D01*
X-26552332Y43979991D01*
X-26545978Y43959227D01*
X-26541367Y43937200D01*
X-26538480Y43913268D01*
X-26537509Y43888067D01*
X-26537516Y43885949D01*
X-26541569Y43837209D01*
X-26552681Y43793283D01*
X-26560715Y43773148D01*
X-26570342Y43754216D01*
X-26581521Y43736510D01*
X-26594193Y43720088D01*
X-26608400Y43704897D01*
X-26624012Y43691085D01*
X-26641174Y43678562D01*
X-26659664Y43667533D01*
X-26679717Y43657914D01*
X-26701023Y43649917D01*
X-26723878Y43643500D01*
X-26747905Y43638846D01*
X-26773416Y43635970D01*
X-26800009Y43635000D01*
X-26960996Y43635000D01*
X-26960996Y43712670D01*
X-26871420Y43712670D01*
X-26789507Y43712670D01*
X-26783320Y43712744D01*
X-26743844Y43717236D01*
X-26711029Y43728018D01*
X-26684040Y43744570D01*
X-26672500Y43755052D01*
X-26662335Y43766951D01*
X-26653350Y43780619D01*
X-26645863Y43795731D01*
X-26639672Y43813011D01*
X-26635165Y43831804D01*
X-26632270Y43853165D01*
X-26631298Y43876129D01*
X-26631613Y43889188D01*
X-26637147Y43929286D01*
X-26648888Y43962810D01*
X-26666295Y43990417D01*
X-26677117Y44002181D01*
X-26689319Y44012549D01*
X-26703147Y44021648D01*
X-26718355Y44029232D01*
X-26735506Y44035450D01*
X-26754074Y44039978D01*
X-26774901Y44042862D01*
X-26797200Y44043832D01*
X-26871420Y44043832D01*
X-26871420Y43712670D01*
X-26960996Y43712670D01*
X-26960996Y44121532D01*
X-26790209Y44121532D01*
X-26745928Y44119098D01*
G37*
G36*
X-26273126Y43979788D02*
G01*
X-26240561Y43970035D01*
X-26213248Y43954138D01*
X-26201499Y43943948D01*
X-26191103Y43932334D01*
X-26181977Y43919122D01*
X-26174348Y43904536D01*
X-26168127Y43888196D01*
X-26163587Y43870512D01*
X-26160724Y43850957D01*
X-26159757Y43830089D01*
X-26163970Y43779684D01*
X-26384461Y43779684D01*
X-26383653Y43775686D01*
X-26373972Y43747458D01*
X-26358985Y43725690D01*
X-26349350Y43716854D01*
X-26338371Y43709507D01*
X-26325402Y43703396D01*
X-26310995Y43698947D01*
X-26293926Y43696029D01*
X-26275253Y43695054D01*
X-26272353Y43695075D01*
X-26251370Y43696454D01*
X-26230301Y43699897D01*
X-26189158Y43712548D01*
X-26168855Y43650968D01*
X-26191516Y43642678D01*
X-26216009Y43635896D01*
X-26241089Y43631007D01*
X-26289267Y43627185D01*
X-26317944Y43628629D01*
X-26358672Y43636525D01*
X-26393265Y43650576D01*
X-26421982Y43670220D01*
X-26434205Y43682063D01*
X-26444978Y43695218D01*
X-26454342Y43709792D01*
X-26462144Y43725621D01*
X-26468447Y43743021D01*
X-26473034Y43761642D01*
X-26475907Y43781973D01*
X-26476876Y43803498D01*
X-26476061Y43823506D01*
X-26474147Y43834303D01*
X-26386567Y43834303D01*
X-26243777Y43834303D01*
X-26246540Y43860855D01*
X-26255240Y43883514D01*
X-26269113Y43899894D01*
X-26278109Y43905938D01*
X-26288344Y43910366D01*
X-26300413Y43913233D01*
X-26313752Y43914201D01*
X-26329921Y43912719D01*
X-26350613Y43904999D01*
X-26359467Y43898562D01*
X-26367140Y43890468D01*
X-26374033Y43879982D01*
X-26379527Y43867649D01*
X-26383914Y43852048D01*
X-26386567Y43834303D01*
X-26474147Y43834303D01*
X-26469019Y43863224D01*
X-26455390Y43897834D01*
X-26435854Y43927032D01*
X-26410949Y43950542D01*
X-26396597Y43960067D01*
X-26381059Y43968020D01*
X-26364305Y43974363D01*
X-26346473Y43978985D01*
X-26327454Y43981837D01*
X-26307463Y43982802D01*
X-26273126Y43979788D01*
G37*
G36*
X-25996206Y43635000D02*
G01*
X-25907332Y43635000D01*
X-25775014Y43974987D01*
X-25864620Y43974987D01*
X-25949311Y43721096D01*
X-26029820Y43974987D01*
X-26128525Y43974987D01*
X-25996206Y43635000D01*
G37*
G36*
X-25234477Y44070931D02*
G01*
X-25193189Y44064946D01*
X-25161102Y44053604D01*
X-25136836Y44037764D01*
X-25119317Y44017612D01*
X-25112883Y44005690D01*
X-25108142Y43992653D01*
X-25105026Y43977873D01*
X-25103816Y43961921D01*
X-25104649Y43943751D01*
X-25107699Y43924315D01*
X-25115820Y43895535D01*
X-25123665Y43876690D01*
X-25133210Y43858891D01*
X-25144545Y43841962D01*
X-25157449Y43826246D01*
X-25172009Y43811645D01*
X-25187988Y43798424D01*
X-25205412Y43786578D01*
X-25224080Y43776273D01*
X-25145373Y43585000D01*
X-25287797Y43585000D01*
X-25345713Y43751086D01*
X-25398409Y43751086D01*
X-25432938Y43585000D01*
X-25551427Y43585000D01*
X-25495509Y43853973D01*
X-25377007Y43853973D01*
X-25299643Y43853973D01*
X-25276626Y43857374D01*
X-25266512Y43861621D01*
X-25257597Y43867454D01*
X-25249741Y43875009D01*
X-25243269Y43884056D01*
X-25238039Y43895030D01*
X-25234461Y43907432D01*
X-25232961Y43920473D01*
X-25236170Y43938438D01*
X-25240361Y43945929D01*
X-25246225Y43952296D01*
X-25254401Y43957861D01*
X-25264436Y43962000D01*
X-25277586Y43964841D01*
X-25292865Y43965806D01*
X-25353773Y43965806D01*
X-25377007Y43853973D01*
X-25495509Y43853973D01*
X-25450280Y44071532D01*
X-25254427Y44071532D01*
X-25234477Y44070931D01*
G37*
G36*
X-24849615Y43934577D02*
G01*
X-24814120Y43929692D01*
X-24786049Y43918962D01*
X-24764303Y43902956D01*
X-24755525Y43892872D01*
X-24748257Y43881483D01*
X-24742319Y43868277D01*
X-24738063Y43853719D01*
X-24735417Y43836857D01*
X-24734717Y43818551D01*
X-24736142Y43797529D01*
X-24739838Y43774960D01*
X-24746792Y43748105D01*
X-24755714Y43721776D01*
X-24957001Y43721776D01*
X-24955983Y43714519D01*
X-24948845Y43695125D01*
X-24942910Y43687269D01*
X-24935421Y43680739D01*
X-24925232Y43674978D01*
X-24913105Y43670776D01*
X-24896251Y43667751D01*
X-24876675Y43666761D01*
X-24841707Y43669363D01*
X-24817045Y43674154D01*
X-24791496Y43681385D01*
X-24782489Y43599563D01*
X-24803803Y43593179D01*
X-24861427Y43581044D01*
X-24913800Y43577185D01*
X-24956678Y43580306D01*
X-24993993Y43589666D01*
X-25023740Y43604291D01*
X-25046760Y43623670D01*
X-25055954Y43635172D01*
X-25063559Y43647837D01*
X-25069673Y43661979D01*
X-25074062Y43677273D01*
X-25076769Y43694384D01*
X-25077543Y43712670D01*
X-25076242Y43733061D01*
X-25072741Y43754658D01*
X-25069699Y43767644D01*
X-25063334Y43788272D01*
X-24947261Y43788272D01*
X-24848679Y43788272D01*
X-24847505Y43794865D01*
X-24847382Y43817020D01*
X-24853435Y43832199D01*
X-24858720Y43837839D01*
X-24865445Y43842013D01*
X-24874553Y43844883D01*
X-24885346Y43845852D01*
X-24899610Y43844119D01*
X-24909123Y43840665D01*
X-24917859Y43835365D01*
X-24926350Y43827625D01*
X-24933909Y43817760D01*
X-24941184Y43804324D01*
X-24947261Y43788272D01*
X-25063334Y43788272D01*
X-25063127Y43788942D01*
X-25054892Y43809069D01*
X-25045062Y43827986D01*
X-25033730Y43845593D01*
X-25020994Y43861807D01*
X-25006926Y43876578D01*
X-24975251Y43901446D01*
X-24939487Y43919704D01*
X-24920341Y43926212D01*
X-24900384Y43930932D01*
X-24879830Y43933790D01*
X-24858632Y43934756D01*
X-24849615Y43934577D01*
G37*
G36*
X-24623304Y43585000D02*
G01*
X-24504816Y43585000D01*
X-24303254Y43928894D01*
X-24422353Y43928894D01*
X-24537727Y43700069D01*
X-24550428Y43928894D01*
X-24680487Y43928894D01*
X-24623304Y43585000D01*
G37*
G36*
X-24079650Y43585000D02*
G01*
X-23961223Y43585000D01*
X-23860076Y44071532D01*
X-23930570Y44071532D01*
X-24141901Y43974079D01*
X-24115431Y43887159D01*
X-24008087Y43929200D01*
X-24079650Y43585000D01*
G37*
G36*
X-23412409Y43585000D02*
G01*
X-23543170Y43585000D01*
X-23553245Y43684865D01*
X-23718903Y43684865D01*
X-23768423Y43585000D01*
X-23895094Y43585000D01*
X-23778960Y43794072D01*
X-23664040Y43794072D01*
X-23563382Y43794072D01*
X-23579318Y43964432D01*
X-23664040Y43794072D01*
X-23778960Y43794072D01*
X-23624839Y44071532D01*
X-23473531Y44071532D01*
X-23412409Y43585000D01*
G37*
D12*
G36*
X-25456693Y46173050D02*
G01*
X-25258075Y46133302D01*
X-25088162Y46070079D01*
X-24945002Y45985705D01*
X-24826891Y45881361D01*
X-24776826Y45821666D01*
X-24732867Y45757059D01*
X-24694749Y45686852D01*
X-24663110Y45611834D01*
X-24637615Y45530379D01*
X-24619128Y45444130D01*
X-24607566Y45350609D01*
X-24603682Y45252265D01*
X-24604038Y45222215D01*
X-24623583Y45034597D01*
X-24644069Y44947375D01*
X-24671447Y44864357D01*
X-24705455Y44785853D01*
X-24745943Y44711883D01*
X-24792892Y44642382D01*
X-24845974Y44577795D01*
X-24905526Y44517806D01*
X-24970916Y44463171D01*
X-25042863Y44413492D01*
X-25120378Y44369671D01*
X-25204493Y44331388D01*
X-25293907Y44299518D01*
X-25389818Y44273934D01*
X-25490731Y44255352D01*
X-25597841Y44243873D01*
X-25709613Y44240000D01*
X-26401309Y44240000D01*
X-26401309Y44657167D01*
X-25925280Y44657167D01*
X-25653682Y44657167D01*
X-25562819Y44661729D01*
X-25426617Y44690042D01*
X-25317177Y44741330D01*
X-25230711Y44814682D01*
X-25195194Y44860556D01*
X-25165592Y44912031D01*
X-25141048Y44971783D01*
X-25123159Y45037481D01*
X-25111566Y45113550D01*
X-25107677Y45196089D01*
X-25116987Y45318278D01*
X-25152564Y45448786D01*
X-25212323Y45557051D01*
X-25251100Y45603440D01*
X-25295584Y45644416D01*
X-25346708Y45680501D01*
X-25403459Y45710641D01*
X-25467912Y45735401D01*
X-25538035Y45753464D01*
X-25616800Y45764963D01*
X-25701309Y45768839D01*
X-25925280Y45768839D01*
X-25925280Y44657167D01*
X-26401309Y44657167D01*
X-26401309Y46186128D01*
X-25673221Y46186128D01*
X-25456693Y46173050D01*
G37*
G36*
X-28855705Y44240000D02*
G01*
X-28395552Y44240000D01*
X-28168162Y45333598D01*
X-27938696Y44540053D01*
X-27580025Y44540053D01*
X-27001780Y45384034D01*
X-27239673Y44240000D01*
X-26779641Y44240000D01*
X-26375053Y46186128D01*
X-26826902Y46186128D01*
X-27629973Y45050398D01*
X-27993650Y46186128D01*
X-28451117Y46186128D01*
X-28855705Y44240000D01*
G37*
%TO.C,C4*%
D13*
X10359420Y41660000D02*
X10640580Y41660000D01*
X10359420Y40640000D02*
X10640580Y40640000D01*
%TO.C,L2*%
X-6500000Y43500000D02*
X-2500000Y43500000D01*
X-6500000Y39300000D02*
X-2500000Y39300000D01*
%TO.C,C5*%
X-14611252Y40310000D02*
X-13188748Y40310000D01*
X-14611252Y38490000D02*
X-13188748Y38490000D01*
%TO.C,D1*%
X-18135000Y40200000D02*
X-18135000Y37915000D01*
X-18135000Y37915000D02*
X-16665000Y37915000D01*
X-16665000Y37915000D02*
X-16665000Y40200000D01*
%TO.C,C10*%
X3590580Y44010000D02*
X3309420Y44010000D01*
X3590580Y42990000D02*
X3309420Y42990000D01*
%TO.C,R3*%
X-18063641Y34130000D02*
X-17756359Y34130000D01*
X-18063641Y33370000D02*
X-17756359Y33370000D01*
%TO.C,C7*%
X-14611252Y35210000D02*
X-13188748Y35210000D01*
X-14611252Y33390000D02*
X-13188748Y33390000D01*
%TO.C,U2*%
X-10860000Y40399225D02*
X-10385000Y40399225D01*
X-10860000Y39924225D02*
X-10860000Y40399225D01*
X-10860000Y36179225D02*
X-10860000Y36654225D01*
X-10385000Y36179225D02*
X-10860000Y36179225D01*
X-8115000Y40399225D02*
X-7640000Y40399225D01*
X-7640000Y40399225D02*
X-7640000Y39924225D01*
X-7640000Y36654225D02*
X-7640000Y36179225D01*
X-7640000Y36179225D02*
X-8115000Y36179225D01*
X-11390000Y39539225D02*
X-11720000Y39299225D01*
X-11720000Y39779225D01*
X-11390000Y39539225D01*
G36*
X-11390000Y39539225D02*
G01*
X-11720000Y39299225D01*
X-11720000Y39779225D01*
X-11390000Y39539225D01*
G37*
%TO.C,U1*%
X777500Y40910000D02*
X1252500Y40910000D01*
X777500Y40435000D02*
X777500Y40910000D01*
X777500Y35690000D02*
X777500Y36165000D01*
X1252500Y35690000D02*
X777500Y35690000D01*
X5522500Y40910000D02*
X5997500Y40910000D01*
X5997500Y40910000D02*
X5997500Y40435000D01*
X5997500Y36165000D02*
X5997500Y35690000D01*
X5997500Y35690000D02*
X5522500Y35690000D01*
X247500Y40050000D02*
X-82500Y39810000D01*
X-82500Y40290000D01*
X247500Y40050000D01*
G36*
X247500Y40050000D02*
G01*
X-82500Y39810000D01*
X-82500Y40290000D01*
X247500Y40050000D01*
G37*
%TO.C,F1*%
X7702500Y43662779D02*
X7702500Y43337221D01*
X8722500Y43662779D02*
X8722500Y43337221D01*
%TO.C,C11*%
X9140000Y39042164D02*
X9140000Y39257836D01*
X9860000Y39042164D02*
X9860000Y39257836D01*
%TO.C,SW1*%
X16430000Y41939225D02*
X16430000Y42639225D01*
X16430000Y40439225D02*
X16430000Y40639225D01*
X16430000Y37439225D02*
X16430000Y39139225D01*
X16430000Y35939225D02*
X16430000Y36139225D01*
X16430000Y33939225D02*
X16430000Y34639225D01*
X17430000Y33339225D02*
X18220000Y33339225D01*
X18220000Y43239225D02*
X17430000Y43239225D01*
X19220000Y37639225D02*
X20520000Y37639225D01*
X19220000Y33939225D02*
X19220000Y42639225D01*
X20520000Y38939225D02*
X19220000Y38939225D01*
X20520000Y38939225D02*
X20720000Y38739225D01*
X20520000Y37639225D02*
X20720000Y37839225D01*
X20720000Y38739225D02*
X20720000Y37839225D01*
%TO.C,D2*%
X-18135000Y37385000D02*
X-18135000Y35100000D01*
X-16665000Y37385000D02*
X-18135000Y37385000D01*
X-16665000Y35100000D02*
X-16665000Y37385000D01*
%TO.C,C12*%
X9140000Y37257836D02*
X9140000Y37042164D01*
X9860000Y37257836D02*
X9860000Y37042164D01*
%TO.C,Y1*%
X10440000Y39710000D02*
X10440000Y36290000D01*
X10440000Y36290000D02*
X14560000Y36290000D01*
%TO.C,C3*%
X4165580Y34420775D02*
X3884420Y34420775D01*
X4165580Y33400775D02*
X3884420Y33400775D01*
%TO.C,C6*%
X-14611252Y37810000D02*
X-13188748Y37810000D01*
X-14611252Y35990000D02*
X-13188748Y35990000D01*
%TO.C,D3*%
X-6990000Y44650000D02*
X-12500000Y44650000D01*
X-6990000Y41350000D02*
X-12500000Y41350000D01*
X-6990000Y41350000D02*
X-6990000Y44650000D01*
%TO.C,SW2*%
X-23250000Y41300000D02*
X-23250000Y34900000D01*
X-23250000Y34900000D02*
X-22050000Y34900000D01*
X-22050000Y41300000D02*
X-23250000Y41300000D01*
X-20450000Y34900000D02*
X-19250000Y34900000D01*
X-19250000Y41300000D02*
X-20450000Y41300000D01*
X-19250000Y34900000D02*
X-19250000Y41300000D01*
%TO.C,R2*%
X796359Y42580000D02*
X1103641Y42580000D01*
X796359Y41820000D02*
X1103641Y41820000D01*
%TO.C,C2*%
X-690580Y35220775D02*
X-409420Y35220775D01*
X-690580Y34200775D02*
X-409420Y34200775D01*
%TO.C,J1*%
X-29055000Y42070000D02*
X-27675000Y42070000D01*
X-29055000Y40690000D02*
X-29055000Y42070000D01*
X-29055000Y39420000D02*
X-29055000Y34230000D01*
X-29055000Y39420000D02*
X-26405000Y39420000D01*
X-29055000Y34230000D02*
X-23755000Y34230000D01*
X-26405000Y42070000D02*
X-23755000Y42070000D01*
X-26405000Y39420000D02*
X-26405000Y42070000D01*
X-23755000Y42070000D02*
X-23755000Y34230000D01*
%TO.C,C1*%
X-1685000Y38370195D02*
X-1685000Y38651355D01*
X-665000Y38370195D02*
X-665000Y38651355D01*
%TO.C,L1*%
X-6500000Y37900000D02*
X-2500000Y37900000D01*
X-6500000Y33700000D02*
X-2500000Y33700000D01*
%TO.C,R4*%
X-17553641Y42280000D02*
X-17246359Y42280000D01*
X-17553641Y41520000D02*
X-17246359Y41520000D01*
%TD*%
M02*
