M48
; DRILL file KiCad 10.0.4 date 2026-08-04T16:51:56
; FORMAT={-:-/ absolute / metric / decimal}
; #@! TF.CreationDate,2026-08-04T16:51:56+12:00
; #@! TF.GenerationSoftware,Kicad,Pcbnew,10.0.4
; #@! TF.FileFunction,MixedPlating,1,4
FMAT,2
METRIC
; #@! TA.AperFunction,Plated,PTH,ViaDrill
T1C0.300
; #@! TA.AperFunction,Plated,PTH,ViaDrill
T2C0.400
; #@! TA.AperFunction,Plated,PTH,ComponentDrill
T3C1.000
; #@! TA.AperFunction,NonPlated,NPTH,ComponentDrill
T4C0.900
%
G90
G05
T1
X-25.85Y44.75
X-25.45Y32.7
X-19.9Y38.45
X-19.75Y34.05
X-19.348Y41.398
X-18.259Y32.779
X-16.25Y38.2
X-14.85Y42.3
X-14.099Y34.399
X-13.5Y44.5
X-10.85Y36.2
X-10.65Y35.45
X-10.065Y42.135
X-9.8Y38.7
X-9.8Y37.6
X-8.7Y38.7
X-8.7Y37.6
X-8.079Y40.746
X-7.604Y33.146
X-7.25Y42.025
X-6.95Y37.1
X-4.874Y40.575
X-4.5Y42.35
X-1.95Y36.455
X-1.0Y36.5
X-0.739Y38.513
X-0.5Y42.75
X-0.35Y37.7
X-0.25Y40.1
X0.042Y39.542
X0.15Y35.55
X0.196Y38.046
X1.1Y41.05
X1.902Y42.674
X2.288Y39.4
X2.288Y38.3
X2.288Y37.2
X2.6Y34.9
X3.2Y34.9
X3.387Y39.4
X3.387Y38.3
X3.387Y37.2
X3.425Y43.2
X3.8Y34.9
X3.856Y41.496
X4.4Y34.9
X4.487Y39.4
X4.487Y38.3
X4.487Y37.2
X4.6Y41.472
X4.994Y34.984
X5.6Y34.9
X5.75Y41.65
X5.886Y33.514
X6.2Y34.9
X6.479Y33.604
X6.596Y37.698
X6.65Y37.1
X6.665Y38.47
X6.7Y40.1
X7.5Y32.75
X8.19Y38.41
X9.313Y35.767
X9.9Y32.75
X10.0Y42.2
X12.3Y41.1
X13.1Y44.25
X13.4Y32.95
X14.05Y35.2
X15.8Y38.95
X17.75Y37.75
T2
X-13.65Y35.8
X-11.258Y33.0
X-8.115Y35.515
X-4.72Y35.13
X-1.5Y42.3
T3
X-27.675Y40.69
X-27.675Y38.15
X-27.675Y35.61
X-25.135Y40.69
X-25.135Y38.15
X-25.135Y35.61
X-22.222Y45.895
X-22.222Y30.684
X-19.682Y45.895
X-19.682Y30.684
X-17.142Y45.895
X-17.142Y30.684
X-14.602Y45.895
X-14.602Y30.684
X-12.062Y45.895
X-12.062Y30.684
X-9.522Y45.895
X-9.522Y30.684
X-6.982Y45.895
X-6.982Y30.684
X-4.442Y45.895
X-4.442Y30.684
X-1.902Y45.895
X-1.902Y30.684
X0.638Y45.895
X0.638Y30.684
X3.178Y45.895
X3.178Y30.684
X5.718Y45.895
X5.718Y30.684
X8.258Y45.895
X8.258Y30.684
X10.798Y45.895
X10.798Y30.684
T4
X17.83Y40.789
X17.83Y35.789
M30
