%TF.GenerationSoftware,KiCad,Pcbnew,10.0.4*%
%TF.CreationDate,2026-08-04T16:51:53+12:00*%
%TF.ProjectId,MicroDev128,4d696372-6f44-4657-9631-32382e6b6963,rev?*%
%TF.SameCoordinates,PX5f5e100PY5f5e100*%
%TF.FileFunction,Copper,L3,Inr*%
%TF.FilePolarity,Positive*%
%FSLAX46Y46*%
G04 Gerber Fmt 4.6, Leading zero omitted, Abs format (unit mm)*
G04 Created by KiCad (PCBNEW 10.0.4) date 2026-08-04 16:51:53*
%MOMM*%
%LPD*%
G01*
G04 APERTURE LIST*
%TA.AperFunction,ComponentPad*%
%ADD10R,1.700000X1.700000*%
%TD*%
%TA.AperFunction,ComponentPad*%
%ADD11C,1.700000*%
%TD*%
%TA.AperFunction,ViaPad*%
%ADD12C,0.500000*%
%TD*%
%TA.AperFunction,ViaPad*%
%ADD13C,0.800000*%
%TD*%
%TA.AperFunction,Conductor*%
%ADD14C,0.800000*%
%TD*%
%TA.AperFunction,Conductor*%
%ADD15C,0.200000*%
%TD*%
%TA.AperFunction,Conductor*%
%ADD16C,0.250000*%
%TD*%
%TA.AperFunction,Conductor*%
%ADD17C,0.400000*%
%TD*%
G04 APERTURE END LIST*
D10*
%TO.N,Net-(J1-Pin_1)*%
%TO.C,J1*%
X-27675000Y40690000D03*
D11*
%TO.N,+5V*%
X-25135000Y40690000D03*
%TO.N,unconnected-(J1-Pin_3-Pad3)*%
X-27675000Y38150000D03*
%TO.N,unconnected-(J1-Pin_4-Pad4)*%
X-25135000Y38150000D03*
%TO.N,unconnected-(J1-Pin_5-Pad5)*%
X-27675000Y35610000D03*
%TO.N,GND*%
X-25135000Y35610000D03*
%TD*%
D10*
%TO.N,Net-(J3-Pin_1)*%
%TO.C,J3*%
X10798375Y30683730D03*
D11*
%TO.N,Net-(J3-Pin_2)*%
X8258375Y30683730D03*
%TO.N,Net-(J3-Pin_3)*%
X5718375Y30683730D03*
%TO.N,Net-(J3-Pin_4)*%
X3178375Y30683730D03*
%TO.N,Net-(J3-Pin_5)*%
X638375Y30683730D03*
%TO.N,Net-(J3-Pin_6)*%
X-1901625Y30683730D03*
%TO.N,Net-(J3-Pin_7)*%
X-4441625Y30683730D03*
%TO.N,Net-(J3-Pin_8)*%
X-6981625Y30683730D03*
%TO.N,Net-(J3-Pin_9)*%
X-9521625Y30683730D03*
%TO.N,Net-(J3-Pin_10)*%
X-12061625Y30683730D03*
%TO.N,Net-(J3-Pin_11)*%
X-14601625Y30683730D03*
%TO.N,Net-(J3-Pin_12)*%
X-17141625Y30683730D03*
%TO.N,Net-(J3-Pin_13)*%
X-19681625Y30683730D03*
%TO.N,Net-(J3-Pin_14)*%
X-22221625Y30683730D03*
%TD*%
D10*
%TO.N,EXT IO V*%
%TO.C,J4*%
X10798375Y45894719D03*
D11*
%TO.N,VDC*%
X8258375Y45894719D03*
%TO.N,GND*%
X5718375Y45894719D03*
X3178375Y45894719D03*
%TO.N,+3.3V*%
X638375Y45894719D03*
%TO.N,+5V*%
X-1901625Y45894719D03*
%TO.N,Net-(J4-Pin_7)*%
X-4441625Y45894719D03*
%TO.N,Net-(J4-Pin_8)*%
X-6981625Y45894719D03*
%TO.N,Net-(J4-Pin_9)*%
X-9521625Y45894719D03*
%TO.N,Net-(J4-Pin_10)*%
X-12061625Y45894719D03*
%TO.N,Net-(J4-Pin_11)*%
X-14601625Y45894719D03*
%TO.N,Net-(J4-Pin_12)*%
X-17141625Y45894719D03*
%TO.N,Net-(J4-Pin_13)*%
X-19681625Y45894719D03*
%TO.N,Net-(J4-Pin_14)*%
X-22221625Y45894719D03*
%TD*%
D12*
%TO.N,Net-(U1-XTAL32K2{slash}PF1)*%
X-18258553Y32778554D03*
X6665000Y38470000D03*
X8190000Y38410000D03*
X9313188Y35766812D03*
%TO.N,+5V*%
X-500000Y42750000D03*
X-14098554Y34398554D03*
X14050000Y35200000D03*
X6650000Y37100000D03*
X10000000Y42200000D03*
X-19347500Y41397500D03*
D13*
X-4720395Y35129605D03*
D12*
%TO.N,GND*%
X7500000Y32750000D03*
X2287500Y39400000D03*
X-9800000Y37600000D03*
X6595678Y37697538D03*
X3387500Y37200000D03*
X2287500Y38300000D03*
X3387500Y39400000D03*
X-8700000Y38700000D03*
X13100000Y44250000D03*
X-25850000Y44750000D03*
X150000Y35550000D03*
X-25450000Y32700000D03*
X4487500Y38300000D03*
X-7250000Y42025000D03*
X-19750000Y34050000D03*
X-1000000Y36500000D03*
D13*
X-13650000Y35800000D03*
D12*
X12300000Y41100000D03*
X3387500Y38300000D03*
X3425000Y43200000D03*
X-9800000Y38700000D03*
X13400000Y32950000D03*
X4487500Y37200000D03*
X-8700000Y37600000D03*
X-14850000Y42300000D03*
X-19900000Y38450000D03*
X5885876Y33514124D03*
X4487500Y39400000D03*
X2287500Y37200000D03*
%TO.N,Net-(U2-SW2)*%
X-10650000Y35450000D03*
X-4873657Y40574999D03*
D13*
%TO.N,+3.3V*%
X-1500000Y42300000D03*
X-11258419Y33000000D03*
D12*
X-16250000Y38200000D03*
X-4500000Y42350000D03*
D13*
X-8114620Y35514620D03*
D12*
X17750000Y37750000D03*
%TO.N,Net-(J4-Pin_7)*%
X4599809Y41471562D03*
X1902372Y42674124D03*
%TO.N,Net-(U2-SW1)*%
X-7604329Y33145671D03*
X-10850000Y36200000D03*
%TO.N,Net-(U2-RT)*%
X-8079316Y40745684D03*
X-6950000Y37100000D03*
%TO.N,Net-(J3-Pin_13)*%
X-250000Y40100000D03*
%TO.N,Net-(J3-Pin_12)*%
X42423Y39542423D03*
%TO.N,Net-(J3-Pin_11)*%
X-738632Y38512998D03*
%TO.N,Net-(J3-Pin_10)*%
X-350000Y37700000D03*
%TO.N,Net-(J3-Pin_9)*%
X195671Y38045671D03*
%TO.N,Net-(J3-Pin_8)*%
X-1949999Y36454845D03*
%TO.N,Net-(U1-VDDIO2)*%
X15800000Y38950000D03*
X6479045Y33604422D03*
%TO.N,Net-(J4-Pin_8)*%
X2600000Y34900000D03*
%TO.N,Net-(J4-Pin_9)*%
X3200000Y34900000D03*
%TO.N,Net-(J4-Pin_10)*%
X3800003Y34900000D03*
%TO.N,Net-(J4-Pin_11)*%
X4400006Y34900000D03*
%TO.N,Net-(J4-Pin_12)*%
X4994070Y34984212D03*
%TO.N,Net-(J4-Pin_13)*%
X5600000Y34900000D03*
%TO.N,Net-(J4-Pin_14)*%
X6200000Y34900000D03*
%TO.N,Net-(J3-Pin_2)*%
X9900000Y32750000D03*
%TO.N,Net-(J3-Pin_3)*%
X6700000Y40100000D03*
%TO.N,Net-(J3-Pin_4)*%
X5750000Y41650000D03*
%TO.N,Net-(J1-Pin_1)*%
X3855589Y41495852D03*
%TO.N,Net-(J3-Pin_14)*%
X1100000Y41050000D03*
%TO.N,Net-(R2-Pad1)*%
X-10065369Y42135479D03*
X-13500000Y44500000D03*
%TD*%
%TO.N,+5V*%
D14*
X-1901625Y44901625D02*
X-500000Y43500000D01*
X9802462Y36947538D02*
X6650000Y36947538D01*
X-1901625Y45894719D02*
X-1901625Y44901625D01*
X4405281Y44544719D02*
X-551625Y44544719D01*
X14050000Y38150000D02*
X14050000Y35200000D01*
X9802462Y36947538D02*
X9802462Y39147538D01*
X9802462Y39147538D02*
X4405281Y44544719D01*
X14050000Y35200000D02*
X11550000Y35200000D01*
X-551625Y44544719D02*
X-1901625Y45894719D01*
X10000000Y42200000D02*
X14050000Y38150000D01*
X11550000Y35200000D02*
X9802462Y36947538D01*
X-500000Y43500000D02*
X-500000Y42750000D01*
%TO.N,Net-(U2-SW2)*%
D15*
X228820Y39092423D02*
X492423Y39356026D01*
X-9150000Y37786397D02*
X-8886397Y38050000D01*
X492423Y39356026D02*
X492423Y39993974D01*
X492423Y39993974D02*
X-88602Y40574999D01*
X-8886397Y38050000D02*
X-8044975Y38050000D01*
X-10650000Y35450000D02*
X-9150000Y36950000D01*
X-7002552Y39092423D02*
X228820Y39092423D01*
X-88602Y40574999D02*
X-4873657Y40574999D01*
X-8044975Y38050000D02*
X-7002552Y39092423D01*
X-9150000Y36950000D02*
X-9150000Y37786397D01*
%TO.N,+3.3V*%
D14*
X-11550000Y42900000D02*
X-16250000Y38200000D01*
X-16250000Y38200000D02*
X-16219620Y38169620D01*
X-8114620Y35514620D02*
X-8743799Y35514620D01*
X-4500000Y42350000D02*
X-5050000Y42900000D01*
X-8743799Y35514620D02*
X-9929210Y34329210D01*
X-9929210Y34329210D02*
X-11258419Y33000000D01*
X-5050000Y42900000D02*
X-11550000Y42900000D01*
%TO.N,Net-(J3-Pin_13)*%
D16*
X-250000Y40100000D02*
X-10265355Y40100000D01*
X-10265355Y40100000D02*
X-19681625Y30683730D01*
%TO.N,Net-(J3-Pin_12)*%
X-12500000Y37350000D02*
X-12500000Y35325355D01*
X-10307577Y39542423D02*
X-12500000Y37350000D01*
X42423Y39542423D02*
X-10307577Y39542423D01*
X-12500000Y35325355D02*
X-17141625Y30683730D01*
%TO.N,Net-(J3-Pin_11)*%
X-738632Y38512998D02*
X-796305Y38570671D01*
X-796305Y38570671D02*
X-6714684Y38570671D01*
X-6714684Y38570671D02*
X-14601625Y30683730D01*
%TO.N,Net-(J3-Pin_10)*%
X-350000Y37700000D02*
X-750000Y37300000D01*
X-5445355Y37300000D02*
X-12061625Y30683730D01*
X-750000Y37300000D02*
X-5445355Y37300000D01*
%TO.N,Net-(J3-Pin_9)*%
X-23919Y38045671D02*
X125000Y37896752D01*
X-1475000Y36303248D02*
X-1475000Y36696752D01*
X-605026Y36950000D02*
X-778248Y36950000D01*
X195671Y38045671D02*
X-23919Y38045671D01*
X-1196752Y36025000D02*
X-1475000Y36303248D01*
X125000Y37503248D02*
X-153248Y37225000D01*
X-525000Y36303248D02*
X-803248Y36025000D01*
X-5300381Y36950000D02*
X-8446625Y33803756D01*
X-1221752Y36950000D02*
X-5300381Y36950000D01*
X-803248Y36025000D02*
X-1196752Y36025000D01*
X-778248Y36950000D02*
X-525000Y36696752D01*
X-1475000Y36696752D02*
X-1221752Y36950000D01*
X-153248Y37225000D02*
X-330026Y37225000D01*
X-8446625Y33803756D02*
X-8446625Y31758730D01*
X-525000Y36696752D02*
X-525000Y36303248D01*
X125000Y37896752D02*
X125000Y37503248D01*
X-8446625Y31758730D02*
X-9521625Y30683730D01*
X-330026Y37225000D02*
X-605026Y36950000D01*
%TO.N,Net-(J3-Pin_8)*%
X-1949999Y35715356D02*
X-6981625Y30683730D01*
X-1949999Y36454845D02*
X-1949999Y35715356D01*
%TO.N,Net-(J3-Pin_3)*%
X3862500Y37262500D02*
X3862500Y37003248D01*
X1850000Y34552105D02*
X5718375Y30683730D01*
X4962500Y38362500D02*
X4962500Y38103248D01*
X6700000Y40100000D02*
X4962500Y38362500D01*
X4684252Y37825000D02*
X4425000Y37825000D01*
X4425000Y37825000D02*
X3862500Y37262500D01*
X3862500Y37003248D02*
X3584252Y36725000D01*
X4962500Y38103248D02*
X4684252Y37825000D01*
X3584252Y36725000D02*
X3325000Y36725000D01*
X3325000Y36725000D02*
X1850000Y35250000D01*
X1850000Y35250000D02*
X1850000Y34552105D01*
%TO.N,Net-(J3-Pin_4)*%
X2400000Y40500000D02*
X1500000Y39600000D01*
X5450000Y41650000D02*
X4300000Y40500000D01*
X4300000Y40500000D02*
X2400000Y40500000D01*
X1500000Y32362105D02*
X3178375Y30683730D01*
X1500000Y39600000D02*
X1500000Y32362105D01*
X5750000Y41650000D02*
X5450000Y41650000D01*
%TO.N,Net-(J1-Pin_1)*%
D17*
X1327818Y41600000D02*
X1650000Y41277818D01*
X-4760050Y43600000D02*
X-3800000Y42639950D01*
X-3800000Y42639950D02*
X-3800000Y42300000D01*
X-27675000Y40690000D02*
X-24765000Y43600000D01*
X-24765000Y43600000D02*
X-4760050Y43600000D01*
X498009Y41049049D02*
X550000Y41101040D01*
X1650000Y41277818D02*
X1650000Y41000000D01*
X1650000Y41000000D02*
X3359737Y41000000D01*
X-3800000Y42300000D02*
X-2824999Y41324999D01*
X550000Y41277818D02*
X872182Y41600000D01*
X550000Y41101040D02*
X550000Y41277818D01*
X3359737Y41000000D02*
X3855589Y41495852D01*
X222058Y41324999D02*
X498009Y41049049D01*
X-2824999Y41324999D02*
X222058Y41324999D01*
X872182Y41600000D02*
X1327818Y41600000D01*
%TO.N,Net-(J3-Pin_14)*%
D16*
X-8554316Y40600000D02*
X-12305355Y40600000D01*
X-7882564Y41220684D02*
X-8276068Y41220684D01*
X346017Y40600000D02*
X46017Y40899999D01*
X-5348657Y40771751D02*
X-5348657Y40600000D01*
X-7604316Y40942436D02*
X-7882564Y41220684D01*
X-5348657Y40600000D02*
X-7604316Y40600000D01*
X-8554316Y40942436D02*
X-8554316Y40600000D01*
X-4526905Y40899999D02*
X-4676905Y41049999D01*
X46017Y40899999D02*
X-4526905Y40899999D01*
X-4676905Y41049999D02*
X-5070409Y41049999D01*
X-12305355Y40600000D02*
X-22221625Y30683730D01*
X-7604316Y40600000D02*
X-7604316Y40942436D01*
X650000Y40600000D02*
X346017Y40600000D01*
X-8276068Y41220684D02*
X-8554316Y40942436D01*
X-5070409Y41049999D02*
X-5348657Y40771751D01*
X1100000Y41050000D02*
X650000Y40600000D01*
%TD*%
%TA.AperFunction,Conductor*%
%TO.N,+5V*%
G36*
X-23326132Y46438991D02*
G01*
X-23259312Y46418588D01*
X-23214127Y46365295D01*
X-23204928Y46296033D01*
X-23212908Y46267547D01*
X-23239447Y46203477D01*
X-23239450Y46203465D01*
X-23280125Y45998977D01*
X-23280125Y45790462D01*
X-23239450Y45585974D01*
X-23239448Y45585966D01*
X-23159658Y45393334D01*
X-23159653Y45393325D01*
X-23043817Y45219965D01*
X-23043814Y45219961D01*
X-22896384Y45072531D01*
X-22896380Y45072528D01*
X-22723020Y44956692D01*
X-22723014Y44956689D01*
X-22723013Y44956688D01*
X-22530378Y44876896D01*
X-22325883Y44836220D01*
X-22325879Y44836219D01*
X-22325878Y44836219D01*
X-22117371Y44836219D01*
X-22117370Y44836220D01*
X-21912872Y44876896D01*
X-21720237Y44956688D01*
X-21546870Y45072528D01*
X-21399434Y45219964D01*
X-21283594Y45393331D01*
X-21203802Y45585966D01*
X-21163125Y45790466D01*
X-21163125Y45998972D01*
X-21163126Y45998975D01*
X-21163126Y45998977D01*
X-21174668Y46057002D01*
X-21203802Y46203472D01*
X-21220449Y46243660D01*
X-21227917Y46313127D01*
X-21196642Y46375606D01*
X-21136553Y46411259D01*
X-21104564Y46415103D01*
X-20797396Y46411800D01*
X-20730575Y46391397D01*
X-20685390Y46338104D01*
X-20676191Y46268842D01*
X-20684170Y46240357D01*
X-20699448Y46203472D01*
X-20699450Y46203465D01*
X-20740125Y45998977D01*
X-20740125Y45790462D01*
X-20699450Y45585974D01*
X-20699448Y45585966D01*
X-20619658Y45393334D01*
X-20619653Y45393325D01*
X-20503817Y45219965D01*
X-20503814Y45219961D01*
X-20356384Y45072531D01*
X-20356380Y45072528D01*
X-20183020Y44956692D01*
X-20183014Y44956689D01*
X-20183013Y44956688D01*
X-19990378Y44876896D01*
X-19785883Y44836220D01*
X-19785879Y44836219D01*
X-19785878Y44836219D01*
X-19577371Y44836219D01*
X-19577370Y44836220D01*
X-19372872Y44876896D01*
X-19180237Y44956688D01*
X-19006870Y45072528D01*
X-18859434Y45219964D01*
X-18743594Y45393331D01*
X-18663802Y45585966D01*
X-18623125Y45790466D01*
X-18623125Y45998972D01*
X-18623126Y45998975D01*
X-18623126Y45998977D01*
X-18634668Y46057002D01*
X-18663802Y46203472D01*
X-18669086Y46216227D01*
X-18676553Y46285695D01*
X-18645277Y46348174D01*
X-18585188Y46383826D01*
X-18553200Y46387669D01*
X-18268656Y46384610D01*
X-18201837Y46364207D01*
X-18156652Y46310914D01*
X-18147453Y46241652D01*
X-18155431Y46213172D01*
X-18159447Y46203473D01*
X-18159448Y46203471D01*
X-18159450Y46203464D01*
X-18200125Y45998977D01*
X-18200125Y45790462D01*
X-18159450Y45585974D01*
X-18159448Y45585966D01*
X-18079658Y45393334D01*
X-18079653Y45393325D01*
X-17963817Y45219965D01*
X-17963814Y45219961D01*
X-17816384Y45072531D01*
X-17816380Y45072528D01*
X-17643020Y44956692D01*
X-17643014Y44956689D01*
X-17643013Y44956688D01*
X-17450378Y44876896D01*
X-17245883Y44836220D01*
X-17245879Y44836219D01*
X-17245878Y44836219D01*
X-17037371Y44836219D01*
X-17037370Y44836220D01*
X-16832872Y44876896D01*
X-16640237Y44956688D01*
X-16466870Y45072528D01*
X-16319434Y45219964D01*
X-16203594Y45393331D01*
X-16123802Y45585966D01*
X-16083125Y45790466D01*
X-16083125Y45998972D01*
X-16083126Y45998975D01*
X-16083126Y45998977D01*
X-16124990Y46209447D01*
X-16122910Y46209861D01*
X-16123456Y46270107D01*
X-16086217Y46329226D01*
X-16022928Y46358827D01*
X-16002852Y46360246D01*
X-15738586Y46357405D01*
X-15671765Y46337000D01*
X-15626580Y46283707D01*
X-15617381Y46214446D01*
X-15618305Y46209221D01*
X-15660125Y45998977D01*
X-15660125Y45790462D01*
X-15619450Y45585974D01*
X-15619448Y45585966D01*
X-15539658Y45393334D01*
X-15539653Y45393325D01*
X-15423817Y45219965D01*
X-15423814Y45219961D01*
X-15276384Y45072531D01*
X-15276380Y45072528D01*
X-15103020Y44956692D01*
X-15103014Y44956689D01*
X-15103013Y44956688D01*
X-14910378Y44876896D01*
X-14705883Y44836220D01*
X-14705879Y44836219D01*
X-14705878Y44836219D01*
X-14497371Y44836219D01*
X-14497370Y44836220D01*
X-14292872Y44876896D01*
X-14100237Y44956688D01*
X-13926870Y45072528D01*
X-13779434Y45219964D01*
X-13663594Y45393331D01*
X-13583802Y45585966D01*
X-13543125Y45790466D01*
X-13543125Y45998972D01*
X-13580066Y46184690D01*
X-13573839Y46254280D01*
X-13530976Y46309458D01*
X-13465086Y46332702D01*
X-13457141Y46332873D01*
X-13204007Y46330151D01*
X-13137187Y46309748D01*
X-13092002Y46256455D01*
X-13082803Y46187194D01*
X-13083726Y46181969D01*
X-13106857Y46065678D01*
X-13119447Y46002378D01*
X-13120125Y45998971D01*
X-13120125Y45790462D01*
X-13079450Y45585974D01*
X-13079448Y45585966D01*
X-12999658Y45393334D01*
X-12999653Y45393325D01*
X-12883817Y45219965D01*
X-12883814Y45219961D01*
X-12736384Y45072531D01*
X-12736380Y45072528D01*
X-12563020Y44956692D01*
X-12563014Y44956689D01*
X-12563013Y44956688D01*
X-12370378Y44876896D01*
X-12165883Y44836220D01*
X-12165879Y44836219D01*
X-12165878Y44836219D01*
X-11957371Y44836219D01*
X-11957370Y44836220D01*
X-11752872Y44876896D01*
X-11560237Y44956688D01*
X-11386870Y45072528D01*
X-11239434Y45219964D01*
X-11123594Y45393331D01*
X-11043802Y45585966D01*
X-11003125Y45790466D01*
X-11003125Y45998972D01*
X-11034622Y46157320D01*
X-11032687Y46178948D01*
X-11035546Y46200476D01*
X-11029635Y46213061D01*
X-11028395Y46226910D01*
X-11015073Y46244061D01*
X-11005839Y46263716D01*
X-10994063Y46271107D01*
X-10985532Y46282088D01*
X-10965052Y46289313D01*
X-10946658Y46300856D01*
X-10923678Y46303909D01*
X-10919642Y46305332D01*
X-10911708Y46305503D01*
X-10669430Y46302898D01*
X-10602608Y46282494D01*
X-10557423Y46229201D01*
X-10548224Y46159939D01*
X-10549147Y46154715D01*
X-10570998Y46044857D01*
X-10579447Y46002378D01*
X-10580125Y45998971D01*
X-10580125Y45790462D01*
X-10539450Y45585974D01*
X-10539448Y45585966D01*
X-10459658Y45393334D01*
X-10459653Y45393325D01*
X-10343817Y45219965D01*
X-10343814Y45219961D01*
X-10196384Y45072531D01*
X-10196380Y45072528D01*
X-10023020Y44956692D01*
X-10023014Y44956689D01*
X-10023013Y44956688D01*
X-9830378Y44876896D01*
X-9625883Y44836220D01*
X-9625879Y44836219D01*
X-9625878Y44836219D01*
X-9417371Y44836219D01*
X-9417370Y44836220D01*
X-9212872Y44876896D01*
X-9020237Y44956688D01*
X-8846870Y45072528D01*
X-8699434Y45219964D01*
X-8583594Y45393331D01*
X-8503802Y45585966D01*
X-8463125Y45790466D01*
X-8463125Y45998972D01*
X-8463126Y45998975D01*
X-8463126Y45998977D01*
X-8489177Y46129949D01*
X-8487242Y46151578D01*
X-8490101Y46173106D01*
X-8484190Y46185691D01*
X-8482950Y46199541D01*
X-8469627Y46216692D01*
X-8460394Y46236346D01*
X-8448617Y46243738D01*
X-8440086Y46254718D01*
X-8419609Y46261942D01*
X-8401214Y46273486D01*
X-8378233Y46276539D01*
X-8374197Y46277962D01*
X-8366275Y46278132D01*
X-8134848Y46275644D01*
X-8068028Y46255241D01*
X-8022843Y46201948D01*
X-8013644Y46132686D01*
X-8014568Y46127461D01*
X-8040125Y45998977D01*
X-8040125Y45790462D01*
X-7999450Y45585974D01*
X-7999448Y45585966D01*
X-7919658Y45393334D01*
X-7919653Y45393325D01*
X-7803817Y45219965D01*
X-7803814Y45219961D01*
X-7656384Y45072531D01*
X-7656380Y45072528D01*
X-7483020Y44956692D01*
X-7483014Y44956689D01*
X-7483013Y44956688D01*
X-7290378Y44876896D01*
X-7085883Y44836220D01*
X-7085879Y44836219D01*
X-7085878Y44836219D01*
X-6877371Y44836219D01*
X-6877370Y44836220D01*
X-6672872Y44876896D01*
X-6480237Y44956688D01*
X-6306870Y45072528D01*
X-6159434Y45219964D01*
X-6043594Y45393331D01*
X-5963802Y45585966D01*
X-5923125Y45790466D01*
X-5923125Y45998972D01*
X-5936393Y46065678D01*
X-5943733Y46102578D01*
X-5941798Y46124207D01*
X-5944657Y46145735D01*
X-5938746Y46158320D01*
X-5937506Y46172169D01*
X-5924184Y46189320D01*
X-5914950Y46208975D01*
X-5903174Y46216366D01*
X-5894643Y46227347D01*
X-5874164Y46234572D01*
X-5855770Y46246115D01*
X-5832789Y46249168D01*
X-5828753Y46250591D01*
X-5820811Y46250762D01*
X-5600270Y46248390D01*
X-5533449Y46227987D01*
X-5488264Y46174694D01*
X-5479065Y46105432D01*
X-5479989Y46100207D01*
X-5500125Y45998977D01*
X-5500125Y45790462D01*
X-5459450Y45585974D01*
X-5459448Y45585966D01*
X-5379658Y45393334D01*
X-5379653Y45393325D01*
X-5263817Y45219965D01*
X-5263814Y45219961D01*
X-5116384Y45072531D01*
X-5116380Y45072528D01*
X-4943020Y44956692D01*
X-4943014Y44956689D01*
X-4943013Y44956688D01*
X-4750378Y44876896D01*
X-4545883Y44836220D01*
X-4545879Y44836219D01*
X-4545878Y44836219D01*
X-4337371Y44836219D01*
X-4337370Y44836220D01*
X-4132872Y44876896D01*
X-3940237Y44956688D01*
X-3766870Y45072528D01*
X-3619434Y45219964D01*
X-3503594Y45393331D01*
X-3438654Y45550112D01*
X-3394814Y45604515D01*
X-3328520Y45626580D01*
X-3260820Y45609301D01*
X-3213209Y45558164D01*
X-3206162Y45540977D01*
X-3152721Y45376502D01*
X-3056250Y45187169D01*
X-3016897Y45133003D01*
X-2384589Y45765312D01*
X-2367550Y45701726D01*
X-2301724Y45587712D01*
X-2208632Y45494620D01*
X-2094618Y45428794D01*
X-2031035Y45411757D01*
X-2663343Y44779450D01*
X-2663343Y44779449D01*
X-2609176Y44740095D01*
X-2419843Y44643624D01*
X-2217755Y44577962D01*
X-2007871Y44544719D01*
X-1795379Y44544719D01*
X-1585498Y44577962D01*
X-1585495Y44577962D01*
X-1383408Y44643624D01*
X-1194071Y44740097D01*
X-1139909Y44779449D01*
X-1139908Y44779449D01*
X-1772217Y45411757D01*
X-1708632Y45428794D01*
X-1594618Y45494620D01*
X-1501526Y45587712D01*
X-1435700Y45701726D01*
X-1418663Y45765310D01*
X-786355Y45133002D01*
X-786355Y45133003D01*
X-747003Y45187165D01*
X-650530Y45376502D01*
X-597089Y45540977D01*
X-557652Y45598652D01*
X-493293Y45625851D01*
X-424447Y45613937D01*
X-372971Y45566693D01*
X-364597Y45550112D01*
X-299658Y45393334D01*
X-299653Y45393325D01*
X-183817Y45219965D01*
X-183814Y45219961D01*
X-36384Y45072531D01*
X-36380Y45072528D01*
X136980Y44956692D01*
X136986Y44956689D01*
X136987Y44956688D01*
X329622Y44876896D01*
X534117Y44836220D01*
X534121Y44836219D01*
X534122Y44836219D01*
X742629Y44836219D01*
X742630Y44836220D01*
X947128Y44876896D01*
X1139763Y44956688D01*
X1313130Y45072528D01*
X1460566Y45219964D01*
X1576406Y45393331D01*
X1656198Y45585966D01*
X1696875Y45790466D01*
X1696875Y45998972D01*
X1696875Y45998973D01*
X1696875Y45998975D01*
X1692600Y46020466D01*
X1694535Y46042096D01*
X1691676Y46063624D01*
X1697587Y46076210D01*
X1698827Y46090058D01*
X1712149Y46107209D01*
X1721383Y46126864D01*
X1733160Y46134256D01*
X1741690Y46145235D01*
X1762168Y46152460D01*
X1780564Y46164004D01*
X1803544Y46167057D01*
X1807580Y46168480D01*
X1815519Y46168651D01*
X2003467Y46166630D01*
X2070288Y46146225D01*
X2115473Y46092932D01*
X2124672Y46023671D01*
X2123748Y46018446D01*
X2119875Y45998977D01*
X2119875Y45790462D01*
X2160550Y45585974D01*
X2160552Y45585966D01*
X2240342Y45393334D01*
X2240347Y45393325D01*
X2356183Y45219965D01*
X2356186Y45219961D01*
X2503616Y45072531D01*
X2503620Y45072528D01*
X2676980Y44956692D01*
X2676986Y44956689D01*
X2676987Y44956688D01*
X2869622Y44876896D01*
X3074117Y44836220D01*
X3074121Y44836219D01*
X3074122Y44836219D01*
X3282629Y44836219D01*
X3282630Y44836220D01*
X3487128Y44876896D01*
X3679763Y44956688D01*
X3853130Y45072528D01*
X4000566Y45219964D01*
X4116406Y45393331D01*
X4196198Y45585966D01*
X4236875Y45790466D01*
X4236875Y45998972D01*
X4236875Y45998973D01*
X4236875Y45998975D01*
X4236278Y46005037D01*
X4239204Y46005326D01*
X4240002Y46014550D01*
X4237120Y46036254D01*
X4242953Y46048673D01*
X4244136Y46062343D01*
X4257517Y46079676D01*
X4266827Y46099494D01*
X4278448Y46106788D01*
X4286834Y46117649D01*
X4307462Y46124996D01*
X4326008Y46136634D01*
X4348548Y46139628D01*
X4352654Y46141090D01*
X4360953Y46141281D01*
X4538227Y46139374D01*
X4605048Y46118970D01*
X4650233Y46065678D01*
X4660294Y46003231D01*
X4659875Y45998976D01*
X4659875Y45790462D01*
X4700550Y45585974D01*
X4700552Y45585966D01*
X4780342Y45393334D01*
X4780347Y45393325D01*
X4896183Y45219965D01*
X4896186Y45219961D01*
X5043616Y45072531D01*
X5043620Y45072528D01*
X5216980Y44956692D01*
X5216986Y44956689D01*
X5216987Y44956688D01*
X5409622Y44876896D01*
X5614117Y44836220D01*
X5614121Y44836219D01*
X5614122Y44836219D01*
X5822629Y44836219D01*
X5822630Y44836220D01*
X6027128Y44876896D01*
X6219763Y44956688D01*
X6393130Y45072528D01*
X6540566Y45219964D01*
X6656406Y45393331D01*
X6736198Y45585966D01*
X6776875Y45790466D01*
X6776875Y45989963D01*
X6779614Y45999292D01*
X6778334Y46008929D01*
X6789296Y46032267D01*
X6796560Y46057002D01*
X6803906Y46063368D01*
X6808041Y46072169D01*
X6829881Y46085876D01*
X6849364Y46102757D01*
X6860563Y46105131D01*
X6867222Y46109309D01*
X6902199Y46113955D01*
X7077211Y46112073D01*
X7144032Y46091669D01*
X7189217Y46038377D01*
X7199875Y45988081D01*
X7199875Y45790462D01*
X7240550Y45585974D01*
X7240552Y45585966D01*
X7320342Y45393334D01*
X7320347Y45393325D01*
X7436183Y45219965D01*
X7436186Y45219961D01*
X7583616Y45072531D01*
X7583620Y45072528D01*
X7756980Y44956692D01*
X7756986Y44956689D01*
X7756987Y44956688D01*
X7949622Y44876896D01*
X8154117Y44836220D01*
X8154121Y44836219D01*
X8154122Y44836219D01*
X8362629Y44836219D01*
X8362630Y44836220D01*
X8567128Y44876896D01*
X8759763Y44956688D01*
X8933130Y45072528D01*
X9080566Y45219964D01*
X9196406Y45393331D01*
X9276198Y45585966D01*
X9316875Y45790466D01*
X9316875Y45962651D01*
X9319614Y45971980D01*
X9318334Y45981617D01*
X9329296Y46004955D01*
X9336560Y46029690D01*
X9343906Y46036056D01*
X9348041Y46044857D01*
X9369881Y46058564D01*
X9389364Y46075445D01*
X9400563Y46077819D01*
X9407222Y46081997D01*
X9442200Y46086644D01*
X9617210Y46084762D01*
X9684032Y46064357D01*
X9729217Y46011065D01*
X9739875Y45960769D01*
X9739875Y45024185D01*
X9751972Y44963366D01*
X9798054Y44894399D01*
X9867022Y44848316D01*
X9867023Y44848315D01*
X9907472Y44840270D01*
X9927838Y44836219D01*
X11668911Y44836220D01*
X11729728Y44848316D01*
X11798695Y44894399D01*
X11844778Y44963366D01*
X11844778Y44963368D01*
X11844779Y44963368D01*
X11856874Y45024178D01*
X11856875Y45024182D01*
X11856874Y45935341D01*
X11876558Y46002378D01*
X11929362Y46048133D01*
X11982202Y46059332D01*
X17377336Y46001319D01*
X17444157Y45980916D01*
X17489342Y45927623D01*
X17500000Y45877327D01*
X17500000Y41147664D01*
X17480315Y41080625D01*
X17474375Y41072177D01*
X17469513Y41065842D01*
X17412958Y40967887D01*
X17410201Y40963111D01*
X17379500Y40848534D01*
X17379500Y40729916D01*
X17410201Y40615339D01*
X17461058Y40527254D01*
X17469512Y40512611D01*
X17474372Y40506278D01*
X17499570Y40441110D01*
X17500000Y40430787D01*
X17500000Y38199779D01*
X17480315Y38132740D01*
X17463682Y38112098D01*
X17383109Y38031525D01*
X17341492Y37959442D01*
X17322746Y37926974D01*
X17291500Y37810363D01*
X17291500Y37689637D01*
X17322746Y37573026D01*
X17383109Y37468475D01*
X17383111Y37468473D01*
X17463681Y37387903D01*
X17497166Y37326580D01*
X17500000Y37300222D01*
X17500000Y36147664D01*
X17480315Y36080625D01*
X17474375Y36072177D01*
X17469513Y36065842D01*
X17418366Y35977253D01*
X17410201Y35963111D01*
X17379500Y35848534D01*
X17379500Y35729916D01*
X17410201Y35615339D01*
X17460786Y35527725D01*
X17469512Y35512611D01*
X17474372Y35506278D01*
X17499570Y35441110D01*
X17500000Y35430787D01*
X17500000Y30624000D01*
X17480315Y30556961D01*
X17427511Y30511206D01*
X17376000Y30500000D01*
X11980875Y30500000D01*
X11913836Y30519685D01*
X11868081Y30572489D01*
X11856875Y30624000D01*
X11856874Y31554265D01*
X11856873Y31554272D01*
X11844778Y31615083D01*
X11817270Y31656251D01*
X11798695Y31684051D01*
X11729727Y31730134D01*
X11729726Y31730135D01*
X11668914Y31742230D01*
X9927840Y31742230D01*
X9867021Y31730133D01*
X9798054Y31684051D01*
X9751971Y31615083D01*
X9751970Y31615082D01*
X9739875Y31554272D01*
X9739875Y31554269D01*
X9739875Y31554267D01*
X9739875Y30787983D01*
X9739876Y30624000D01*
X9737325Y30615314D01*
X9738614Y30606353D01*
X9727636Y30582317D01*
X9720192Y30556961D01*
X9713349Y30551033D01*
X9709589Y30542797D01*
X9687357Y30528511D01*
X9667388Y30511206D01*
X9656872Y30508919D01*
X9650811Y30505023D01*
X9615876Y30500000D01*
X9440875Y30500000D01*
X9373836Y30519685D01*
X9328081Y30572489D01*
X9316875Y30624000D01*
X9316875Y30787984D01*
X9316874Y30787988D01*
X9276198Y30992483D01*
X9196406Y31185118D01*
X9196405Y31185119D01*
X9196402Y31185125D01*
X9080566Y31358485D01*
X9080563Y31358489D01*
X8933133Y31505919D01*
X8933129Y31505922D01*
X8759769Y31621758D01*
X8759760Y31621763D01*
X8567128Y31701553D01*
X8567120Y31701555D01*
X8362632Y31742230D01*
X8362628Y31742230D01*
X8154122Y31742230D01*
X8154117Y31742230D01*
X7949629Y31701555D01*
X7949621Y31701553D01*
X7756989Y31621763D01*
X7756980Y31621758D01*
X7583620Y31505922D01*
X7583616Y31505919D01*
X7436186Y31358489D01*
X7436183Y31358485D01*
X7320347Y31185125D01*
X7320342Y31185116D01*
X7240552Y30992484D01*
X7240550Y30992476D01*
X7199875Y30787988D01*
X7199875Y30624000D01*
X7197324Y30615315D01*
X7198613Y30606353D01*
X7187634Y30582313D01*
X7180190Y30556961D01*
X7173349Y30551034D01*
X7169588Y30542797D01*
X7147353Y30528508D01*
X7127386Y30511206D01*
X7116871Y30508919D01*
X7110810Y30505023D01*
X7075875Y30500000D01*
X6900875Y30500000D01*
X6833836Y30519685D01*
X6788081Y30572489D01*
X6776875Y30624000D01*
X6776875Y30787984D01*
X6776874Y30787988D01*
X6736198Y30992483D01*
X6656406Y31185118D01*
X6656405Y31185119D01*
X6656402Y31185125D01*
X6540566Y31358485D01*
X6540563Y31358489D01*
X6393133Y31505919D01*
X6393129Y31505922D01*
X6219769Y31621758D01*
X6219760Y31621763D01*
X6027128Y31701553D01*
X6027120Y31701555D01*
X5822632Y31742230D01*
X5822628Y31742230D01*
X5614122Y31742230D01*
X5614117Y31742230D01*
X5409630Y31701555D01*
X5409625Y31701554D01*
X5409622Y31701553D01*
X5364992Y31683068D01*
X5318278Y31663718D01*
X5248809Y31656251D01*
X5186330Y31687526D01*
X5183146Y31690599D01*
X4063382Y32810363D01*
X7041500Y32810363D01*
X7041500Y32689637D01*
X7072746Y32573026D01*
X7133109Y32468475D01*
X7218475Y32383109D01*
X7323026Y32322746D01*
X7439637Y32291500D01*
X7439640Y32291500D01*
X7560360Y32291500D01*
X7560363Y32291500D01*
X7676974Y32322746D01*
X7781525Y32383109D01*
X7866891Y32468475D01*
X7927254Y32573026D01*
X7958500Y32689637D01*
X7958500Y32810363D01*
X9441500Y32810363D01*
X9441500Y32689637D01*
X9472746Y32573026D01*
X9533109Y32468475D01*
X9618475Y32383109D01*
X9723026Y32322746D01*
X9839637Y32291500D01*
X9839640Y32291500D01*
X9960360Y32291500D01*
X9960363Y32291500D01*
X10076974Y32322746D01*
X10181525Y32383109D01*
X10266891Y32468475D01*
X10327254Y32573026D01*
X10358500Y32689637D01*
X10358500Y32810363D01*
X10327254Y32926974D01*
X10327252Y32926977D01*
X10327252Y32926979D01*
X10327251Y32926980D01*
X10310215Y32956487D01*
X10310213Y32956489D01*
X10279109Y33010363D01*
X12941500Y33010363D01*
X12941500Y32889637D01*
X12972746Y32773026D01*
X13033109Y32668475D01*
X13118475Y32583109D01*
X13223026Y32522746D01*
X13339637Y32491500D01*
X13339640Y32491500D01*
X13460360Y32491500D01*
X13460363Y32491500D01*
X13576974Y32522746D01*
X13681525Y32583109D01*
X13766891Y32668475D01*
X13827254Y32773026D01*
X13858500Y32889637D01*
X13858500Y33010363D01*
X13827254Y33126974D01*
X13766891Y33231525D01*
X13681525Y33316891D01*
X13576974Y33377254D01*
X13460363Y33408500D01*
X13339637Y33408500D01*
X13223026Y33377254D01*
X13223024Y33377254D01*
X13223024Y33377253D01*
X13118475Y33316891D01*
X13118472Y33316889D01*
X13033111Y33231528D01*
X13033109Y33231525D01*
X12986282Y33150418D01*
X12972746Y33126974D01*
X12941500Y33010363D01*
X10279109Y33010363D01*
X10266891Y33031525D01*
X10181525Y33116891D01*
X10076974Y33177254D01*
X9960363Y33208500D01*
X9839637Y33208500D01*
X9723026Y33177254D01*
X9723024Y33177254D01*
X9723024Y33177253D01*
X9618475Y33116891D01*
X9618472Y33116889D01*
X9533111Y33031528D01*
X9533109Y33031525D01*
X9472746Y32926974D01*
X9441500Y32810363D01*
X7958500Y32810363D01*
X7927254Y32926974D01*
X7866891Y33031525D01*
X7781525Y33116891D01*
X7676974Y33177254D01*
X7560363Y33208500D01*
X7439637Y33208500D01*
X7323026Y33177254D01*
X7323024Y33177254D01*
X7323024Y33177253D01*
X7218475Y33116891D01*
X7218472Y33116889D01*
X7133111Y33031528D01*
X7133109Y33031525D01*
X7072746Y32926974D01*
X7041500Y32810363D01*
X4063382Y32810363D01*
X3299258Y33574487D01*
X5427376Y33574487D01*
X5427376Y33453761D01*
X5458622Y33337150D01*
X5518985Y33232599D01*
X5604351Y33147233D01*
X5708902Y33086870D01*
X5825513Y33055624D01*
X5825516Y33055624D01*
X5946236Y33055624D01*
X5946239Y33055624D01*
X6062850Y33086870D01*
X6167401Y33147233D01*
X6169422Y33149255D01*
X6171552Y33150418D01*
X6173852Y33152182D01*
X6174126Y33151824D01*
X6230741Y33182742D01*
X6293940Y33178226D01*
X6294221Y33179272D01*
X6299646Y33177819D01*
X6300433Y33177762D01*
X6301662Y33177278D01*
X6302069Y33177169D01*
X6302071Y33177168D01*
X6418682Y33145922D01*
X6418685Y33145922D01*
X6539405Y33145922D01*
X6539408Y33145922D01*
X6656019Y33177168D01*
X6760570Y33237531D01*
X6845936Y33322897D01*
X6906299Y33427448D01*
X6937545Y33544059D01*
X6937545Y33664785D01*
X6906299Y33781396D01*
X6845936Y33885947D01*
X6760570Y33971313D01*
X6656019Y34031676D01*
X6539408Y34062922D01*
X6418682Y34062922D01*
X6302071Y34031676D01*
X6302069Y34031676D01*
X6302069Y34031675D01*
X6197516Y33971311D01*
X6195489Y33969283D01*
X6193354Y33968118D01*
X6191069Y33966364D01*
X6190795Y33966721D01*
X6134163Y33935802D01*
X6070981Y33940325D01*
X6070700Y33939274D01*
X6065245Y33940736D01*
X6064472Y33940791D01*
X6063261Y33941268D01*
X6047214Y33945568D01*
X5946239Y33972624D01*
X5825513Y33972624D01*
X5708902Y33941378D01*
X5708900Y33941378D01*
X5708900Y33941377D01*
X5604351Y33881015D01*
X5604348Y33881013D01*
X5518987Y33795652D01*
X5518985Y33795649D01*
X5458622Y33691098D01*
X5427376Y33574487D01*
X3299258Y33574487D01*
X2632319Y34241426D01*
X2616188Y34270967D01*
X2599415Y34300205D01*
X2599483Y34301560D01*
X2598834Y34302749D01*
X2601236Y34336339D01*
X2602932Y34369986D01*
X2603721Y34371088D01*
X2603818Y34372441D01*
X2623998Y34399398D01*
X2643617Y34426789D01*
X2645031Y34427495D01*
X2645690Y34428374D01*
X2674231Y34444351D01*
X2680925Y34447010D01*
X2776974Y34472746D01*
X2845831Y34512502D01*
X2854231Y34515837D01*
X2880377Y34518262D01*
X2905898Y34524453D01*
X2915800Y34521546D01*
X2923803Y34522287D01*
X2937519Y34515168D01*
X2962001Y34507979D01*
X3023020Y34472749D01*
X3023021Y34472748D01*
X3023023Y34472748D01*
X3023026Y34472746D01*
X3139637Y34441500D01*
X3139640Y34441500D01*
X3260360Y34441500D01*
X3260363Y34441500D01*
X3376974Y34472746D01*
X3438001Y34507981D01*
X3505899Y34524454D01*
X3562002Y34507980D01*
X3623023Y34472749D01*
X3623024Y34472748D01*
X3623026Y34472748D01*
X3623029Y34472746D01*
X3739640Y34441500D01*
X3739643Y34441500D01*
X3860363Y34441500D01*
X3860366Y34441500D01*
X3976977Y34472746D01*
X4038004Y34507981D01*
X4105902Y34524454D01*
X4162005Y34507980D01*
X4223026Y34472749D01*
X4223027Y34472748D01*
X4223029Y34472748D01*
X4223032Y34472746D01*
X4339643Y34441500D01*
X4339646Y34441500D01*
X4460366Y34441500D01*
X4460369Y34441500D01*
X4576980Y34472746D01*
X4681531Y34533109D01*
X4681533Y34533112D01*
X4681538Y34533114D01*
X4687982Y34538058D01*
X4689250Y34536405D01*
X4740821Y34564574D01*
X4810513Y34559599D01*
X4814649Y34557972D01*
X4817090Y34556961D01*
X4817096Y34556958D01*
X4933707Y34525712D01*
X4933709Y34525712D01*
X5054431Y34525712D01*
X5054433Y34525712D01*
X5171044Y34556958D01*
X5171047Y34556961D01*
X5178552Y34560068D01*
X5179548Y34557664D01*
X5234885Y34571091D01*
X5300913Y34548242D01*
X5316672Y34534912D01*
X5318475Y34533109D01*
X5423026Y34472746D01*
X5539637Y34441500D01*
X5539640Y34441500D01*
X5660360Y34441500D01*
X5660363Y34441500D01*
X5776974Y34472746D01*
X5776976Y34472748D01*
X5776978Y34472748D01*
X5776979Y34472749D01*
X5837999Y34507979D01*
X5905898Y34524453D01*
X5962001Y34507979D01*
X6023020Y34472749D01*
X6023021Y34472748D01*
X6023023Y34472748D01*
X6023026Y34472746D01*
X6139637Y34441500D01*
X6139640Y34441500D01*
X6260360Y34441500D01*
X6260363Y34441500D01*
X6376974Y34472746D01*
X6481525Y34533109D01*
X6566891Y34618475D01*
X6627254Y34723026D01*
X6658500Y34839637D01*
X6658500Y34960363D01*
X6627254Y35076974D01*
X6566891Y35181525D01*
X6481525Y35266891D01*
X6376974Y35327254D01*
X6260363Y35358500D01*
X6139637Y35358500D01*
X6055678Y35336003D01*
X6023022Y35327253D01*
X5962000Y35292021D01*
X5894100Y35275548D01*
X5838000Y35292021D01*
X5776977Y35327253D01*
X5776978Y35327253D01*
X5744322Y35336003D01*
X5660363Y35358500D01*
X5539637Y35358500D01*
X5469670Y35339753D01*
X5423024Y35327254D01*
X5415516Y35324143D01*
X5414522Y35326541D01*
X5359130Y35313125D01*
X5293112Y35336003D01*
X5277397Y35349301D01*
X5275597Y35351101D01*
X5275595Y35351103D01*
X5171044Y35411466D01*
X5054433Y35442712D01*
X4933707Y35442712D01*
X4817096Y35411466D01*
X4817094Y35411466D01*
X4817094Y35411465D01*
X4712538Y35351099D01*
X4706094Y35346154D01*
X4704828Y35347803D01*
X4653222Y35319632D01*
X4583531Y35324626D01*
X4579436Y35326237D01*
X4576984Y35327253D01*
X4544328Y35336003D01*
X4460369Y35358500D01*
X4339643Y35358500D01*
X4255684Y35336003D01*
X4223028Y35327253D01*
X4162004Y35292020D01*
X4094104Y35275547D01*
X4038004Y35292020D01*
X3976977Y35327254D01*
X3860366Y35358500D01*
X3739640Y35358500D01*
X3655681Y35336003D01*
X3623025Y35327253D01*
X3562001Y35292020D01*
X3494101Y35275547D01*
X3438001Y35292020D01*
X3376974Y35327254D01*
X3260363Y35358500D01*
X3139637Y35358500D01*
X3055678Y35336003D01*
X3023022Y35327253D01*
X2962000Y35292021D01*
X2894100Y35275548D01*
X2854349Y35284117D01*
X2845882Y35287470D01*
X2776974Y35327254D01*
X2679334Y35353417D01*
X2672689Y35356048D01*
X2650558Y35373318D01*
X2626586Y35387929D01*
X2623383Y35394523D01*
X2617605Y35399031D01*
X2608323Y35425524D01*
X2596057Y35450776D01*
X2596927Y35458055D01*
X2594504Y35464971D01*
X2601018Y35492276D01*
X2604352Y35520152D01*
X2609477Y35527725D01*
X2610720Y35532933D01*
X2617246Y35539204D01*
X2630659Y35559020D01*
X2898814Y35827175D01*
X8854688Y35827175D01*
X8854688Y35706449D01*
X8885934Y35589838D01*
X8946297Y35485287D01*
X9031663Y35399921D01*
X9136214Y35339558D01*
X9252825Y35308312D01*
X9252828Y35308312D01*
X9373548Y35308312D01*
X9373551Y35308312D01*
X9490162Y35339558D01*
X9594713Y35399921D01*
X9680079Y35485287D01*
X9740442Y35589838D01*
X9771688Y35706449D01*
X9771688Y35827175D01*
X9740442Y35943786D01*
X9680079Y36048337D01*
X9594713Y36133703D01*
X9490162Y36194066D01*
X9373551Y36225312D01*
X9252825Y36225312D01*
X9136214Y36194066D01*
X9136212Y36194066D01*
X9136212Y36194065D01*
X9031663Y36133703D01*
X9031660Y36133701D01*
X8946299Y36048340D01*
X8946297Y36048337D01*
X8897093Y35963113D01*
X8885934Y35943786D01*
X8854688Y35827175D01*
X2898814Y35827175D01*
X2910310Y35838671D01*
X3426821Y36355181D01*
X3453748Y36369885D01*
X3479567Y36386477D01*
X3485767Y36387369D01*
X3488144Y36388666D01*
X3514502Y36391500D01*
X3532734Y36391500D01*
X3532750Y36391499D01*
X3540346Y36391499D01*
X3628156Y36391499D01*
X3628158Y36391499D01*
X3712979Y36414227D01*
X3744093Y36432191D01*
X3789026Y36458133D01*
X3851119Y36520226D01*
X3851120Y36520229D01*
X4057064Y36726173D01*
X4057069Y36726177D01*
X4067272Y36736381D01*
X4067274Y36736381D01*
X4112085Y36781193D01*
X4173406Y36814677D01*
X4243098Y36809693D01*
X4261764Y36800899D01*
X4310526Y36772746D01*
X4427137Y36741500D01*
X4427140Y36741500D01*
X4547860Y36741500D01*
X4547863Y36741500D01*
X4664474Y36772746D01*
X4769025Y36833109D01*
X4854391Y36918475D01*
X4914754Y37023026D01*
X4946000Y37139637D01*
X4946000Y37260363D01*
X4914754Y37376974D01*
X4886601Y37425735D01*
X4880035Y37452799D01*
X4870305Y37478887D01*
X4871913Y37486280D01*
X4870129Y37493634D01*
X4879237Y37519952D01*
X4885156Y37547160D01*
X4891662Y37555852D01*
X4892981Y37559661D01*
X4906295Y37575403D01*
X4951119Y37620226D01*
X4951120Y37620229D01*
X5088792Y37757901D01*
X6137178Y37757901D01*
X6137178Y37637175D01*
X6168424Y37520564D01*
X6228787Y37416013D01*
X6314153Y37330647D01*
X6418704Y37270284D01*
X6535315Y37239038D01*
X6535318Y37239038D01*
X6656038Y37239038D01*
X6656041Y37239038D01*
X6772652Y37270284D01*
X6877203Y37330647D01*
X6962569Y37416013D01*
X7022932Y37520564D01*
X7054178Y37637175D01*
X7054178Y37757901D01*
X7022932Y37874512D01*
X6962569Y37979063D01*
X6962566Y37979066D01*
X6958866Y37985475D01*
X6942393Y38053375D01*
X6965245Y38119402D01*
X6978567Y38135152D01*
X7031891Y38188475D01*
X7092254Y38293026D01*
X7123500Y38409637D01*
X7123500Y38470363D01*
X7731500Y38470363D01*
X7731500Y38349637D01*
X7762746Y38233026D01*
X7823109Y38128475D01*
X7908475Y38043109D01*
X8013026Y37982746D01*
X8129637Y37951500D01*
X8129640Y37951500D01*
X8250360Y37951500D01*
X8250363Y37951500D01*
X8366974Y37982746D01*
X8471525Y38043109D01*
X8556891Y38128475D01*
X8617254Y38233026D01*
X8648500Y38349637D01*
X8648500Y38470363D01*
X8617254Y38586974D01*
X8556891Y38691525D01*
X8471525Y38776891D01*
X8366974Y38837254D01*
X8250363Y38868500D01*
X8129637Y38868500D01*
X8013026Y38837254D01*
X8013024Y38837254D01*
X8013024Y38837253D01*
X7908475Y38776891D01*
X7908472Y38776889D01*
X7823111Y38691528D01*
X7823109Y38691525D01*
X7762746Y38586974D01*
X7731500Y38470363D01*
X7123500Y38470363D01*
X7123500Y38530363D01*
X7092254Y38646974D01*
X7031891Y38751525D01*
X6946525Y38836891D01*
X6877100Y38876974D01*
X6841975Y38897254D01*
X6839797Y38897838D01*
X6725363Y38928500D01*
X6604637Y38928500D01*
X6488026Y38897254D01*
X6488024Y38897254D01*
X6488024Y38897253D01*
X6383475Y38836891D01*
X6383472Y38836889D01*
X6298111Y38751528D01*
X6298109Y38751525D01*
X6250159Y38668473D01*
X6237746Y38646974D01*
X6206500Y38530363D01*
X6206500Y38409637D01*
X6237746Y38293026D01*
X6298109Y38188475D01*
X6298110Y38188474D01*
X6301811Y38182064D01*
X6318284Y38114164D01*
X6295432Y38048137D01*
X6282106Y38032383D01*
X6228790Y37979067D01*
X6228787Y37979063D01*
X6182259Y37898474D01*
X6168424Y37874512D01*
X6137178Y37757901D01*
X5088792Y37757901D01*
X5157064Y37826173D01*
X5157069Y37826177D01*
X5167273Y37836381D01*
X5167274Y37836381D01*
X5229367Y37898474D01*
X5259301Y37950321D01*
X5268851Y37966862D01*
X5269672Y37968285D01*
X5273273Y37974521D01*
X5296000Y38059342D01*
X5296000Y38147154D01*
X5296000Y38172998D01*
X5315685Y38240037D01*
X5332319Y38260679D01*
X6082003Y39010363D01*
X15341500Y39010363D01*
X15341500Y38889637D01*
X15372746Y38773026D01*
X15433109Y38668475D01*
X15518475Y38583109D01*
X15623026Y38522746D01*
X15739637Y38491500D01*
X15739640Y38491500D01*
X15860360Y38491500D01*
X15860363Y38491500D01*
X15976974Y38522746D01*
X16081525Y38583109D01*
X16166891Y38668475D01*
X16227254Y38773026D01*
X16258500Y38889637D01*
X16258500Y39010363D01*
X16227254Y39126974D01*
X16166891Y39231525D01*
X16081525Y39316891D01*
X15976974Y39377254D01*
X15860363Y39408500D01*
X15739637Y39408500D01*
X15623026Y39377254D01*
X15623024Y39377254D01*
X15623024Y39377253D01*
X15518475Y39316891D01*
X15518472Y39316889D01*
X15433111Y39231528D01*
X15433109Y39231525D01*
X15396332Y39167825D01*
X15372746Y39126974D01*
X15341500Y39010363D01*
X6082003Y39010363D01*
X6676821Y39605181D01*
X6738144Y39638666D01*
X6752335Y39640192D01*
X6752303Y39640439D01*
X6760359Y39641500D01*
X6760363Y39641500D01*
X6876974Y39672746D01*
X6981525Y39733109D01*
X7066891Y39818475D01*
X7127254Y39923026D01*
X7158500Y40039637D01*
X7158500Y40160363D01*
X7127254Y40276974D01*
X7066891Y40381525D01*
X6981525Y40466891D01*
X6876974Y40527254D01*
X6760363Y40558500D01*
X6639637Y40558500D01*
X6523026Y40527254D01*
X6523024Y40527254D01*
X6523024Y40527253D01*
X6418475Y40466891D01*
X6418472Y40466889D01*
X6333111Y40381528D01*
X6333109Y40381525D01*
X6283286Y40295229D01*
X6272746Y40276974D01*
X6257553Y40220274D01*
X6241499Y40160360D01*
X6240439Y40152303D01*
X6238011Y40152623D01*
X6221815Y40097463D01*
X6205181Y40076821D01*
X4852932Y38724573D01*
X4791609Y38691088D01*
X4721917Y38696072D01*
X4703252Y38704867D01*
X4664481Y38727252D01*
X4664475Y38727254D01*
X4659292Y38728643D01*
X4653384Y38730226D01*
X4593724Y38766589D01*
X4563194Y38829436D01*
X4571488Y38898811D01*
X4615973Y38952690D01*
X4653383Y38969775D01*
X4664474Y38972746D01*
X4769025Y39033109D01*
X4854391Y39118475D01*
X4914754Y39223026D01*
X4946000Y39339637D01*
X4946000Y39460363D01*
X4914754Y39576974D01*
X4854391Y39681525D01*
X4769025Y39766891D01*
X4664474Y39827254D01*
X4547863Y39858500D01*
X4427137Y39858500D01*
X4310526Y39827254D01*
X4310524Y39827254D01*
X4310524Y39827253D01*
X4205975Y39766891D01*
X4205972Y39766889D01*
X4120611Y39681528D01*
X4120609Y39681525D01*
X4098711Y39643596D01*
X4060246Y39576974D01*
X4057273Y39565883D01*
X4020910Y39506224D01*
X3958063Y39475695D01*
X3888687Y39483990D01*
X3834809Y39528475D01*
X3817726Y39565881D01*
X3814754Y39576974D01*
X3754391Y39681525D01*
X3669025Y39766891D01*
X3564474Y39827254D01*
X3447863Y39858500D01*
X3327137Y39858500D01*
X3210526Y39827254D01*
X3210524Y39827254D01*
X3210524Y39827253D01*
X3105975Y39766891D01*
X3105972Y39766889D01*
X3020611Y39681528D01*
X3020609Y39681525D01*
X2998711Y39643596D01*
X2960246Y39576974D01*
X2957273Y39565883D01*
X2920910Y39506224D01*
X2858063Y39475695D01*
X2788687Y39483990D01*
X2734809Y39528475D01*
X2717726Y39565881D01*
X2714754Y39576974D01*
X2654391Y39681525D01*
X2569025Y39766891D01*
X2503407Y39804776D01*
X2464473Y39827255D01*
X2462471Y39827791D01*
X2460973Y39828705D01*
X2456970Y39830362D01*
X2457215Y39830956D01*
X2451232Y39831383D01*
X2427794Y39848929D01*
X2402811Y39864157D01*
X2400159Y39869616D01*
X2395298Y39873255D01*
X2385068Y39900684D01*
X2372283Y39927004D01*
X2373003Y39933032D01*
X2370882Y39938720D01*
X2377103Y39967318D01*
X2380578Y39996379D01*
X2384773Y40002579D01*
X2385734Y40006992D01*
X2406879Y40035240D01*
X2501823Y40130184D01*
X2563145Y40163666D01*
X2589502Y40166500D01*
X4248482Y40166500D01*
X4248498Y40166499D01*
X4256094Y40166499D01*
X4343904Y40166499D01*
X4343906Y40166499D01*
X4428727Y40189227D01*
X4461429Y40208108D01*
X4504774Y40233133D01*
X4566867Y40295226D01*
X4566868Y40295229D01*
X5432001Y41160363D01*
X11841500Y41160363D01*
X11841500Y41039637D01*
X11872746Y40923026D01*
X11933109Y40818475D01*
X12018475Y40733109D01*
X12123026Y40672746D01*
X12239637Y40641500D01*
X12239640Y40641500D01*
X12360360Y40641500D01*
X12360363Y40641500D01*
X12476974Y40672746D01*
X12581525Y40733109D01*
X12666891Y40818475D01*
X12727254Y40923026D01*
X12758500Y41039637D01*
X12758500Y41160363D01*
X12727254Y41276974D01*
X12666891Y41381525D01*
X12581525Y41466891D01*
X12476974Y41527254D01*
X12360363Y41558500D01*
X12239637Y41558500D01*
X12123026Y41527254D01*
X12123024Y41527254D01*
X12123024Y41527253D01*
X12018475Y41466891D01*
X12018472Y41466889D01*
X11933111Y41381528D01*
X11933109Y41381525D01*
X11872746Y41276974D01*
X11841500Y41160363D01*
X5432001Y41160363D01*
X5460383Y41188745D01*
X5521704Y41222228D01*
X5580149Y41220838D01*
X5689637Y41191500D01*
X5689641Y41191500D01*
X5810360Y41191500D01*
X5810363Y41191500D01*
X5926974Y41222746D01*
X6031525Y41283109D01*
X6116891Y41368475D01*
X6177254Y41473026D01*
X6208500Y41589637D01*
X6208500Y41710363D01*
X6177254Y41826974D01*
X6116891Y41931525D01*
X6031525Y42016891D01*
X5926974Y42077254D01*
X5810363Y42108500D01*
X5689637Y42108500D01*
X5573026Y42077254D01*
X5573024Y42077254D01*
X5573024Y42077253D01*
X5468475Y42016891D01*
X5462029Y42011944D01*
X5461218Y42013001D01*
X5413604Y41985514D01*
X5321278Y41960775D01*
X5321273Y41960773D01*
X5245227Y41916869D01*
X5111753Y41783395D01*
X5050429Y41749911D01*
X4980738Y41754896D01*
X4936391Y41783396D01*
X4881336Y41838451D01*
X4881334Y41838453D01*
X4776783Y41898816D01*
X4660172Y41930062D01*
X4539446Y41930062D01*
X4422835Y41898816D01*
X4422833Y41898816D01*
X4422833Y41898815D01*
X4318271Y41838446D01*
X4315779Y41836533D01*
X4313299Y41835575D01*
X4311246Y41834389D01*
X4311060Y41834710D01*
X4250608Y41811345D01*
X4182164Y41825390D01*
X4152622Y41847235D01*
X4137116Y41862741D01*
X4137114Y41862743D01*
X4032563Y41923106D01*
X3915952Y41954352D01*
X3795226Y41954352D01*
X3678615Y41923106D01*
X3678613Y41923106D01*
X3678613Y41923105D01*
X3574064Y41862743D01*
X3574061Y41862741D01*
X3488700Y41777380D01*
X3488696Y41777374D01*
X3428333Y41672824D01*
X3428332Y41672820D01*
X3427225Y41668688D01*
X3419209Y41654806D01*
X3416285Y41641361D01*
X3395134Y41613107D01*
X3226850Y41444820D01*
X3165527Y41411334D01*
X3139168Y41408500D01*
X2117837Y41408500D01*
X2050798Y41428185D01*
X2010450Y41470500D01*
X1976883Y41528640D01*
X1976879Y41528645D01*
X1578644Y41926880D01*
X1578639Y41926884D01*
X1485495Y41980660D01*
X1485494Y41980661D01*
X1459519Y41987621D01*
X1381598Y42008500D01*
X925962Y42008500D01*
X818402Y42008500D01*
X756065Y41991797D01*
X714505Y41980661D01*
X714504Y41980660D01*
X621360Y41926884D01*
X621359Y41926883D01*
X446446Y41751971D01*
X385122Y41718487D01*
X326672Y41719878D01*
X309717Y41724421D01*
X275838Y41733499D01*
X275837Y41733499D01*
X-909660Y41733499D01*
X-976699Y41753184D01*
X-1022454Y41805988D01*
X-1032398Y41875146D01*
X-1017047Y41919499D01*
X-981735Y41980661D01*
X-932968Y42065128D01*
X-891500Y42219889D01*
X-891500Y42380111D01*
X-932968Y42534872D01*
X-978515Y42613761D01*
X-1013076Y42673623D01*
X-1013077Y42673624D01*
X-1013079Y42673628D01*
X-1073938Y42734487D01*
X1443872Y42734487D01*
X1443872Y42613761D01*
X1475118Y42497150D01*
X1535481Y42392599D01*
X1620847Y42307233D01*
X1725398Y42246870D01*
X1842009Y42215624D01*
X1842012Y42215624D01*
X1962732Y42215624D01*
X1962735Y42215624D01*
X2079346Y42246870D01*
X2183897Y42307233D01*
X2269263Y42392599D01*
X2329626Y42497150D01*
X2360872Y42613761D01*
X2360872Y42734487D01*
X2329626Y42851098D01*
X2269263Y42955649D01*
X2183897Y43041015D01*
X2079346Y43101378D01*
X1962735Y43132624D01*
X1842009Y43132624D01*
X1725398Y43101378D01*
X1725396Y43101378D01*
X1725396Y43101377D01*
X1620847Y43041015D01*
X1620844Y43041013D01*
X1535483Y42955652D01*
X1535481Y42955649D01*
X1484318Y42867032D01*
X1475118Y42851098D01*
X1443872Y42734487D01*
X-1073938Y42734487D01*
X-1126372Y42786921D01*
X-1126374Y42786922D01*
X-1126376Y42786924D01*
X-1265126Y42867031D01*
X-1265127Y42867032D01*
X-1265128Y42867032D01*
X-1419889Y42908500D01*
X-1580111Y42908500D01*
X-1734872Y42867032D01*
X-1734873Y42867032D01*
X-1734875Y42867031D01*
X-1734876Y42867031D01*
X-1873625Y42786924D01*
X-1873631Y42786919D01*
X-1986919Y42673631D01*
X-1986924Y42673625D01*
X-2067031Y42534876D01*
X-2067031Y42534875D01*
X-2067032Y42534873D01*
X-2067032Y42534872D01*
X-2108500Y42380111D01*
X-2108500Y42219889D01*
X-2070281Y42077253D01*
X-2067031Y42065126D01*
X-2067031Y42065125D01*
X-1982953Y41919499D01*
X-1966480Y41851599D01*
X-1989332Y41785572D01*
X-2044253Y41742382D01*
X-2090340Y41733499D01*
X-2604430Y41733499D01*
X-2671469Y41753184D01*
X-2692111Y41769818D01*
X-3355181Y42432888D01*
X-3388666Y42494211D01*
X-3391500Y42520569D01*
X-3391500Y42693728D01*
X-3391500Y42693730D01*
X-3419339Y42797625D01*
X-3432193Y42819889D01*
X-3473118Y42890775D01*
X-3842707Y43260363D01*
X2966500Y43260363D01*
X2966500Y43139637D01*
X2997746Y43023026D01*
X3058109Y42918475D01*
X3143475Y42833109D01*
X3248026Y42772746D01*
X3364637Y42741500D01*
X3364640Y42741500D01*
X3485360Y42741500D01*
X3485363Y42741500D01*
X3601974Y42772746D01*
X3706525Y42833109D01*
X3791891Y42918475D01*
X3852254Y43023026D01*
X3883500Y43139637D01*
X3883500Y43260363D01*
X3852254Y43376974D01*
X3791891Y43481525D01*
X3706525Y43566891D01*
X3601974Y43627254D01*
X3485363Y43658500D01*
X3364637Y43658500D01*
X3248026Y43627254D01*
X3248024Y43627254D01*
X3248024Y43627253D01*
X3143475Y43566891D01*
X3143472Y43566889D01*
X3058111Y43481528D01*
X3058109Y43481525D01*
X2997746Y43376974D01*
X2966500Y43260363D01*
X-3842707Y43260363D01*
X-4063869Y43481525D01*
X-4509224Y43926880D01*
X-4509229Y43926884D01*
X-4602373Y43980660D01*
X-4602374Y43980661D01*
X-4628349Y43987621D01*
X-4706270Y44008500D01*
X-13043722Y44008500D01*
X-13110761Y44028185D01*
X-13156516Y44080989D01*
X-13166460Y44150147D01*
X-13153392Y44190366D01*
X-13144651Y44206934D01*
X-13133109Y44218475D01*
X-13080057Y44310363D01*
X12641500Y44310363D01*
X12641500Y44189637D01*
X12672746Y44073026D01*
X12733109Y43968475D01*
X12818475Y43883109D01*
X12923026Y43822746D01*
X13039637Y43791500D01*
X13039640Y43791500D01*
X13160360Y43791500D01*
X13160363Y43791500D01*
X13276974Y43822746D01*
X13381525Y43883109D01*
X13466891Y43968475D01*
X13527254Y44073026D01*
X13558500Y44189637D01*
X13558500Y44310363D01*
X13527254Y44426974D01*
X13466891Y44531525D01*
X13381525Y44616891D01*
X13276974Y44677254D01*
X13160363Y44708500D01*
X13039637Y44708500D01*
X12923026Y44677254D01*
X12923024Y44677254D01*
X12923024Y44677253D01*
X12818475Y44616891D01*
X12818472Y44616889D01*
X12733111Y44531528D01*
X12733109Y44531525D01*
X12680058Y44439638D01*
X12672746Y44426974D01*
X12641500Y44310363D01*
X-13080057Y44310363D01*
X-13072746Y44323026D01*
X-13041500Y44439637D01*
X-13041500Y44560363D01*
X-13072746Y44676974D01*
X-13133109Y44781525D01*
X-13218475Y44866891D01*
X-13323026Y44927254D01*
X-13439637Y44958500D01*
X-13560363Y44958500D01*
X-13676974Y44927254D01*
X-13676976Y44927254D01*
X-13676976Y44927253D01*
X-13781525Y44866891D01*
X-13781528Y44866889D01*
X-13866889Y44781528D01*
X-13866891Y44781525D01*
X-13927254Y44676974D01*
X-13958500Y44560363D01*
X-13958500Y44439637D01*
X-13927254Y44323026D01*
X-13866891Y44218475D01*
X-13866888Y44218472D01*
X-13861944Y44212029D01*
X-13863496Y44210839D01*
X-13835112Y44158858D01*
X-13840096Y44089166D01*
X-13881968Y44033233D01*
X-13947432Y44008816D01*
X-13956278Y44008500D01*
X-24711221Y44008500D01*
X-24818780Y44008500D01*
X-24881117Y43991797D01*
X-24922677Y43980661D01*
X-24922678Y43980660D01*
X-25015822Y43926884D01*
X-25015827Y43926880D01*
X-27157889Y41784819D01*
X-27219212Y41751334D01*
X-27245570Y41748500D01*
X-28545535Y41748500D01*
X-28606354Y41736403D01*
X-28675321Y41690321D01*
X-28721404Y41621353D01*
X-28721405Y41621352D01*
X-28733500Y41560542D01*
X-28733500Y39819466D01*
X-28721403Y39758647D01*
X-28675321Y39689680D01*
X-28606353Y39643597D01*
X-28606352Y39643596D01*
X-28565903Y39635551D01*
X-28545537Y39631500D01*
X-26804464Y39631501D01*
X-26743647Y39643597D01*
X-26674680Y39689680D01*
X-26628597Y39758647D01*
X-26616500Y39819463D01*
X-26616501Y40107483D01*
X-26596817Y40174519D01*
X-26544013Y40220274D01*
X-26474854Y40230218D01*
X-26411299Y40201193D01*
X-26382017Y40163775D01*
X-26289630Y39982458D01*
X-26289627Y39982453D01*
X-26250272Y39928284D01*
X-25617963Y40560592D01*
X-25600925Y40497007D01*
X-25535099Y40382993D01*
X-25442007Y40289901D01*
X-25327993Y40224075D01*
X-25264410Y40207038D01*
X-25896718Y39574731D01*
X-25896718Y39574730D01*
X-25842551Y39535376D01*
X-25653218Y39438905D01*
X-25488743Y39385464D01*
X-25431068Y39346027D01*
X-25403869Y39281668D01*
X-25415783Y39212822D01*
X-25463027Y39161346D01*
X-25479608Y39152972D01*
X-25636385Y39088033D01*
X-25636395Y39088028D01*
X-25809755Y38972192D01*
X-25809759Y38972189D01*
X-25957189Y38824759D01*
X-25957189Y38824758D01*
X-26073028Y38651395D01*
X-26073033Y38651386D01*
X-26152823Y38458754D01*
X-26152825Y38458746D01*
X-26193500Y38254258D01*
X-26193500Y38045743D01*
X-26152825Y37841255D01*
X-26152823Y37841247D01*
X-26073033Y37648615D01*
X-26073028Y37648606D01*
X-25957192Y37475246D01*
X-25957189Y37475242D01*
X-25809759Y37327812D01*
X-25809755Y37327809D01*
X-25636395Y37211973D01*
X-25636389Y37211970D01*
X-25636388Y37211969D01*
X-25443753Y37132177D01*
X-25317816Y37107127D01*
X-25239258Y37091501D01*
X-25239254Y37091500D01*
X-25239253Y37091500D01*
X-25030746Y37091500D01*
X-25030745Y37091501D01*
X-24826247Y37132177D01*
X-24633612Y37211969D01*
X-24460245Y37327809D01*
X-24312809Y37475245D01*
X-24196969Y37648612D01*
X-24117177Y37841247D01*
X-24076500Y38045747D01*
X-24076500Y38254253D01*
X-24117177Y38458753D01*
X-24138554Y38510363D01*
X-20358500Y38510363D01*
X-20358500Y38389637D01*
X-20327254Y38273026D01*
X-20266891Y38168475D01*
X-20181525Y38083109D01*
X-20076974Y38022746D01*
X-19960363Y37991500D01*
X-19960360Y37991500D01*
X-19839640Y37991500D01*
X-19839637Y37991500D01*
X-19723026Y38022746D01*
X-19618475Y38083109D01*
X-19533109Y38168475D01*
X-19472746Y38273026D01*
X-19441500Y38389637D01*
X-19441500Y38510363D01*
X-19472746Y38626974D01*
X-19533109Y38731525D01*
X-19618475Y38816891D01*
X-19723026Y38877254D01*
X-19839637Y38908500D01*
X-19960363Y38908500D01*
X-20076974Y38877254D01*
X-20076976Y38877254D01*
X-20076976Y38877253D01*
X-20181525Y38816891D01*
X-20181528Y38816889D01*
X-20266889Y38731528D01*
X-20266891Y38731525D01*
X-20317446Y38643961D01*
X-20327254Y38626974D01*
X-20358500Y38510363D01*
X-24138554Y38510363D01*
X-24186857Y38626976D01*
X-24196968Y38651386D01*
X-24196973Y38651395D01*
X-24312811Y38824758D01*
X-24460242Y38972189D01*
X-24460246Y38972192D01*
X-24633606Y39088028D01*
X-24633615Y39088033D01*
X-24790393Y39152972D01*
X-24844796Y39196813D01*
X-24866861Y39263107D01*
X-24849582Y39330806D01*
X-24798445Y39378417D01*
X-24781258Y39385464D01*
X-24616783Y39438905D01*
X-24427446Y39535378D01*
X-24373284Y39574730D01*
X-24373283Y39574730D01*
X-25005592Y40207038D01*
X-24942007Y40224075D01*
X-24827993Y40289901D01*
X-24734901Y40382993D01*
X-24669075Y40497007D01*
X-24652038Y40560592D01*
X-24019730Y39928283D01*
X-24019730Y39928284D01*
X-23980378Y39982446D01*
X-23883905Y40171783D01*
X-23818243Y40373870D01*
X-23818243Y40373873D01*
X-23785000Y40583754D01*
X-23785000Y40796247D01*
X-23818243Y41006128D01*
X-23818243Y41006131D01*
X-23883905Y41208218D01*
X-23980376Y41397551D01*
X-24019730Y41451718D01*
X-24019731Y41451718D01*
X-24652038Y40819410D01*
X-24669075Y40882993D01*
X-24734901Y40997007D01*
X-24827993Y41090099D01*
X-24942007Y41155925D01*
X-25005592Y41172963D01*
X-24373284Y41805272D01*
X-24427450Y41844625D01*
X-24616783Y41941096D01*
X-24818871Y42006758D01*
X-25028754Y42040000D01*
X-25241246Y42040000D01*
X-25451128Y42006758D01*
X-25455873Y42005619D01*
X-25456339Y42007558D01*
X-25517795Y42005847D01*
X-25577601Y42041971D01*
X-25608383Y42104695D01*
X-25600368Y42174103D01*
X-25573869Y42213427D01*
X-25426933Y42360363D01*
X-15308500Y42360363D01*
X-15308500Y42239637D01*
X-15277254Y42123026D01*
X-15216891Y42018475D01*
X-15131525Y41933109D01*
X-15026974Y41872746D01*
X-14910363Y41841500D01*
X-14910360Y41841500D01*
X-14789640Y41841500D01*
X-14789637Y41841500D01*
X-14673026Y41872746D01*
X-14568475Y41933109D01*
X-14483109Y42018475D01*
X-14422746Y42123026D01*
X-14391500Y42239637D01*
X-14391500Y42360363D01*
X-14422746Y42476974D01*
X-14483109Y42581525D01*
X-14568475Y42666891D01*
X-14673026Y42727254D01*
X-14789637Y42758500D01*
X-14910363Y42758500D01*
X-15026974Y42727254D01*
X-15026976Y42727254D01*
X-15026976Y42727253D01*
X-15131525Y42666891D01*
X-15131528Y42666889D01*
X-15216889Y42581528D01*
X-15216891Y42581525D01*
X-15277254Y42476974D01*
X-15308500Y42360363D01*
X-25426933Y42360363D01*
X-24632113Y43155181D01*
X-24570790Y43188666D01*
X-24544432Y43191500D01*
X-12418411Y43191500D01*
X-12351372Y43171815D01*
X-12305617Y43119011D01*
X-12295673Y43049853D01*
X-12324698Y42986297D01*
X-12330730Y42979819D01*
X-16736920Y38573630D01*
X-16736922Y38573627D01*
X-16817032Y38434875D01*
X-16855638Y38290790D01*
X-16858500Y38280110D01*
X-16858500Y38119890D01*
X-16840678Y38053375D01*
X-16817032Y37965126D01*
X-16787121Y37913319D01*
X-16736922Y37826373D01*
X-16593247Y37682698D01*
X-16593246Y37682697D01*
X-16593244Y37682696D01*
X-16554562Y37660363D01*
X-16454492Y37602588D01*
X-16299730Y37561120D01*
X-16299728Y37561120D01*
X-16139512Y37561120D01*
X-16139510Y37561120D01*
X-16139509Y37561121D01*
X-16131454Y37562181D01*
X-16131099Y37559483D01*
X-16074601Y37558151D01*
X-16016729Y37519003D01*
X-15989210Y37454781D01*
X-16000779Y37385876D01*
X-16024648Y37352349D01*
X-19145257Y34231740D01*
X-19206580Y34198255D01*
X-19276272Y34203239D01*
X-19332205Y34245111D01*
X-19340325Y34257421D01*
X-19348146Y34270967D01*
X-19383109Y34331525D01*
X-19468475Y34416891D01*
X-19573026Y34477254D01*
X-19689637Y34508500D01*
X-19810363Y34508500D01*
X-19926974Y34477254D01*
X-19926976Y34477254D01*
X-19926976Y34477253D01*
X-20031525Y34416891D01*
X-20031528Y34416889D01*
X-20116889Y34331528D01*
X-20116891Y34331525D01*
X-20151854Y34270967D01*
X-20177254Y34226974D01*
X-20208500Y34110363D01*
X-20208500Y33989637D01*
X-20177254Y33873026D01*
X-20116891Y33768475D01*
X-20031525Y33683109D01*
X-19966402Y33645510D01*
X-19957420Y33640324D01*
X-19909205Y33589756D01*
X-19895983Y33521149D01*
X-19921951Y33456284D01*
X-19931740Y33445256D01*
X-21686398Y31690599D01*
X-21747721Y31657114D01*
X-21817413Y31662098D01*
X-21821531Y31663719D01*
X-21912871Y31701553D01*
X-21912880Y31701556D01*
X-22117368Y31742230D01*
X-22117372Y31742230D01*
X-22325878Y31742230D01*
X-22325883Y31742230D01*
X-22530371Y31701555D01*
X-22530379Y31701553D01*
X-22723011Y31621763D01*
X-22723020Y31621758D01*
X-22896380Y31505922D01*
X-22896384Y31505919D01*
X-23043814Y31358489D01*
X-23043817Y31358485D01*
X-23159653Y31185125D01*
X-23159658Y31185116D01*
X-23239448Y30992484D01*
X-23239450Y30992476D01*
X-23280125Y30787988D01*
X-23280125Y30624000D01*
X-23299810Y30556961D01*
X-23352614Y30511206D01*
X-23404125Y30500000D01*
X-28876000Y30500000D01*
X-28943039Y30519685D01*
X-28988794Y30572489D01*
X-29000000Y30624000D01*
X-29000000Y32760363D01*
X-25908500Y32760363D01*
X-25908500Y32639637D01*
X-25877254Y32523026D01*
X-25816891Y32418475D01*
X-25731525Y32333109D01*
X-25626974Y32272746D01*
X-25510363Y32241500D01*
X-25510360Y32241500D01*
X-25389640Y32241500D01*
X-25389637Y32241500D01*
X-25273026Y32272746D01*
X-25168475Y32333109D01*
X-25083109Y32418475D01*
X-25022746Y32523026D01*
X-24991500Y32639637D01*
X-24991500Y32760363D01*
X-25022746Y32876974D01*
X-25083109Y32981525D01*
X-25168475Y33066891D01*
X-25273026Y33127254D01*
X-25389637Y33158500D01*
X-25510363Y33158500D01*
X-25626974Y33127254D01*
X-25626976Y33127254D01*
X-25626976Y33127253D01*
X-25731525Y33066891D01*
X-25731528Y33066889D01*
X-25816889Y32981528D01*
X-25816891Y32981525D01*
X-25831900Y32955528D01*
X-25877254Y32876974D01*
X-25908500Y32760363D01*
X-29000000Y32760363D01*
X-29000000Y35714258D01*
X-28733500Y35714258D01*
X-28733500Y35505743D01*
X-28692825Y35301255D01*
X-28692823Y35301247D01*
X-28613033Y35108615D01*
X-28613028Y35108606D01*
X-28497192Y34935246D01*
X-28497189Y34935242D01*
X-28349759Y34787812D01*
X-28349755Y34787809D01*
X-28176395Y34671973D01*
X-28176386Y34671968D01*
X-28132747Y34653893D01*
X-27983753Y34592177D01*
X-27779685Y34551586D01*
X-27779258Y34551501D01*
X-27779254Y34551500D01*
X-27779253Y34551500D01*
X-27570746Y34551500D01*
X-27570745Y34551501D01*
X-27366247Y34592177D01*
X-27173612Y34671969D01*
X-27000245Y34787809D01*
X-26852809Y34935245D01*
X-26736969Y35108612D01*
X-26657177Y35301247D01*
X-26616500Y35505747D01*
X-26616500Y35714253D01*
X-26616501Y35714258D01*
X-26193500Y35714258D01*
X-26193500Y35505743D01*
X-26152825Y35301255D01*
X-26152823Y35301247D01*
X-26073033Y35108615D01*
X-26073028Y35108606D01*
X-25957192Y34935246D01*
X-25957189Y34935242D01*
X-25809759Y34787812D01*
X-25809755Y34787809D01*
X-25636395Y34671973D01*
X-25636386Y34671968D01*
X-25592747Y34653893D01*
X-25443753Y34592177D01*
X-25239685Y34551586D01*
X-25239258Y34551501D01*
X-25239254Y34551500D01*
X-25239253Y34551500D01*
X-25030746Y34551500D01*
X-25030745Y34551501D01*
X-24826247Y34592177D01*
X-24633612Y34671969D01*
X-24460245Y34787809D01*
X-24312809Y34935245D01*
X-24196969Y35108612D01*
X-24117177Y35301247D01*
X-24076500Y35505747D01*
X-24076500Y35714253D01*
X-24117177Y35918753D01*
X-24184227Y36080625D01*
X-24196968Y36111386D01*
X-24196973Y36111395D01*
X-24312809Y36284755D01*
X-24312812Y36284759D01*
X-24460242Y36432189D01*
X-24460247Y36432193D01*
X-24633606Y36548028D01*
X-24633615Y36548033D01*
X-24826247Y36627823D01*
X-24826255Y36627825D01*
X-25030743Y36668500D01*
X-25030747Y36668500D01*
X-25239253Y36668500D01*
X-25239258Y36668500D01*
X-25443746Y36627825D01*
X-25443754Y36627823D01*
X-25636386Y36548033D01*
X-25636395Y36548028D01*
X-25809753Y36432193D01*
X-25809759Y36432189D01*
X-25957189Y36284759D01*
X-25957192Y36284755D01*
X-26073028Y36111395D01*
X-26073033Y36111386D01*
X-26152823Y35918754D01*
X-26152825Y35918746D01*
X-26193500Y35714258D01*
X-26616501Y35714258D01*
X-26657177Y35918753D01*
X-26724227Y36080625D01*
X-26736968Y36111386D01*
X-26736973Y36111395D01*
X-26852809Y36284755D01*
X-26852812Y36284759D01*
X-27000242Y36432189D01*
X-27000247Y36432193D01*
X-27173606Y36548028D01*
X-27173615Y36548033D01*
X-27366247Y36627823D01*
X-27366255Y36627825D01*
X-27570743Y36668500D01*
X-27570747Y36668500D01*
X-27779253Y36668500D01*
X-27779258Y36668500D01*
X-27983746Y36627825D01*
X-27983754Y36627823D01*
X-28176386Y36548033D01*
X-28176395Y36548028D01*
X-28349753Y36432193D01*
X-28349759Y36432189D01*
X-28497189Y36284759D01*
X-28497192Y36284755D01*
X-28613028Y36111395D01*
X-28613033Y36111386D01*
X-28692823Y35918754D01*
X-28692825Y35918746D01*
X-28733500Y35714258D01*
X-29000000Y35714258D01*
X-29000000Y38254258D01*
X-28733500Y38254258D01*
X-28733500Y38045743D01*
X-28692825Y37841255D01*
X-28692823Y37841247D01*
X-28613033Y37648615D01*
X-28613028Y37648606D01*
X-28497192Y37475246D01*
X-28497189Y37475242D01*
X-28349759Y37327812D01*
X-28349755Y37327809D01*
X-28176395Y37211973D01*
X-28176389Y37211970D01*
X-28176388Y37211969D01*
X-27983753Y37132177D01*
X-27857816Y37107127D01*
X-27779258Y37091501D01*
X-27779254Y37091500D01*
X-27779253Y37091500D01*
X-27570746Y37091500D01*
X-27570745Y37091501D01*
X-27366247Y37132177D01*
X-27173612Y37211969D01*
X-27000245Y37327809D01*
X-26852809Y37475245D01*
X-26736969Y37648612D01*
X-26657177Y37841247D01*
X-26616500Y38045747D01*
X-26616500Y38254253D01*
X-26657177Y38458753D01*
X-26726857Y38626976D01*
X-26736968Y38651386D01*
X-26736973Y38651395D01*
X-26852811Y38824758D01*
X-27000242Y38972189D01*
X-27000246Y38972192D01*
X-27173606Y39088028D01*
X-27173615Y39088033D01*
X-27366247Y39167823D01*
X-27366255Y39167825D01*
X-27570743Y39208500D01*
X-27570747Y39208500D01*
X-27779253Y39208500D01*
X-27779258Y39208500D01*
X-27983746Y39167825D01*
X-27983754Y39167823D01*
X-28176386Y39088033D01*
X-28176395Y39088028D01*
X-28349755Y38972192D01*
X-28349759Y38972189D01*
X-28497189Y38824759D01*
X-28497189Y38824758D01*
X-28613028Y38651395D01*
X-28613033Y38651386D01*
X-28692823Y38458754D01*
X-28692825Y38458746D01*
X-28733500Y38254258D01*
X-29000000Y38254258D01*
X-29000000Y44810363D01*
X-26308500Y44810363D01*
X-26308500Y44689637D01*
X-26277254Y44573026D01*
X-26216891Y44468475D01*
X-26131525Y44383109D01*
X-26026974Y44322746D01*
X-25910363Y44291500D01*
X-25910360Y44291500D01*
X-25789640Y44291500D01*
X-25789637Y44291500D01*
X-25673026Y44322746D01*
X-25568475Y44383109D01*
X-25483109Y44468475D01*
X-25422746Y44573026D01*
X-25391500Y44689637D01*
X-25391500Y44810363D01*
X-25422746Y44926974D01*
X-25483109Y45031525D01*
X-25568475Y45116891D01*
X-25673026Y45177254D01*
X-25789637Y45208500D01*
X-25910363Y45208500D01*
X-26026974Y45177254D01*
X-26026976Y45177254D01*
X-26026976Y45177253D01*
X-26131525Y45116891D01*
X-26131528Y45116889D01*
X-26216889Y45031528D01*
X-26216891Y45031525D01*
X-26260098Y44956688D01*
X-26277254Y44926974D01*
X-26308500Y44810363D01*
X-29000000Y44810363D01*
X-29000000Y46374660D01*
X-28980315Y46441699D01*
X-28927511Y46487454D01*
X-28874670Y46498653D01*
X-23326132Y46438991D01*
G37*
%TD.AperFunction*%
%TA.AperFunction,Conductor*%
G36*
X-14241118Y35550085D02*
G01*
X-14185185Y35508213D01*
X-14177065Y35495903D01*
X-14136921Y35426372D01*
X-14023628Y35313079D01*
X-14023627Y35313078D01*
X-14023625Y35313077D01*
X-13969832Y35282020D01*
X-13884872Y35232968D01*
X-13730111Y35191500D01*
X-13730109Y35191500D01*
X-13569891Y35191500D01*
X-13569889Y35191500D01*
X-13415128Y35232968D01*
X-13400102Y35241644D01*
X-13332204Y35258117D01*
X-13266177Y35235266D01*
X-13222985Y35180346D01*
X-13216341Y35110793D01*
X-13248356Y35048690D01*
X-13250420Y35046576D01*
X-16606398Y31690599D01*
X-16667721Y31657114D01*
X-16737413Y31662098D01*
X-16741531Y31663719D01*
X-16832871Y31701553D01*
X-16832880Y31701556D01*
X-17037368Y31742230D01*
X-17037372Y31742230D01*
X-17245878Y31742230D01*
X-17245883Y31742230D01*
X-17450371Y31701555D01*
X-17450379Y31701553D01*
X-17643011Y31621763D01*
X-17643020Y31621758D01*
X-17816380Y31505922D01*
X-17816384Y31505919D01*
X-17963814Y31358489D01*
X-17963817Y31358485D01*
X-18079653Y31185125D01*
X-18079658Y31185116D01*
X-18159448Y30992484D01*
X-18159450Y30992476D01*
X-18200125Y30787988D01*
X-18200125Y30624000D01*
X-18202676Y30615315D01*
X-18201387Y30606353D01*
X-18212366Y30582313D01*
X-18219810Y30556961D01*
X-18226651Y30551034D01*
X-18230412Y30542797D01*
X-18252647Y30528508D01*
X-18272614Y30511206D01*
X-18283129Y30508919D01*
X-18289190Y30505023D01*
X-18324125Y30500000D01*
X-18499125Y30500000D01*
X-18566164Y30519685D01*
X-18611919Y30572489D01*
X-18623125Y30624000D01*
X-18623125Y30787984D01*
X-18623126Y30787988D01*
X-18663802Y30992483D01*
X-18701639Y31083828D01*
X-18709107Y31153294D01*
X-18677832Y31215773D01*
X-18674786Y31218931D01*
X-14372131Y35521586D01*
X-14310810Y35555069D01*
X-14241118Y35550085D01*
G37*
%TD.AperFunction*%
%TA.AperFunction,Conductor*%
G36*
X-2523814Y36613950D02*
G01*
X-2514852Y36615238D01*
X-2490812Y36604260D01*
X-2465460Y36596815D01*
X-2459533Y36589975D01*
X-2451296Y36586213D01*
X-2437007Y36563979D01*
X-2419705Y36544011D01*
X-2417418Y36533497D01*
X-2413522Y36527435D01*
X-2408499Y36492500D01*
X-2408499Y36394482D01*
X-2377253Y36277871D01*
X-2316890Y36173320D01*
X-2316887Y36173317D01*
X-2311943Y36166874D01*
X-2313886Y36165384D01*
X-2305115Y36149321D01*
X-2288522Y36123502D01*
X-2287631Y36117302D01*
X-2286333Y36114925D01*
X-2283499Y36088567D01*
X-2283499Y35904859D01*
X-2303184Y35837820D01*
X-2319818Y35817178D01*
X-6446398Y31690599D01*
X-6507721Y31657114D01*
X-6577413Y31662098D01*
X-6581531Y31663719D01*
X-6672871Y31701553D01*
X-6672880Y31701556D01*
X-6877368Y31742230D01*
X-6877372Y31742230D01*
X-7085878Y31742230D01*
X-7085883Y31742230D01*
X-7290371Y31701555D01*
X-7290379Y31701553D01*
X-7483011Y31621763D01*
X-7483020Y31621758D01*
X-7656380Y31505922D01*
X-7656384Y31505919D01*
X-7803814Y31358489D01*
X-7803817Y31358485D01*
X-7919653Y31185125D01*
X-7919658Y31185116D01*
X-7999448Y30992484D01*
X-7999450Y30992476D01*
X-8040125Y30787988D01*
X-8040125Y30624000D01*
X-8042676Y30615315D01*
X-8041387Y30606353D01*
X-8052366Y30582313D01*
X-8059810Y30556961D01*
X-8066651Y30551034D01*
X-8070412Y30542797D01*
X-8092647Y30528508D01*
X-8112614Y30511206D01*
X-8123129Y30508919D01*
X-8129190Y30505023D01*
X-8164125Y30500000D01*
X-8339125Y30500000D01*
X-8406164Y30519685D01*
X-8451919Y30572489D01*
X-8463125Y30624000D01*
X-8463125Y30787984D01*
X-8463126Y30787988D01*
X-8503802Y30992483D01*
X-8541638Y31083825D01*
X-8549106Y31153293D01*
X-8517831Y31215773D01*
X-8514757Y31218958D01*
X-8514756Y31218959D01*
X-8179758Y31553956D01*
X-8135852Y31630004D01*
X-8113124Y31714824D01*
X-8113124Y31802637D01*
X-8113124Y31810232D01*
X-8113125Y31810250D01*
X-8113125Y32706689D01*
X-8093440Y32773728D01*
X-8040636Y32819483D01*
X-7971478Y32829427D01*
X-7907922Y32800402D01*
X-7901444Y32794370D01*
X-7885854Y32778780D01*
X-7781303Y32718417D01*
X-7664692Y32687171D01*
X-7664689Y32687171D01*
X-7543969Y32687171D01*
X-7543966Y32687171D01*
X-7427355Y32718417D01*
X-7322804Y32778780D01*
X-7237438Y32864146D01*
X-7177075Y32968697D01*
X-7145829Y33085308D01*
X-7145829Y33206034D01*
X-7177075Y33322645D01*
X-7237438Y33427196D01*
X-7322804Y33512562D01*
X-7427355Y33572925D01*
X-7543966Y33604171D01*
X-7664692Y33604171D01*
X-7781303Y33572925D01*
X-7781305Y33572925D01*
X-7781305Y33572924D01*
X-7885854Y33512562D01*
X-7885857Y33512560D01*
X-7901444Y33496972D01*
X-7962767Y33463487D01*
X-8032459Y33468471D01*
X-8088392Y33510343D01*
X-8112809Y33575807D01*
X-8113125Y33584653D01*
X-8113125Y33614254D01*
X-8093440Y33681293D01*
X-8076806Y33701935D01*
X-5198560Y36580181D01*
X-5137237Y36613666D01*
X-5110879Y36616500D01*
X-2532499Y36616500D01*
X-2523814Y36613950D01*
G37*
%TD.AperFunction*%
%TD*%
M02*
