%TF.GenerationSoftware,KiCad,Pcbnew,10.0.4*%
%TF.CreationDate,2026-08-04T16:51:53+12:00*%
%TF.ProjectId,MicroDev128,4d696372-6f44-4657-9631-32382e6b6963,rev?*%
%TF.SameCoordinates,PX5f5e100PY5f5e100*%
%TF.FileFunction,Copper,L4,Bot*%
%TF.FilePolarity,Positive*%
%FSLAX46Y46*%
G04 Gerber Fmt 4.6, Leading zero omitted, Abs format (unit mm)*
G04 Created by KiCad (PCBNEW 10.0.4) date 2026-08-04 16:51:53*
%MOMM*%
%LPD*%
G01*
G04 APERTURE LIST*
%TA.AperFunction,ComponentPad*%
%ADD10R,1.700000X1.700000*%
%TD*%
%TA.AperFunction,ComponentPad*%
%ADD11C,1.700000*%
%TD*%
%TA.AperFunction,ViaPad*%
%ADD12C,0.500000*%
%TD*%
%TA.AperFunction,ViaPad*%
%ADD13C,0.800000*%
%TD*%
%TA.AperFunction,Conductor*%
%ADD14C,0.200000*%
%TD*%
%TA.AperFunction,Conductor*%
%ADD15C,0.600000*%
%TD*%
%TA.AperFunction,Conductor*%
%ADD16C,0.800000*%
%TD*%
%TA.AperFunction,Conductor*%
%ADD17C,0.400000*%
%TD*%
%TA.AperFunction,Conductor*%
%ADD18C,0.250000*%
%TD*%
G04 APERTURE END LIST*
D10*
%TO.P,J1,1,Pin_1_1*%
%TO.N,Net-(J1-Pin_1)*%
X-27675000Y40690000D03*
D11*
%TO.P,J1,2,Pin_2_2*%
%TO.N,+5V*%
X-25135000Y40690000D03*
%TO.P,J1,3,Pin_3_3*%
%TO.N,unconnected-(J1-Pin_3-Pad3)*%
X-27675000Y38150000D03*
%TO.P,J1,4,Pin_4_4*%
%TO.N,unconnected-(J1-Pin_4-Pad4)*%
X-25135000Y38150000D03*
%TO.P,J1,5,Pin_5_5*%
%TO.N,unconnected-(J1-Pin_5-Pad5)*%
X-27675000Y35610000D03*
%TO.P,J1,6,Pin_6_6*%
%TO.N,GND*%
X-25135000Y35610000D03*
%TD*%
D10*
%TO.P,J3,1,Pin_1_1*%
%TO.N,Net-(J3-Pin_1)*%
X10798375Y30683730D03*
D11*
%TO.P,J3,2,Pin_2_2*%
%TO.N,Net-(J3-Pin_2)*%
X8258375Y30683730D03*
%TO.P,J3,3,Pin_3_3*%
%TO.N,Net-(J3-Pin_3)*%
X5718375Y30683730D03*
%TO.P,J3,4,Pin_4_4*%
%TO.N,Net-(J3-Pin_4)*%
X3178375Y30683730D03*
%TO.P,J3,5,Pin_5_5*%
%TO.N,Net-(J3-Pin_5)*%
X638375Y30683730D03*
%TO.P,J3,6,Pin_6_6*%
%TO.N,Net-(J3-Pin_6)*%
X-1901625Y30683730D03*
%TO.P,J3,7,Pin_7_7*%
%TO.N,Net-(J3-Pin_7)*%
X-4441625Y30683730D03*
%TO.P,J3,8,Pin_8_8*%
%TO.N,Net-(J3-Pin_8)*%
X-6981625Y30683730D03*
%TO.P,J3,9,Pin_9_9*%
%TO.N,Net-(J3-Pin_9)*%
X-9521625Y30683730D03*
%TO.P,J3,10,Pin_10_10*%
%TO.N,Net-(J3-Pin_10)*%
X-12061625Y30683730D03*
%TO.P,J3,11,Pin_11_11*%
%TO.N,Net-(J3-Pin_11)*%
X-14601625Y30683730D03*
%TO.P,J3,12,Pin_12_12*%
%TO.N,Net-(J3-Pin_12)*%
X-17141625Y30683730D03*
%TO.P,J3,13,Pin_13_13*%
%TO.N,Net-(J3-Pin_13)*%
X-19681625Y30683730D03*
%TO.P,J3,14,Pin_14_14*%
%TO.N,Net-(J3-Pin_14)*%
X-22221625Y30683730D03*
%TD*%
D10*
%TO.P,J4,1,Pin_1_1*%
%TO.N,EXT IO V*%
X10798375Y45894719D03*
D11*
%TO.P,J4,2,Pin_2_2*%
%TO.N,VDC*%
X8258375Y45894719D03*
%TO.P,J4,3,Pin_3_3*%
%TO.N,GND*%
X5718375Y45894719D03*
%TO.P,J4,4,Pin_4_4*%
X3178375Y45894719D03*
%TO.P,J4,5,Pin_5_5*%
%TO.N,+3.3V*%
X638375Y45894719D03*
%TO.P,J4,6,Pin_6_6*%
%TO.N,+5V*%
X-1901625Y45894719D03*
%TO.P,J4,7,Pin_7_7*%
%TO.N,Net-(J4-Pin_7)*%
X-4441625Y45894719D03*
%TO.P,J4,8,Pin_8_8*%
%TO.N,Net-(J4-Pin_8)*%
X-6981625Y45894719D03*
%TO.P,J4,9,Pin_9_9*%
%TO.N,Net-(J4-Pin_9)*%
X-9521625Y45894719D03*
%TO.P,J4,10,Pin_10_10*%
%TO.N,Net-(J4-Pin_10)*%
X-12061625Y45894719D03*
%TO.P,J4,11,Pin_11_11*%
%TO.N,Net-(J4-Pin_11)*%
X-14601625Y45894719D03*
%TO.P,J4,12,Pin_12_12*%
%TO.N,Net-(J4-Pin_12)*%
X-17141625Y45894719D03*
%TO.P,J4,13,Pin_13_13*%
%TO.N,Net-(J4-Pin_13)*%
X-19681625Y45894719D03*
%TO.P,J4,14,Pin_14_14*%
%TO.N,Net-(J4-Pin_14)*%
X-22221625Y45894719D03*
%TD*%
D12*
%TO.N,Net-(U1-XTAL32K2{slash}PF1)*%
X-18258553Y32778554D03*
X6665000Y38470000D03*
X8190000Y38410000D03*
X9313188Y35766812D03*
%TO.N,+5V*%
X-500000Y42750000D03*
X-14098554Y34398554D03*
X14050000Y35200000D03*
X6650000Y37100000D03*
X10000000Y42200000D03*
X-19347500Y41397500D03*
D13*
X-4720395Y35129605D03*
D12*
%TO.N,GND*%
X7500000Y32750000D03*
X2287500Y39400000D03*
X-9800000Y37600000D03*
X6595678Y37697538D03*
X3387500Y37200000D03*
X2287500Y38300000D03*
X3387500Y39400000D03*
X-8700000Y38700000D03*
X13100000Y44250000D03*
X-25850000Y44750000D03*
X150000Y35550000D03*
X-25450000Y32700000D03*
X4487500Y38300000D03*
X-7250000Y42025000D03*
X-19750000Y34050000D03*
X-1000000Y36500000D03*
D13*
X-13650000Y35800000D03*
D12*
X12300000Y41100000D03*
X3387500Y38300000D03*
X3425000Y43200000D03*
X-9800000Y38700000D03*
X13400000Y32950000D03*
X4487500Y37200000D03*
X-8700000Y37600000D03*
X-14850000Y42300000D03*
X-19900000Y38450000D03*
X5885876Y33514124D03*
X4487500Y39400000D03*
X2287500Y37200000D03*
%TO.N,Net-(U2-SW2)*%
X-10650000Y35450000D03*
X-4873657Y40574999D03*
D13*
%TO.N,+3.3V*%
X-1500000Y42300000D03*
X-11258419Y33000000D03*
D12*
X-16250000Y38200000D03*
X-4500000Y42350000D03*
D13*
X-8114620Y35514620D03*
D12*
X17750000Y37750000D03*
%TO.N,Net-(J4-Pin_7)*%
X4599809Y41471562D03*
X1902372Y42674124D03*
%TO.N,Net-(U2-SW1)*%
X-7604329Y33145671D03*
X-10850000Y36200000D03*
%TO.N,Net-(U2-RT)*%
X-8079316Y40745684D03*
X-6950000Y37100000D03*
%TO.N,Net-(J3-Pin_13)*%
X-250000Y40100000D03*
%TO.N,Net-(J3-Pin_12)*%
X42423Y39542423D03*
%TO.N,Net-(J3-Pin_11)*%
X-738632Y38512998D03*
%TO.N,Net-(J3-Pin_10)*%
X-350000Y37700000D03*
%TO.N,Net-(J3-Pin_9)*%
X195671Y38045671D03*
%TO.N,Net-(J3-Pin_8)*%
X-1949999Y36454845D03*
%TO.N,Net-(U1-VDDIO2)*%
X15800000Y38950000D03*
X6479045Y33604422D03*
%TO.N,Net-(J4-Pin_8)*%
X2600000Y34900000D03*
%TO.N,Net-(J4-Pin_9)*%
X3200000Y34900000D03*
%TO.N,Net-(J4-Pin_10)*%
X3800003Y34900000D03*
%TO.N,Net-(J4-Pin_11)*%
X4400006Y34900000D03*
%TO.N,Net-(J4-Pin_12)*%
X4994070Y34984212D03*
%TO.N,Net-(J4-Pin_13)*%
X5600000Y34900000D03*
%TO.N,Net-(J4-Pin_14)*%
X6200000Y34900000D03*
%TO.N,Net-(J3-Pin_2)*%
X9900000Y32750000D03*
%TO.N,Net-(J3-Pin_3)*%
X6700000Y40100000D03*
%TO.N,Net-(J3-Pin_4)*%
X5750000Y41650000D03*
%TO.N,Net-(J1-Pin_1)*%
X3855589Y41495852D03*
%TO.N,Net-(J3-Pin_14)*%
X1100000Y41050000D03*
%TO.N,Net-(R2-Pad1)*%
X-10065369Y42135479D03*
X-13500000Y44500000D03*
%TD*%
%TO.N,Net-(U1-XTAL32K2{slash}PF1)*%
D14*
X9416812Y35766812D02*
X9313188Y35766812D01*
X-17704999Y32225000D02*
X5875000Y32225000D01*
X5875000Y32225000D02*
X9416812Y35766812D01*
X8190000Y38410000D02*
X6725000Y38410000D01*
X6725000Y38410000D02*
X6665000Y38470000D01*
X-18258553Y32778554D02*
X-17704999Y32225000D01*
%TO.N,+5V*%
D15*
X-14098554Y34398554D02*
X-19347500Y39647500D01*
X-19347500Y39647500D02*
X-19347500Y41397500D01*
%TO.N,+3.3V*%
D16*
X-1500000Y42300000D02*
X-1500000Y42500000D01*
D17*
X1788375Y44744719D02*
X638375Y45894719D01*
D16*
X-1500000Y43756344D02*
X638375Y45894719D01*
D17*
X10905281Y44744719D02*
X1788375Y44744719D01*
X17750000Y37750000D02*
X17750000Y37900000D01*
D16*
X-1500000Y42500000D02*
X-1500000Y43756344D01*
D17*
X17750000Y37900000D02*
X10905281Y44744719D01*
%TO.N,Net-(J4-Pin_7)*%
D18*
X1902372Y42674124D02*
X1624124Y42395876D01*
X2574124Y42200000D02*
X2574124Y42395876D01*
X-300000Y42200000D02*
X-1000000Y41500000D01*
X-2646906Y42054974D02*
X-2646906Y44100000D01*
X2295876Y42674124D02*
X1902372Y42674124D01*
X1624124Y42200000D02*
X-300000Y42200000D01*
X4599809Y41737691D02*
X4137500Y42200000D01*
X4599809Y41471562D02*
X4599809Y41737691D01*
X-2646906Y44100000D02*
X-4441625Y45894719D01*
X-2291932Y41700000D02*
X-2646906Y42054974D01*
X-1783884Y41700000D02*
X-2291932Y41700000D01*
X-1583884Y41500000D02*
X-1783884Y41700000D01*
X-1000000Y41500000D02*
X-1583884Y41500000D01*
X2574124Y42395876D02*
X2295876Y42674124D01*
X1624124Y42395876D02*
X1624124Y42200000D01*
X4137500Y42200000D02*
X2574124Y42200000D01*
%TO.N,Net-(U2-SW1)*%
D14*
X-10658658Y36200000D02*
X-7604329Y33145671D01*
X-10850000Y36200000D02*
X-10658658Y36200000D01*
%TO.N,Net-(U2-RT)*%
X-6930703Y37180704D02*
X-6930703Y37119297D01*
X-8079316Y40745684D02*
X-8079316Y38329317D01*
X-8079316Y38329317D02*
X-6930703Y37180704D01*
X-6930703Y37119297D02*
X-6950000Y37100000D01*
%TO.N,Net-(U1-VDDIO2)*%
D18*
X15800000Y38950000D02*
X11824623Y38950000D01*
X11824623Y38950000D02*
X6479045Y33604422D01*
%TO.N,Net-(J4-Pin_8)*%
X392423Y38520671D02*
X670671Y38242423D01*
X-6981625Y45894719D02*
X-6981625Y45481625D01*
X-10876Y38510876D02*
X-1081Y38520671D01*
X670671Y37848919D02*
X660876Y37839124D01*
X2600000Y35900000D02*
X2600000Y34900000D01*
X-4025000Y42525000D02*
X-10876Y38510876D01*
X-1081Y38520671D02*
X392423Y38520671D01*
X-4303248Y42825000D02*
X-4025000Y42546752D01*
X-6981625Y45481625D02*
X-4325000Y42825000D01*
X-4025000Y42546752D02*
X-4025000Y42525000D01*
X660876Y37839124D02*
X2600000Y35900000D01*
X670671Y38242423D02*
X670671Y37848919D01*
X-4325000Y42825000D02*
X-4303248Y42825000D01*
%TO.N,Net-(J4-Pin_9)*%
X3200000Y34828248D02*
X3200000Y34900000D01*
X1948094Y34425000D02*
X2796752Y34425000D01*
X-9521625Y45894719D02*
X1948094Y34425000D01*
X2796752Y34425000D02*
X3200000Y34828248D01*
%TO.N,Net-(J4-Pin_10)*%
X3046752Y34075000D02*
X3800003Y34828251D01*
X3800003Y34828251D02*
X3800003Y34900000D01*
X-12061625Y45894719D02*
X-241906Y34075000D01*
X-241906Y34075000D02*
X3046752Y34075000D01*
%TO.N,Net-(J4-Pin_11)*%
X-14601625Y45894719D02*
X-13136625Y45894719D01*
X-13136625Y45894719D02*
X-13136625Y45449439D01*
X-386880Y33725000D02*
X3296755Y33725000D01*
X-11481599Y44819719D02*
X-386880Y33725000D01*
X-13136625Y45449439D02*
X-12506905Y44819719D01*
X3296755Y33725000D02*
X4400006Y34828251D01*
X-12506905Y44819719D02*
X-11481599Y44819719D01*
X4400006Y34828251D02*
X4400006Y34900000D01*
%TO.N,Net-(J4-Pin_12)*%
X-9325000Y37451547D02*
X-9325000Y37796752D01*
X-5173453Y33300000D02*
X-7489620Y35616167D01*
X4994070Y34984212D02*
X4994070Y34788043D01*
X-17141625Y45268172D02*
X-17141625Y45894719D01*
X3506027Y33300000D02*
X-5173453Y33300000D01*
X-7855736Y36139620D02*
X-8013073Y36139620D01*
X-9603248Y38075000D02*
X-9948453Y38075000D01*
X-9948453Y38075000D02*
X-17141625Y45268172D01*
X-8013073Y36139620D02*
X-9325000Y37451547D01*
X4994070Y34788043D02*
X3506027Y33300000D01*
X-7489620Y35773504D02*
X-7855736Y36139620D01*
X-9325000Y37796752D02*
X-9603248Y38075000D01*
X-7489620Y35616167D02*
X-7489620Y35773504D01*
%TO.N,Net-(J4-Pin_13)*%
X5600000Y34900000D02*
X5600000Y34700000D01*
X5600000Y34700000D02*
X3800000Y32900000D01*
X-6686906Y32900000D02*
X-19681625Y45894719D01*
X3800000Y32900000D02*
X-6686906Y32900000D01*
%TO.N,Net-(J4-Pin_14)*%
X-22221625Y45894719D02*
X-8876906Y32550000D01*
X4250000Y32550000D02*
X6200000Y34500000D01*
X-8876906Y32550000D02*
X4250000Y32550000D01*
X6200000Y34500000D02*
X6200000Y34900000D01*
%TO.N,Net-(J3-Pin_2)*%
D14*
X9900000Y32750000D02*
X9750000Y32600000D01*
X9750000Y32600000D02*
X9750000Y32175355D01*
X9750000Y32175355D02*
X8258375Y30683730D01*
%TO.N,Net-(R2-Pad1)*%
D18*
X-13227186Y43000000D02*
X-13227186Y44227186D01*
X-12377186Y42150000D02*
X-13227186Y43000000D01*
X-9694670Y42150000D02*
X-12377186Y42150000D01*
X-13227186Y44227186D02*
X-13500000Y44500000D01*
%TD*%
M02*
